<svg width="1566" height="1460" viewBox="0 0 1566 1460" xmlns="http://www.w3.org/2000/svg" xmlns:xlink="http://www.w3.org/1999/xlink" xml:space="preserve" overflow="hidden"><defs><clipPath id="clip0"><rect x="216" y="413" width="1566" height="1460"/></clipPath><clipPath id="clip1"><rect x="218" y="504" width="72" height="434"/></clipPath><clipPath id="clip2"><rect x="218" y="964" width="72" height="434"/></clipPath><clipPath id="clip3"><rect x="218" y="1423" width="72" height="434"/></clipPath></defs><g clip-path="url(#clip0)" transform="translate(-216 -413)"><path d="M218.988 491.451 289.8 491.451 289.8 951.389 218.988 951.389Z" fill="#A5A5A5" fill-rule="evenodd" fill-opacity="0.2"/><path d="M289.8 491.451 360.613 491.451 360.613 556.305 289.8 556.305Z" fill-rule="evenodd"/><path d="M360.613 491.451 431.425 491.451 431.425 556.305 360.613 556.305Z" fill-rule="evenodd"/><path d="M431.425 491.451 502.238 491.451 502.238 556.305 431.425 556.305Z" fill-rule="evenodd"/><path d="M502.238 491.451 573.05 491.451 573.05 556.305 502.238 556.305Z" fill-rule="evenodd"/><path d="M573.05 491.451 643.863 491.451 643.863 556.305 573.05 556.305Z" fill-rule="evenodd"/><path d="M643.863 491.451 714.675 491.451 714.675 556.305 643.863 556.305Z" fill-rule="evenodd"/><path d="M714.675 491.451 785.488 491.451 785.488 556.305 714.675 556.305Z" fill-rule="evenodd"/><path d="M785.488 491.451 856.3 491.451 856.3 556.305 785.488 556.305Z" fill="#FFFFFF" fill-rule="evenodd"/><path d="M856.3 491.451 927.113 491.451 927.113 556.305 856.3 556.305Z" fill="#FFFFFF" fill-rule="evenodd"/><path d="M927.113 491.451 997.925 491.451 997.925 556.305 927.113 556.305Z" fill="#FFFFFF" fill-rule="evenodd"/><path d="M997.925 491.451 1068.74 491.451 1068.74 556.305 997.925 556.305Z" fill="#FFFFFF" fill-rule="evenodd"/><path d="M1068.74 491.451 1139.55 491.451 1139.55 556.305 1068.74 556.305Z" fill="#FFFFFF" fill-rule="evenodd"/><path d="M1139.55 491.451 1210.36 491.451 1210.36 556.305 1139.55 556.305Z" fill="#FFFFFF" fill-rule="evenodd"/><path d="M1210.36 491.451 1281.18 491.451 1281.18 556.305 1210.36 556.305Z" fill="#FFFFFF" fill-rule="evenodd"/><path d="M1281.18 491.451 1351.99 491.451 1351.99 556.305 1281.18 556.305Z" fill-rule="evenodd"/><path d="M1351.99 491.451 1422.8 491.451 1422.8 556.305 1351.99 556.305Z" fill-rule="evenodd"/><path d="M1422.8 491.451 1493.61 491.451 1493.61 556.305 1422.8 556.305Z" fill-rule="evenodd"/><path d="M1493.61 491.451 1564.43 491.451 1564.43 556.305 1493.61 556.305Z" fill-rule="evenodd"/><path d="M1564.43 491.451 1635.24 491.451 1635.24 556.305 1564.43 556.305Z" fill-rule="evenodd"/><path d="M1635.24 491.451 1706.05 491.451 1706.05 556.305 1635.24 556.305Z" fill-rule="evenodd"/><path d="M1706.05 491.451 1776.86 491.451 1776.86 556.305 1706.05 556.305Z" fill-rule="evenodd"/><path d="M289.8 556.305 360.613 556.305 360.613 624.138 289.8 624.138Z" fill-rule="evenodd"/><path d="M360.613 556.305 431.425 556.305 431.425 624.138 360.613 624.138Z" fill="#FFFFFF" fill-rule="evenodd"/><path d="M431.425 556.305 502.238 556.305 502.238 624.138 431.425 624.138Z" fill="#FFFFFF" fill-rule="evenodd"/><path d="M502.238 556.305 573.05 556.305 573.05 624.138 502.238 624.138Z" fill="#FFFFFF" fill-rule="evenodd"/><path d="M573.05 556.305 643.863 556.305 643.863 624.138 573.05 624.138Z" fill="#FFFFFF" fill-rule="evenodd"/><path d="M643.863 556.305 714.675 556.305 714.675 624.138 643.863 624.138Z" fill="#FFFFFF" fill-rule="evenodd"/><path d="M714.675 556.305 785.488 556.305 785.488 624.138 714.675 624.138Z" fill-rule="evenodd"/><path d="M785.488 556.305 856.3 556.305 856.3 624.138 785.488 624.138Z" fill="#FFFFFF" fill-rule="evenodd"/><path d="M856.3 556.305 927.113 556.305 927.113 624.138 856.3 624.138Z" fill="#FFFFFF" fill-rule="evenodd"/><path d="M927.113 556.305 997.925 556.305 997.925 624.138 927.113 624.138Z" fill="#FFFFFF" fill-rule="evenodd"/><path d="M997.925 556.305 1068.74 556.305 1068.74 624.138 997.925 624.138Z" fill="#FFFFFF" fill-rule="evenodd"/><path d="M1068.74 556.305 1139.55 556.305 1139.55 624.138 1068.74 624.138Z" fill="#FFFFFF" fill-rule="evenodd"/><path d="M1139.55 556.305 1210.36 556.305 1210.36 624.138 1139.55 624.138Z" fill="#FFFFFF" fill-rule="evenodd"/><path d="M1210.36 556.305 1281.18 556.305 1281.18 624.138 1210.36 624.138Z" fill="#FFFFFF" fill-rule="evenodd"/><path d="M1281.18 556.305 1351.99 556.305 1351.99 624.138 1281.18 624.138Z" fill-rule="evenodd"/><path d="M1351.99 556.305 1422.8 556.305 1422.8 624.138 1351.99 624.138Z" fill="#FFFFFF" fill-rule="evenodd"/><path d="M1422.8 556.305 1493.61 556.305 1493.61 624.138 1422.8 624.138Z" fill="#FFFFFF" fill-rule="evenodd"/><path d="M1493.61 556.305 1564.43 556.305 1564.43 624.138 1493.61 624.138Z" fill="#FFFFFF" fill-rule="evenodd"/><path d="M1564.43 556.305 1635.24 556.305 1635.24 624.138 1564.43 624.138Z" fill="#FFFFFF" fill-rule="evenodd"/><path d="M1635.24 556.305 1706.05 556.305 1706.05 624.138 1635.24 624.138Z" fill="#FFFFFF" fill-rule="evenodd"/><path d="M1706.05 556.305 1776.86 556.305 1776.86 624.138 1706.05 624.138Z" fill-rule="evenodd"/><path d="M289.8 624.138 360.613 624.138 360.613 688.993 289.8 688.993Z" fill-rule="evenodd"/><path d="M360.613 624.138 431.425 624.138 431.425 688.993 360.613 688.993Z" fill="#FFFFFF" fill-rule="evenodd"/><path d="M431.425 624.138 502.238 624.138 502.238 688.993 431.425 688.993Z" fill-rule="evenodd"/><path d="M502.238 624.138 573.05 624.138 573.05 688.993 502.238 688.993Z" fill-rule="evenodd"/><path d="M573.05 624.138 643.863 624.138 643.863 688.993 573.05 688.993Z" fill-rule="evenodd"/><path d="M643.863 624.138 714.675 624.138 714.675 688.993 643.863 688.993Z" fill="#FFFFFF" fill-rule="evenodd"/><path d="M714.675 624.138 785.488 624.138 785.488 688.993 714.675 688.993Z" fill-rule="evenodd"/><path d="M785.488 624.138 856.3 624.138 856.3 688.993 785.488 688.993Z" fill="#FFFFFF" fill-rule="evenodd"/><path d="M856.3 624.138 927.113 624.138 927.113 688.993 856.3 688.993Z" fill="#FFFFFF" fill-rule="evenodd"/><path d="M927.113 624.138 997.925 624.138 997.925 688.993 927.113 688.993Z" fill="#FFFFFF" fill-rule="evenodd"/><path d="M997.925 624.138 1068.74 624.138 1068.74 688.993 997.925 688.993Z" fill="#FFFFFF" fill-rule="evenodd"/><path d="M1068.74 624.138 1139.55 624.138 1139.55 688.993 1068.74 688.993Z" fill="#FFFFFF" fill-rule="evenodd"/><path d="M1139.55 624.138 1210.36 624.138 1210.36 688.993 1139.55 688.993Z" fill="#FFFFFF" fill-rule="evenodd"/><path d="M1210.36 624.138 1281.18 624.138 1281.18 688.993 1210.36 688.993Z" fill="#FFFFFF" fill-rule="evenodd"/><path d="M1281.18 624.138 1351.99 624.138 1351.99 688.993 1281.18 688.993Z" fill-rule="evenodd"/><path d="M1351.99 624.138 1422.8 624.138 1422.8 688.993 1351.99 688.993Z" fill="#FFFFFF" fill-rule="evenodd"/><path d="M1422.8 624.138 1493.61 624.138 1493.61 688.993 1422.8 688.993Z" fill-rule="evenodd"/><path d="M1493.61 624.138 1564.43 624.138 1564.43 688.993 1493.61 688.993Z" fill-rule="evenodd"/><path d="M1564.43 624.138 1635.24 624.138 1635.24 688.993 1564.43 688.993Z" fill-rule="evenodd"/><path d="M1635.24 624.138 1706.05 624.138 1706.05 688.993 1635.24 688.993Z" fill="#FFFFFF" fill-rule="evenodd"/><path d="M1706.05 624.138 1776.86 624.138 1776.86 688.993 1706.05 688.993Z" fill-rule="evenodd"/><path d="M289.8 688.993 360.613 688.993 360.613 753.847 289.8 753.847Z" fill-rule="evenodd"/><path d="M360.613 688.993 431.425 688.993 431.425 753.847 360.613 753.847Z" fill="#FFFFFF" fill-rule="evenodd"/><path d="M431.425 688.993 502.238 688.993 502.238 753.847 431.425 753.847Z" fill-rule="evenodd"/><path d="M502.238 688.993 573.05 688.993 573.05 753.847 502.238 753.847Z" fill-rule="evenodd"/><path d="M573.05 688.993 643.863 688.993 643.863 753.847 573.05 753.847Z" fill-rule="evenodd"/><path d="M643.863 688.993 714.675 688.993 714.675 753.847 643.863 753.847Z" fill="#FFFFFF" fill-rule="evenodd"/><path d="M714.675 688.993 785.488 688.993 785.488 753.847 714.675 753.847Z" fill-rule="evenodd"/><path d="M785.488 688.993 856.3 688.993 856.3 753.847 785.488 753.847Z" fill="#FFFFFF" fill-rule="evenodd"/><path d="M856.3 688.993 927.113 688.993 927.113 753.847 856.3 753.847Z" fill="#FFFFFF" fill-rule="evenodd"/><path d="M927.113 688.993 997.925 688.993 997.925 753.847 927.113 753.847Z" fill="#FFFFFF" fill-rule="evenodd"/><path d="M997.925 688.993 1068.74 688.993 1068.74 753.847 997.925 753.847Z" fill="#FFFFFF" fill-rule="evenodd"/><path d="M1068.74 688.993 1139.55 688.993 1139.55 753.847 1068.74 753.847Z" fill="#FFFFFF" fill-rule="evenodd"/><path d="M1139.55 688.993 1210.36 688.993 1210.36 753.847 1139.55 753.847Z" fill="#FFFFFF" fill-rule="evenodd"/><path d="M1210.36 688.993 1281.18 688.993 1281.18 753.847 1210.36 753.847Z" fill="#FFFFFF" fill-rule="evenodd"/><path d="M1281.18 688.993 1351.99 688.993 1351.99 753.847 1281.18 753.847Z" fill-rule="evenodd"/><path d="M1351.99 688.993 1422.8 688.993 1422.8 753.847 1351.99 753.847Z" fill="#FFFFFF" fill-rule="evenodd"/><path d="M1422.8 688.993 1493.61 688.993 1493.61 753.847 1422.8 753.847Z" fill-rule="evenodd"/><path d="M1493.61 688.993 1564.43 688.993 1564.43 753.847 1493.61 753.847Z" fill-rule="evenodd"/><path d="M1564.43 688.993 1635.24 688.993 1635.24 753.847 1564.43 753.847Z" fill-rule="evenodd"/><path d="M1635.24 688.993 1706.05 688.993 1706.05 753.847 1635.24 753.847Z" fill="#FFFFFF" fill-rule="evenodd"/><path d="M1706.05 688.993 1776.86 688.993 1776.86 753.847 1706.05 753.847Z" fill-rule="evenodd"/><path d="M289.8 753.847 360.613 753.847 360.613 818.701 289.8 818.701Z" fill-rule="evenodd"/><path d="M360.613 753.847 431.425 753.847 431.425 818.701 360.613 818.701Z" fill="#FFFFFF" fill-rule="evenodd"/><path d="M431.425 753.847 502.238 753.847 502.238 818.701 431.425 818.701Z" fill-rule="evenodd"/><path d="M502.238 753.847 573.05 753.847 573.05 818.701 502.238 818.701Z" fill-rule="evenodd"/><path d="M573.05 753.847 643.863 753.847 643.863 818.701 573.05 818.701Z" fill-rule="evenodd"/><path d="M643.863 753.847 714.675 753.847 714.675 818.701 643.863 818.701Z" fill="#FFFFFF" fill-rule="evenodd"/><path d="M714.675 753.847 785.488 753.847 785.488 818.701 714.675 818.701Z" fill-rule="evenodd"/><path d="M785.488 753.847 856.3 753.847 856.3 818.701 785.488 818.701Z" fill="#FFFFFF" fill-rule="evenodd"/><path d="M856.3 753.847 927.113 753.847 927.113 818.701 856.3 818.701Z" fill="#FFFFFF" fill-rule="evenodd"/><path d="M927.113 753.847 997.925 753.847 997.925 818.701 927.113 818.701Z" fill="#FFFFFF" fill-rule="evenodd"/><path d="M997.925 753.847 1068.74 753.847 1068.74 818.701 997.925 818.701Z" fill="#FFFFFF" fill-rule="evenodd"/><path d="M1068.74 753.847 1139.55 753.847 1139.55 818.701 1068.74 818.701Z" fill="#FFFFFF" fill-rule="evenodd"/><path d="M1139.55 753.847 1210.36 753.847 1210.36 818.701 1139.55 818.701Z" fill="#FFFFFF" fill-rule="evenodd"/><path d="M1210.36 753.847 1281.18 753.847 1281.18 818.701 1210.36 818.701Z" fill="#FFFFFF" fill-rule="evenodd"/><path d="M1281.18 753.847 1351.99 753.847 1351.99 818.701 1281.18 818.701Z" fill-rule="evenodd"/><path d="M1351.99 753.847 1422.8 753.847 1422.8 818.701 1351.99 818.701Z" fill="#FFFFFF" fill-rule="evenodd"/><path d="M1422.8 753.847 1493.61 753.847 1493.61 818.701 1422.8 818.701Z" fill-rule="evenodd"/><path d="M1493.61 753.847 1564.43 753.847 1564.43 818.701 1493.61 818.701Z" fill-rule="evenodd"/><path d="M1564.43 753.847 1635.24 753.847 1635.24 818.701 1564.43 818.701Z" fill-rule="evenodd"/><path d="M1635.24 753.847 1706.05 753.847 1706.05 818.701 1635.24 818.701Z" fill="#FFFFFF" fill-rule="evenodd"/><path d="M1706.05 753.847 1776.86 753.847 1776.86 818.701 1706.05 818.701Z" fill-rule="evenodd"/><path d="M289.8 818.701 360.613 818.701 360.613 886.534 289.8 886.534Z" fill-rule="evenodd"/><path d="M360.613 818.701 431.425 818.701 431.425 886.534 360.613 886.534Z" fill="#FFFFFF" fill-rule="evenodd"/><path d="M431.425 818.701 502.238 818.701 502.238 886.534 431.425 886.534Z" fill="#FFFFFF" fill-rule="evenodd"/><path d="M502.238 818.701 573.05 818.701 573.05 886.534 502.238 886.534Z" fill="#FFFFFF" fill-rule="evenodd"/><path d="M573.05 818.701 643.863 818.701 643.863 886.534 573.05 886.534Z" fill="#FFFFFF" fill-rule="evenodd"/><path d="M643.863 818.701 714.675 818.701 714.675 886.534 643.863 886.534Z" fill="#FFFFFF" fill-rule="evenodd"/><path d="M714.675 818.701 785.488 818.701 785.488 886.534 714.675 886.534Z" fill-rule="evenodd"/><path d="M785.488 818.701 856.3 818.701 856.3 886.534 785.488 886.534Z" fill="#FFFFFF" fill-rule="evenodd"/><path d="M856.3 818.701 927.113 818.701 927.113 886.534 856.3 886.534Z" fill="#FFFFFF" fill-rule="evenodd"/><path d="M927.113 818.701 997.925 818.701 997.925 886.534 927.113 886.534Z" fill="#FFFFFF" fill-rule="evenodd"/><path d="M997.925 818.701 1068.74 818.701 1068.74 886.534 997.925 886.534Z" fill="#FFFFFF" fill-rule="evenodd"/><path d="M1068.74 818.701 1139.55 818.701 1139.55 886.534 1068.74 886.534Z" fill="#FFFFFF" fill-rule="evenodd"/><path d="M1139.55 818.701 1210.36 818.701 1210.36 886.534 1139.55 886.534Z" fill="#FFFFFF" fill-rule="evenodd"/><path d="M1210.36 818.701 1281.18 818.701 1281.18 886.534 1210.36 886.534Z" fill="#FFFFFF" fill-rule="evenodd"/><path d="M1281.18 818.701 1351.99 818.701 1351.99 886.534 1281.18 886.534Z" fill-rule="evenodd"/><path d="M1351.99 818.701 1422.8 818.701 1422.8 886.534 1351.99 886.534Z" fill="#FFFFFF" fill-rule="evenodd"/><path d="M1422.8 818.701 1493.61 818.701 1493.61 886.534 1422.8 886.534Z" fill="#FFFFFF" fill-rule="evenodd"/><path d="M1493.61 818.701 1564.43 818.701 1564.43 886.534 1493.61 886.534Z" fill="#FFFFFF" fill-rule="evenodd"/><path d="M1564.43 818.701 1635.24 818.701 1635.24 886.534 1564.43 886.534Z" fill="#FFFFFF" fill-rule="evenodd"/><path d="M1635.24 818.701 1706.05 818.701 1706.05 886.534 1635.24 886.534Z" fill="#FFFFFF" fill-rule="evenodd"/><path d="M1706.05 818.701 1776.86 818.701 1776.86 886.534 1706.05 886.534Z" fill-rule="evenodd"/><path d="M289.8 886.534 360.613 886.534 360.613 951.389 289.8 951.389Z" fill-rule="evenodd"/><path d="M360.613 886.534 431.425 886.534 431.425 951.389 360.613 951.389Z" fill-rule="evenodd"/><path d="M431.425 886.534 502.238 886.534 502.238 951.389 431.425 951.389Z" fill-rule="evenodd"/><path d="M502.238 886.534 573.05 886.534 573.05 951.389 502.238 951.389Z" fill-rule="evenodd"/><path d="M573.05 886.534 643.863 886.534 643.863 951.389 573.05 951.389Z" fill-rule="evenodd"/><path d="M643.863 886.534 714.675 886.534 714.675 951.389 643.863 951.389Z" fill-rule="evenodd"/><path d="M714.675 886.534 785.488 886.534 785.488 951.389 714.675 951.389Z" fill-rule="evenodd"/><path d="M785.488 886.534 856.3 886.534 856.3 951.389 785.488 951.389Z" fill="#FFFFFF" fill-rule="evenodd"/><path d="M856.3 886.534 927.113 886.534 927.113 951.389 856.3 951.389Z" fill="#FFFFFF" fill-rule="evenodd"/><path d="M927.113 886.534 997.925 886.534 997.925 951.389 927.113 951.389Z" fill="#FFFFFF" fill-rule="evenodd"/><path d="M997.925 886.534 1068.74 886.534 1068.74 951.389 997.925 951.389Z" fill="#FFFFFF" fill-rule="evenodd"/><path d="M1068.74 886.534 1139.55 886.534 1139.55 951.389 1068.74 951.389Z" fill="#FFFFFF" fill-rule="evenodd"/><path d="M1139.55 886.534 1210.36 886.534 1210.36 951.389 1139.55 951.389Z" fill="#FFFFFF" fill-rule="evenodd"/><path d="M1210.36 886.534 1281.18 886.534 1281.18 951.389 1210.36 951.389Z" fill="#FFFFFF" fill-rule="evenodd"/><path d="M1281.18 886.534 1351.99 886.534 1351.99 951.389 1281.18 951.389Z" fill-rule="evenodd"/><path d="M1351.99 886.534 1422.8 886.534 1422.8 951.389 1351.99 951.389Z" fill-rule="evenodd"/><path d="M1422.8 886.534 1493.61 886.534 1493.61 951.389 1422.8 951.389Z" fill-rule="evenodd"/><path d="M1493.61 886.534 1564.43 886.534 1564.43 951.389 1493.61 951.389Z" fill-rule="evenodd"/><path d="M1564.43 886.534 1635.24 886.534 1635.24 951.389 1564.43 951.389Z" fill-rule="evenodd"/><path d="M1635.24 886.534 1706.05 886.534 1706.05 951.389 1635.24 951.389Z" fill-rule="evenodd"/><path d="M1706.05 886.534 1776.86 886.534 1776.86 951.389 1706.05 951.389Z" fill-rule="evenodd"/><path d="M289.8 951.389 360.613 951.389 360.613 1016.24 289.8 1016.24Z" fill="#FFFFFF" fill-rule="evenodd"/><path d="M360.613 951.389 431.425 951.389 431.425 1016.24 360.613 1016.24Z" fill="#FFFFFF" fill-rule="evenodd"/><path d="M431.425 951.389 502.238 951.389 502.238 1016.24 431.425 1016.24Z" fill="#FFFFFF" fill-rule="evenodd"/><path d="M502.238 951.389 573.05 951.389 573.05 1016.24 502.238 1016.24Z" fill="#FFFFFF" fill-rule="evenodd"/><path d="M573.05 951.389 643.863 951.389 643.863 1016.24 573.05 1016.24Z" fill="#FFFFFF" fill-rule="evenodd"/><path d="M643.863 951.389 714.675 951.389 714.675 1016.24 643.863 1016.24Z" fill="#FFFFFF" fill-rule="evenodd"/><path d="M714.675 951.389 785.488 951.389 785.488 1016.24 714.675 1016.24Z" fill="#FFFFFF" fill-rule="evenodd"/><path d="M785.488 951.389 856.3 951.389 856.3 1016.24 785.488 1016.24Z" fill="#FFFFFF" fill-rule="evenodd"/><path d="M856.3 951.389 927.113 951.389 927.113 1016.24 856.3 1016.24Z" fill="#FFFFFF" fill-rule="evenodd"/><path d="M927.113 951.389 997.925 951.389 997.925 1016.24 927.113 1016.24Z" fill="#FFFFFF" fill-rule="evenodd"/><path d="M997.925 951.389 1068.74 951.389 1068.74 1016.24 997.925 1016.24Z" fill="#FFFFFF" fill-rule="evenodd"/><path d="M1068.74 951.389 1139.55 951.389 1139.55 1016.24 1068.74 1016.24Z" fill="#FFFFFF" fill-rule="evenodd"/><path d="M1139.55 951.389 1210.36 951.389 1210.36 1016.24 1139.55 1016.24Z" fill="#FFFFFF" fill-rule="evenodd"/><path d="M1210.36 951.389 1281.18 951.389 1281.18 1016.24 1210.36 1016.24Z" fill="#FFFFFF" fill-rule="evenodd"/><path d="M1281.18 951.389 1351.99 951.389 1351.99 1016.24 1281.18 1016.24Z" fill="#FFFFFF" fill-rule="evenodd"/><path d="M1351.99 951.389 1422.8 951.389 1422.8 1016.24 1351.99 1016.24Z" fill="#FFFFFF" fill-rule="evenodd"/><path d="M1422.8 951.389 1493.61 951.389 1493.61 1016.24 1422.8 1016.24Z" fill="#FFFFFF" fill-rule="evenodd"/><path d="M1493.61 951.389 1564.43 951.389 1564.43 1016.24 1493.61 1016.24Z" fill="#FFFFFF" fill-rule="evenodd"/><path d="M1564.43 951.389 1635.24 951.389 1635.24 1016.24 1564.43 1016.24Z" fill="#FFFFFF" fill-rule="evenodd"/><path d="M1635.24 951.389 1706.05 951.389 1706.05 1016.24 1635.24 1016.24Z" fill="#FFFFFF" fill-rule="evenodd"/><path d="M1706.05 951.389 1776.86 951.389 1776.86 1016.24 1706.05 1016.24Z" fill="#FFFFFF" fill-rule="evenodd"/><path d="M289.8 1016.24 360.613 1016.24 360.613 1081.1 289.8 1081.1Z" fill="#FFFFFF" fill-rule="evenodd"/><path d="M360.613 1016.24 431.425 1016.24 431.425 1081.1 360.613 1081.1Z" fill="#FFFFFF" fill-rule="evenodd"/><path d="M431.425 1016.24 502.238 1016.24 502.238 1081.1 431.425 1081.1Z" fill="#FFFFFF" fill-rule="evenodd"/><path d="M502.238 1016.24 573.05 1016.24 573.05 1081.1 502.238 1081.1Z" fill="#FFFFFF" fill-rule="evenodd"/><path d="M573.05 1016.24 643.863 1016.24 643.863 1081.1 573.05 1081.1Z" fill="#FFFFFF" fill-rule="evenodd"/><path d="M643.863 1016.24 714.675 1016.24 714.675 1081.1 643.863 1081.1Z" fill="#FFFFFF" fill-rule="evenodd"/><path d="M714.675 1016.24 785.488 1016.24 785.488 1081.1 714.675 1081.1Z" fill="#FFFFFF" fill-rule="evenodd"/><path d="M785.488 1016.24 856.3 1016.24 856.3 1081.1 785.488 1081.1Z" fill="#FFFFFF" fill-rule="evenodd"/><path d="M856.3 1016.24 927.113 1016.24 927.113 1081.1 856.3 1081.1Z" fill="#FFFFFF" fill-rule="evenodd"/><path d="M927.113 1016.24 997.925 1016.24 997.925 1081.1 927.113 1081.1Z" fill="#FFFFFF" fill-rule="evenodd"/><path d="M997.925 1016.24 1068.74 1016.24 1068.74 1081.1 997.925 1081.1Z" fill="#FFFFFF" fill-rule="evenodd"/><path d="M1068.74 1016.24 1139.55 1016.24 1139.55 1081.1 1068.74 1081.1Z" fill="#FFFFFF" fill-rule="evenodd"/><path d="M1139.55 1016.24 1210.36 1016.24 1210.36 1081.1 1139.55 1081.1Z" fill="#FFFFFF" fill-rule="evenodd"/><path d="M1210.36 1016.24 1281.18 1016.24 1281.18 1081.1 1210.36 1081.1Z" fill="#FFFFFF" fill-rule="evenodd"/><path d="M1281.18 1016.24 1351.99 1016.24 1351.99 1081.1 1281.18 1081.1Z" fill="#FFFFFF" fill-rule="evenodd"/><path d="M1351.99 1016.24 1422.8 1016.24 1422.8 1081.1 1351.99 1081.1Z" fill="#FFFFFF" fill-rule="evenodd"/><path d="M1422.8 1016.24 1493.61 1016.24 1493.61 1081.1 1422.8 1081.1Z" fill="#FFFFFF" fill-rule="evenodd"/><path d="M1493.61 1016.24 1564.43 1016.24 1564.43 1081.1 1493.61 1081.1Z" fill="#FFFFFF" fill-rule="evenodd"/><path d="M1564.43 1016.24 1635.24 1016.24 1635.24 1081.1 1564.43 1081.1Z" fill="#FFFFFF" fill-rule="evenodd"/><path d="M1635.24 1016.24 1706.05 1016.24 1706.05 1081.1 1635.24 1081.1Z" fill="#FFFFFF" fill-rule="evenodd"/><path d="M1706.05 1016.24 1776.86 1016.24 1776.86 1081.1 1706.05 1081.1Z" fill="#FFFFFF" fill-rule="evenodd"/><path d="M289.8 1081.1 360.613 1081.1 360.613 1148.93 289.8 1148.93Z" fill="#FFFFFF" fill-rule="evenodd"/><path d="M360.613 1081.1 431.425 1081.1 431.425 1148.93 360.613 1148.93Z" fill="#FFFFFF" fill-rule="evenodd"/><path d="M431.425 1081.1 502.238 1081.1 502.238 1148.93 431.425 1148.93Z" fill="#FFFFFF" fill-rule="evenodd"/><path d="M502.238 1081.1 573.05 1081.1 573.05 1148.93 502.238 1148.93Z" fill="#FFFFFF" fill-rule="evenodd"/><path d="M573.05 1081.1 643.863 1081.1 643.863 1148.93 573.05 1148.93Z" fill="#FFFFFF" fill-rule="evenodd"/><path d="M643.863 1081.1 714.675 1081.1 714.675 1148.93 643.863 1148.93Z" fill="#FFFFFF" fill-rule="evenodd"/><path d="M714.675 1081.1 785.488 1081.1 785.488 1148.93 714.675 1148.93Z" fill="#FFFFFF" fill-rule="evenodd"/><path d="M785.488 1081.1 856.3 1081.1 856.3 1148.93 785.488 1148.93Z" fill="#FFFFFF" fill-rule="evenodd"/><path d="M856.3 1081.1 927.113 1081.1 927.113 1148.93 856.3 1148.93Z" fill="#FFFFFF" fill-rule="evenodd"/><path d="M927.113 1081.1 997.925 1081.1 997.925 1148.93 927.113 1148.93Z" fill="#FFFFFF" fill-rule="evenodd"/><path d="M997.925 1081.1 1068.74 1081.1 1068.74 1148.93 997.925 1148.93Z" fill="#FFFFFF" fill-rule="evenodd"/><path d="M1068.74 1081.1 1139.55 1081.1 1139.55 1148.93 1068.74 1148.93Z" fill="#FFFFFF" fill-rule="evenodd"/><path d="M1139.55 1081.1 1210.36 1081.1 1210.36 1148.93 1139.55 1148.93Z" fill="#FFFFFF" fill-rule="evenodd"/><path d="M1210.36 1081.1 1281.18 1081.1 1281.18 1148.93 1210.36 1148.93Z" fill="#FFFFFF" fill-rule="evenodd"/><path d="M1281.18 1081.1 1351.99 1081.1 1351.99 1148.93 1281.18 1148.93Z" fill="#FFFFFF" fill-rule="evenodd"/><path d="M1351.99 1081.1 1422.8 1081.1 1422.8 1148.93 1351.99 1148.93Z" fill="#FFFFFF" fill-rule="evenodd"/><path d="M1422.8 1081.1 1493.61 1081.1 1493.61 1148.93 1422.8 1148.93Z" fill="#FFFFFF" fill-rule="evenodd"/><path d="M1493.61 1081.1 1564.43 1081.1 1564.43 1148.93 1493.61 1148.93Z" fill="#FFFFFF" fill-rule="evenodd"/><path d="M1564.43 1081.1 1635.24 1081.1 1635.24 1148.93 1564.43 1148.93Z" fill="#FFFFFF" fill-rule="evenodd"/><path d="M1635.24 1081.1 1706.05 1081.1 1706.05 1148.93 1635.24 1148.93Z" fill="#FFFFFF" fill-rule="evenodd"/><path d="M1706.05 1081.1 1776.86 1081.1 1776.86 1148.93 1706.05 1148.93Z" fill="#FFFFFF" fill-rule="evenodd"/><path d="M289.8 1148.93 360.613 1148.93 360.613 1213.78 289.8 1213.78Z" fill="#FFFFFF" fill-rule="evenodd"/><path d="M360.613 1148.93 431.425 1148.93 431.425 1213.78 360.613 1213.78Z" fill="#FFFFFF" fill-rule="evenodd"/><path d="M431.425 1148.93 502.238 1148.93 502.238 1213.78 431.425 1213.78Z" fill="#FFFFFF" fill-rule="evenodd"/><path d="M502.238 1148.93 573.05 1148.93 573.05 1213.78 502.238 1213.78Z" fill="#FFFFFF" fill-rule="evenodd"/><path d="M573.05 1148.93 643.863 1148.93 643.863 1213.78 573.05 1213.78Z" fill="#FFFFFF" fill-rule="evenodd"/><path d="M643.863 1148.93 714.675 1148.93 714.675 1213.78 643.863 1213.78Z" fill="#FFFFFF" fill-rule="evenodd"/><path d="M714.675 1148.93 785.488 1148.93 785.488 1213.78 714.675 1213.78Z" fill="#FFFFFF" fill-rule="evenodd"/><path d="M785.488 1148.93 856.3 1148.93 856.3 1213.78 785.488 1213.78Z" fill="#FFFFFF" fill-rule="evenodd"/><path d="M856.3 1148.93 927.113 1148.93 927.113 1213.78 856.3 1213.78Z" fill="#FFFFFF" fill-rule="evenodd"/><path d="M927.113 1148.93 997.925 1148.93 997.925 1213.78 927.113 1213.78Z" fill="#FFFFFF" fill-rule="evenodd"/><path d="M997.925 1148.93 1068.74 1148.93 1068.74 1213.78 997.925 1213.78Z" fill="#FFFFFF" fill-rule="evenodd"/><path d="M1068.74 1148.93 1139.55 1148.93 1139.55 1213.78 1068.74 1213.78Z" fill="#FFFFFF" fill-rule="evenodd"/><path d="M1139.55 1148.93 1210.36 1148.93 1210.36 1213.78 1139.55 1213.78Z" fill="#FFFFFF" fill-rule="evenodd"/><path d="M1210.36 1148.93 1281.18 1148.93 1281.18 1213.78 1210.36 1213.78Z" fill="#FFFFFF" fill-rule="evenodd"/><path d="M1281.18 1148.93 1351.99 1148.93 1351.99 1213.78 1281.18 1213.78Z" fill="#FFFFFF" fill-rule="evenodd"/><path d="M1351.99 1148.93 1422.8 1148.93 1422.8 1213.78 1351.99 1213.78Z" fill="#FFFFFF" fill-rule="evenodd"/><path d="M1422.8 1148.93 1493.61 1148.93 1493.61 1213.78 1422.8 1213.78Z" fill="#FFFFFF" fill-rule="evenodd"/><path d="M1493.61 1148.93 1564.43 1148.93 1564.43 1213.78 1493.61 1213.78Z" fill="#FFFFFF" fill-rule="evenodd"/><path d="M1564.43 1148.93 1635.24 1148.93 1635.24 1213.78 1564.43 1213.78Z" fill="#FFFFFF" fill-rule="evenodd"/><path d="M1635.24 1148.93 1706.05 1148.93 1706.05 1213.78 1635.24 1213.78Z" fill="#FFFFFF" fill-rule="evenodd"/><path d="M1706.05 1148.93 1776.86 1148.93 1776.86 1213.78 1706.05 1213.78Z" fill="#FFFFFF" fill-rule="evenodd"/><path d="M289.8 1213.78 360.613 1213.78 360.613 1278.64 289.8 1278.64Z" fill="#FFFFFF" fill-rule="evenodd"/><path d="M360.613 1213.78 431.425 1213.78 431.425 1278.64 360.613 1278.64Z" fill="#FFFFFF" fill-rule="evenodd"/><path d="M431.425 1213.78 502.238 1213.78 502.238 1278.64 431.425 1278.64Z" fill="#FFFFFF" fill-rule="evenodd"/><path d="M502.238 1213.78 573.05 1213.78 573.05 1278.64 502.238 1278.64Z" fill="#FFFFFF" fill-rule="evenodd"/><path d="M573.05 1213.78 643.863 1213.78 643.863 1278.64 573.05 1278.64Z" fill="#FFFFFF" fill-rule="evenodd"/><path d="M643.863 1213.78 714.675 1213.78 714.675 1278.64 643.863 1278.64Z" fill="#FFFFFF" fill-rule="evenodd"/><path d="M714.675 1213.78 785.488 1213.78 785.488 1278.64 714.675 1278.64Z" fill="#FFFFFF" fill-rule="evenodd"/><path d="M785.488 1213.78 856.3 1213.78 856.3 1278.64 785.488 1278.64Z" fill="#FFFFFF" fill-rule="evenodd"/><path d="M856.3 1213.78 927.113 1213.78 927.113 1278.64 856.3 1278.64Z" fill="#FFFFFF" fill-rule="evenodd"/><path d="M927.113 1213.78 997.925 1213.78 997.925 1278.64 927.113 1278.64Z" fill="#FFFFFF" fill-rule="evenodd"/><path d="M997.925 1213.78 1068.74 1213.78 1068.74 1278.64 997.925 1278.64Z" fill="#FFFFFF" fill-rule="evenodd"/><path d="M1068.74 1213.78 1139.55 1213.78 1139.55 1278.64 1068.74 1278.64Z" fill="#FFFFFF" fill-rule="evenodd"/><path d="M1139.55 1213.78 1210.36 1213.78 1210.36 1278.64 1139.55 1278.64Z" fill="#FFFFFF" fill-rule="evenodd"/><path d="M1210.36 1213.78 1281.18 1213.78 1281.18 1278.64 1210.36 1278.64Z" fill="#FFFFFF" fill-rule="evenodd"/><path d="M1281.18 1213.78 1351.99 1213.78 1351.99 1278.64 1281.18 1278.64Z" fill="#FFFFFF" fill-rule="evenodd"/><path d="M1351.99 1213.78 1422.8 1213.78 1422.8 1278.64 1351.99 1278.64Z" fill="#FFFFFF" fill-rule="evenodd"/><path d="M1422.8 1213.78 1493.61 1213.78 1493.61 1278.64 1422.8 1278.64Z" fill="#FFFFFF" fill-rule="evenodd"/><path d="M1493.61 1213.78 1564.43 1213.78 1564.43 1278.64 1493.61 1278.64Z" fill="#FFFFFF" fill-rule="evenodd"/><path d="M1564.43 1213.78 1635.24 1213.78 1635.24 1278.64 1564.43 1278.64Z" fill="#FFFFFF" fill-rule="evenodd"/><path d="M1635.24 1213.78 1706.05 1213.78 1706.05 1278.64 1635.24 1278.64Z" fill="#FFFFFF" fill-rule="evenodd"/><path d="M1706.05 1213.78 1776.86 1213.78 1776.86 1278.64 1706.05 1278.64Z" fill="#FFFFFF" fill-rule="evenodd"/><path d="M289.8 1278.64 360.613 1278.64 360.613 1343.49 289.8 1343.49Z" fill="#FFFFFF" fill-rule="evenodd"/><path d="M360.613 1278.64 431.425 1278.64 431.425 1343.49 360.613 1343.49Z" fill="#FFFFFF" fill-rule="evenodd"/><path d="M431.425 1278.64 502.238 1278.64 502.238 1343.49 431.425 1343.49Z" fill="#FFFFFF" fill-rule="evenodd"/><path d="M502.238 1278.64 573.05 1278.64 573.05 1343.49 502.238 1343.49Z" fill="#FFFFFF" fill-rule="evenodd"/><path d="M573.05 1278.64 643.863 1278.64 643.863 1343.49 573.05 1343.49Z" fill="#FFFFFF" fill-rule="evenodd"/><path d="M643.863 1278.64 714.675 1278.64 714.675 1343.49 643.863 1343.49Z" fill="#FFFFFF" fill-rule="evenodd"/><path d="M714.675 1278.64 785.488 1278.64 785.488 1343.49 714.675 1343.49Z" fill="#FFFFFF" fill-rule="evenodd"/><path d="M785.488 1278.64 856.3 1278.64 856.3 1343.49 785.488 1343.49Z" fill="#FFFFFF" fill-rule="evenodd"/><path d="M856.3 1278.64 927.113 1278.64 927.113 1343.49 856.3 1343.49Z" fill="#FFFFFF" fill-rule="evenodd"/><path d="M927.113 1278.64 997.925 1278.64 997.925 1343.49 927.113 1343.49Z" fill="#FFFFFF" fill-rule="evenodd"/><path d="M997.925 1278.64 1068.74 1278.64 1068.74 1343.49 997.925 1343.49Z" fill="#FFFFFF" fill-rule="evenodd"/><path d="M1068.74 1278.64 1139.55 1278.64 1139.55 1343.49 1068.74 1343.49Z" fill="#FFFFFF" fill-rule="evenodd"/><path d="M1139.55 1278.64 1210.36 1278.64 1210.36 1343.49 1139.55 1343.49Z" fill="#FFFFFF" fill-rule="evenodd"/><path d="M1210.36 1278.64 1281.18 1278.64 1281.18 1343.49 1210.36 1343.49Z" fill="#FFFFFF" fill-rule="evenodd"/><path d="M1281.18 1278.64 1351.99 1278.64 1351.99 1343.49 1281.18 1343.49Z" fill="#FFFFFF" fill-rule="evenodd"/><path d="M1351.99 1278.64 1422.8 1278.64 1422.8 1343.49 1351.99 1343.49Z" fill="#FFFFFF" fill-rule="evenodd"/><path d="M1422.8 1278.64 1493.61 1278.64 1493.61 1343.49 1422.8 1343.49Z" fill="#FFFFFF" fill-rule="evenodd"/><path d="M1493.61 1278.64 1564.43 1278.64 1564.43 1343.49 1493.61 1343.49Z" fill="#FFFFFF" fill-rule="evenodd"/><path d="M1564.43 1278.64 1635.24 1278.64 1635.24 1343.49 1564.43 1343.49Z" fill="#FFFFFF" fill-rule="evenodd"/><path d="M1635.24 1278.64 1706.05 1278.64 1706.05 1343.49 1635.24 1343.49Z" fill="#FFFFFF" fill-rule="evenodd"/><path d="M1706.05 1278.64 1776.86 1278.64 1776.86 1343.49 1706.05 1343.49Z" fill="#FFFFFF" fill-rule="evenodd"/><path d="M289.8 1343.49 360.613 1343.49 360.613 1411.33 289.8 1411.33Z" fill="#FFFFFF" fill-rule="evenodd"/><path d="M360.613 1343.49 431.425 1343.49 431.425 1411.33 360.613 1411.33Z" fill="#FFFFFF" fill-rule="evenodd"/><path d="M431.425 1343.49 502.238 1343.49 502.238 1411.33 431.425 1411.33Z" fill="#FFFFFF" fill-rule="evenodd"/><path d="M502.238 1343.49 573.05 1343.49 573.05 1411.33 502.238 1411.33Z" fill="#FFFFFF" fill-rule="evenodd"/><path d="M573.05 1343.49 643.863 1343.49 643.863 1411.33 573.05 1411.33Z" fill="#FFFFFF" fill-rule="evenodd"/><path d="M643.863 1343.49 714.675 1343.49 714.675 1411.33 643.863 1411.33Z" fill="#FFFFFF" fill-rule="evenodd"/><path d="M714.675 1343.49 785.488 1343.49 785.488 1411.33 714.675 1411.33Z" fill="#FFFFFF" fill-rule="evenodd"/><path d="M785.488 1343.49 856.3 1343.49 856.3 1411.33 785.488 1411.33Z" fill="#FFFFFF" fill-rule="evenodd"/><path d="M856.3 1343.49 927.113 1343.49 927.113 1411.33 856.3 1411.33Z" fill="#FFFFFF" fill-rule="evenodd"/><path d="M927.113 1343.49 997.925 1343.49 997.925 1411.33 927.113 1411.33Z" fill="#FFFFFF" fill-rule="evenodd"/><path d="M997.925 1343.49 1068.74 1343.49 1068.74 1411.33 997.925 1411.33Z" fill="#FFFFFF" fill-rule="evenodd"/><path d="M1068.74 1343.49 1139.55 1343.49 1139.55 1411.33 1068.74 1411.33Z" fill="#FFFFFF" fill-rule="evenodd"/><path d="M1139.55 1343.49 1210.36 1343.49 1210.36 1411.33 1139.55 1411.33Z" fill="#FFFFFF" fill-rule="evenodd"/><path d="M1210.36 1343.49 1281.18 1343.49 1281.18 1411.33 1210.36 1411.33Z" fill="#FFFFFF" fill-rule="evenodd"/><path d="M1281.18 1343.49 1351.99 1343.49 1351.99 1411.33 1281.18 1411.33Z" fill="#FFFFFF" fill-rule="evenodd"/><path d="M1351.99 1343.49 1422.8 1343.49 1422.8 1411.33 1351.99 1411.33Z" fill="#FFFFFF" fill-rule="evenodd"/><path d="M1422.8 1343.49 1493.61 1343.49 1493.61 1411.33 1422.8 1411.33Z" fill="#FFFFFF" fill-rule="evenodd"/><path d="M1493.61 1343.49 1564.43 1343.49 1564.43 1411.33 1493.61 1411.33Z" fill="#FFFFFF" fill-rule="evenodd"/><path d="M1564.43 1343.49 1635.24 1343.49 1635.24 1411.33 1564.43 1411.33Z" fill="#FFFFFF" fill-rule="evenodd"/><path d="M1635.24 1343.49 1706.05 1343.49 1706.05 1411.33 1635.24 1411.33Z" fill="#FFFFFF" fill-rule="evenodd"/><path d="M1706.05 1343.49 1776.86 1343.49 1776.86 1411.33 1706.05 1411.33Z" fill="#FFFFFF" fill-rule="evenodd"/><path d="M218.988 1411.33 289.8 1411.33 289.8 1868.28 218.988 1868.28Z" fill="#A5A5A5" fill-rule="evenodd" fill-opacity="0.2"/><path d="M289.8 1411.33 360.613 1411.33 360.613 1476.18 289.8 1476.18Z" fill-rule="evenodd"/><path d="M360.613 1411.33 431.425 1411.33 431.425 1476.18 360.613 1476.18Z" fill-rule="evenodd"/><path d="M431.425 1411.33 502.238 1411.33 502.238 1476.18 431.425 1476.18Z" fill-rule="evenodd"/><path d="M502.238 1411.33 573.05 1411.33 573.05 1476.18 502.238 1476.18Z" fill-rule="evenodd"/><path d="M573.05 1411.33 643.863 1411.33 643.863 1476.18 573.05 1476.18Z" fill-rule="evenodd"/><path d="M643.863 1411.33 714.675 1411.33 714.675 1476.18 643.863 1476.18Z" fill-rule="evenodd"/><path d="M714.675 1411.33 785.488 1411.33 785.488 1476.18 714.675 1476.18Z" fill-rule="evenodd"/><path d="M785.488 1411.33 856.3 1411.33 856.3 1476.18 785.488 1476.18Z" fill="#FFFFFF" fill-rule="evenodd"/><path d="M856.3 1411.33 927.113 1411.33 927.113 1476.18 856.3 1476.18Z" fill="#FFFFFF" fill-rule="evenodd"/><path d="M927.113 1411.33 997.925 1411.33 997.925 1476.18 927.113 1476.18Z" fill="#FFFFFF" fill-rule="evenodd"/><path d="M997.925 1411.33 1068.74 1411.33 1068.74 1476.18 997.925 1476.18Z" fill="#FFFFFF" fill-rule="evenodd"/><path d="M1068.74 1411.33 1139.55 1411.33 1139.55 1476.18 1068.74 1476.18Z" fill="#FFFFFF" fill-rule="evenodd"/><path d="M1139.55 1411.33 1210.36 1411.33 1210.36 1476.18 1139.55 1476.18Z" fill="#FFFFFF" fill-rule="evenodd"/><path d="M1210.36 1411.33 1281.18 1411.33 1281.18 1476.18 1210.36 1476.18Z" fill="#FFFFFF" fill-rule="evenodd"/><path d="M1281.18 1411.33 1351.99 1411.33 1351.99 1476.18 1281.18 1476.18Z" fill="#FFFFFF" fill-rule="evenodd"/><path d="M1351.99 1411.33 1422.8 1411.33 1422.8 1476.18 1351.99 1476.18Z" fill="#FFFFFF" fill-rule="evenodd"/><path d="M1422.8 1411.33 1493.61 1411.33 1493.61 1476.18 1422.8 1476.18Z" fill="#FFFFFF" fill-rule="evenodd"/><path d="M1493.61 1411.33 1564.43 1411.33 1564.43 1476.18 1493.61 1476.18Z" fill="#FFFFFF" fill-rule="evenodd"/><path d="M1564.43 1411.33 1635.24 1411.33 1635.24 1476.18 1564.43 1476.18Z" fill="#FFFFFF" fill-rule="evenodd"/><path d="M1635.24 1411.33 1706.05 1411.33 1706.05 1476.18 1635.24 1476.18Z" fill="#FFFFFF" fill-rule="evenodd"/><path d="M1706.05 1411.33 1776.86 1411.33 1776.86 1476.18 1706.05 1476.18Z" fill="#FFFFFF" fill-rule="evenodd"/><path d="M289.8 1476.18 360.613 1476.18 360.613 1541.03 289.8 1541.03Z" fill-rule="evenodd"/><path d="M360.613 1476.18 431.425 1476.18 431.425 1541.03 360.613 1541.03Z" fill="#FFFFFF" fill-rule="evenodd"/><path d="M431.425 1476.18 502.238 1476.18 502.238 1541.03 431.425 1541.03Z" fill="#FFFFFF" fill-rule="evenodd"/><path d="M502.238 1476.18 573.05 1476.18 573.05 1541.03 502.238 1541.03Z" fill="#FFFFFF" fill-rule="evenodd"/><path d="M573.05 1476.18 643.863 1476.18 643.863 1541.03 573.05 1541.03Z" fill="#FFFFFF" fill-rule="evenodd"/><path d="M643.863 1476.18 714.675 1476.18 714.675 1541.03 643.863 1541.03Z" fill="#FFFFFF" fill-rule="evenodd"/><path d="M714.675 1476.18 785.488 1476.18 785.488 1541.03 714.675 1541.03Z" fill-rule="evenodd"/><path d="M785.488 1476.18 856.3 1476.18 856.3 1541.03 785.488 1541.03Z" fill="#FFFFFF" fill-rule="evenodd"/><path d="M856.3 1476.18 927.113 1476.18 927.113 1541.03 856.3 1541.03Z" fill="#FFFFFF" fill-rule="evenodd"/><path d="M927.113 1476.18 997.925 1476.18 997.925 1541.03 927.113 1541.03Z" fill="#FFFFFF" fill-rule="evenodd"/><path d="M997.925 1476.18 1068.74 1476.18 1068.74 1541.03 997.925 1541.03Z" fill="#FFFFFF" fill-rule="evenodd"/><path d="M1068.74 1476.18 1139.55 1476.18 1139.55 1541.03 1068.74 1541.03Z" fill="#FFFFFF" fill-rule="evenodd"/><path d="M1139.55 1476.18 1210.36 1476.18 1210.36 1541.03 1139.55 1541.03Z" fill="#FFFFFF" fill-rule="evenodd"/><path d="M1210.36 1476.18 1281.18 1476.18 1281.18 1541.03 1210.36 1541.03Z" fill="#FFFFFF" fill-rule="evenodd"/><path d="M1281.18 1476.18 1351.99 1476.18 1351.99 1541.03 1281.18 1541.03Z" fill="#FFFFFF" fill-rule="evenodd"/><path d="M1351.99 1476.18 1422.8 1476.18 1422.8 1541.03 1351.99 1541.03Z" fill="#FFFFFF" fill-rule="evenodd"/><path d="M1422.8 1476.18 1493.61 1476.18 1493.61 1541.03 1422.8 1541.03Z" fill="#FFFFFF" fill-rule="evenodd"/><path d="M1493.61 1476.18 1564.43 1476.18 1564.43 1541.03 1493.61 1541.03Z" fill="#FFFFFF" fill-rule="evenodd"/><path d="M1564.43 1476.18 1635.24 1476.18 1635.24 1541.03 1564.43 1541.03Z" fill="#FFFFFF" fill-rule="evenodd"/><path d="M1635.24 1476.18 1706.05 1476.18 1706.05 1541.03 1635.24 1541.03Z" fill="#FFFFFF" fill-rule="evenodd"/><path d="M1706.05 1476.18 1776.86 1476.18 1776.86 1541.03 1706.05 1541.03Z" fill="#FFFFFF" fill-rule="evenodd"/><path d="M289.8 1541.03 360.613 1541.03 360.613 1605.89 289.8 1605.89Z" fill-rule="evenodd"/><path d="M360.613 1541.03 431.425 1541.03 431.425 1605.89 360.613 1605.89Z" fill="#FFFFFF" fill-rule="evenodd"/><path d="M431.425 1541.03 502.238 1541.03 502.238 1605.89 431.425 1605.89Z" fill-rule="evenodd"/><path d="M502.238 1541.03 573.05 1541.03 573.05 1605.89 502.238 1605.89Z" fill-rule="evenodd"/><path d="M573.05 1541.03 643.863 1541.03 643.863 1605.89 573.05 1605.89Z" fill-rule="evenodd"/><path d="M643.863 1541.03 714.675 1541.03 714.675 1605.89 643.863 1605.89Z" fill="#FFFFFF" fill-rule="evenodd"/><path d="M714.675 1541.03 785.488 1541.03 785.488 1605.89 714.675 1605.89Z" fill-rule="evenodd"/><path d="M785.488 1541.03 856.3 1541.03 856.3 1605.89 785.488 1605.89Z" fill="#FFFFFF" fill-rule="evenodd"/><path d="M856.3 1541.03 927.113 1541.03 927.113 1605.89 856.3 1605.89Z" fill="#FFFFFF" fill-rule="evenodd"/><path d="M927.113 1541.03 997.925 1541.03 997.925 1605.89 927.113 1605.89Z" fill="#FFFFFF" fill-rule="evenodd"/><path d="M997.925 1541.03 1068.74 1541.03 1068.74 1605.89 997.925 1605.89Z" fill="#FFFFFF" fill-rule="evenodd"/><path d="M1068.74 1541.03 1139.55 1541.03 1139.55 1605.89 1068.74 1605.89Z" fill="#FFFFFF" fill-rule="evenodd"/><path d="M1139.55 1541.03 1210.36 1541.03 1210.36 1605.89 1139.55 1605.89Z" fill="#FFFFFF" fill-rule="evenodd"/><path d="M1210.36 1541.03 1281.18 1541.03 1281.18 1605.89 1210.36 1605.89Z" fill="#FFFFFF" fill-rule="evenodd"/><path d="M1281.18 1541.03 1351.99 1541.03 1351.99 1605.89 1281.18 1605.89Z" fill="#FFFFFF" fill-rule="evenodd"/><path d="M1351.99 1541.03 1422.8 1541.03 1422.8 1605.89 1351.99 1605.89Z" fill="#FFFFFF" fill-rule="evenodd"/><path d="M1422.8 1541.03 1493.61 1541.03 1493.61 1605.89 1422.8 1605.89Z" fill="#FFFFFF" fill-rule="evenodd"/><path d="M1493.61 1541.03 1564.43 1541.03 1564.43 1605.89 1493.61 1605.89Z" fill="#FFFFFF" fill-rule="evenodd"/><path d="M1564.43 1541.03 1635.24 1541.03 1635.24 1605.89 1564.43 1605.89Z" fill="#FFFFFF" fill-rule="evenodd"/><path d="M1635.24 1541.03 1706.05 1541.03 1706.05 1605.89 1635.24 1605.89Z" fill="#FFFFFF" fill-rule="evenodd"/><path d="M1706.05 1541.03 1776.86 1541.03 1776.86 1605.89 1706.05 1605.89Z" fill="#FFFFFF" fill-rule="evenodd"/><path d="M289.8 1605.89 360.613 1605.89 360.613 1673.72 289.8 1673.72Z" fill-rule="evenodd"/><path d="M360.613 1605.89 431.425 1605.89 431.425 1673.72 360.613 1673.72Z" fill="#FFFFFF" fill-rule="evenodd"/><path d="M431.425 1605.89 502.238 1605.89 502.238 1673.72 431.425 1673.72Z" fill-rule="evenodd"/><path d="M502.238 1605.89 573.05 1605.89 573.05 1673.72 502.238 1673.72Z" fill-rule="evenodd"/><path d="M573.05 1605.89 643.863 1605.89 643.863 1673.72 573.05 1673.72Z" fill-rule="evenodd"/><path d="M643.863 1605.89 714.675 1605.89 714.675 1673.72 643.863 1673.72Z" fill="#FFFFFF" fill-rule="evenodd"/><path d="M714.675 1605.89 785.488 1605.89 785.488 1673.72 714.675 1673.72Z" fill-rule="evenodd"/><path d="M785.488 1605.89 856.3 1605.89 856.3 1673.72 785.488 1673.72Z" fill="#FFFFFF" fill-rule="evenodd"/><path d="M856.3 1605.89 927.113 1605.89 927.113 1673.72 856.3 1673.72Z" fill="#FFFFFF" fill-rule="evenodd"/><path d="M927.113 1605.89 997.925 1605.89 997.925 1673.72 927.113 1673.72Z" fill="#FFFFFF" fill-rule="evenodd"/><path d="M997.925 1605.89 1068.74 1605.89 1068.74 1673.72 997.925 1673.72Z" fill="#FFFFFF" fill-rule="evenodd"/><path d="M1068.74 1605.89 1139.55 1605.89 1139.55 1673.72 1068.74 1673.72Z" fill="#FFFFFF" fill-rule="evenodd"/><path d="M1139.55 1605.89 1210.36 1605.89 1210.36 1673.72 1139.55 1673.72Z" fill="#FFFFFF" fill-rule="evenodd"/><path d="M1210.36 1605.89 1281.18 1605.89 1281.18 1673.72 1210.36 1673.72Z" fill="#FFFFFF" fill-rule="evenodd"/><path d="M1281.18 1605.89 1351.99 1605.89 1351.99 1673.72 1281.18 1673.72Z" fill="#FFFFFF" fill-rule="evenodd"/><path d="M1351.99 1605.89 1422.8 1605.89 1422.8 1673.72 1351.99 1673.72Z" fill="#FFFFFF" fill-rule="evenodd"/><path d="M1422.8 1605.89 1493.61 1605.89 1493.61 1673.72 1422.8 1673.72Z" fill="#FFFFFF" fill-rule="evenodd"/><path d="M1493.61 1605.89 1564.43 1605.89 1564.43 1673.72 1493.61 1673.72Z" fill="#FFFFFF" fill-rule="evenodd"/><path d="M1564.43 1605.89 1635.24 1605.89 1635.24 1673.72 1564.43 1673.72Z" fill="#FFFFFF" fill-rule="evenodd"/><path d="M1635.24 1605.89 1706.05 1605.89 1706.05 1673.72 1635.24 1673.72Z" fill="#FFFFFF" fill-rule="evenodd"/><path d="M1706.05 1605.89 1776.86 1605.89 1776.86 1673.72 1706.05 1673.72Z" fill="#FFFFFF" fill-rule="evenodd"/><path d="M289.8 1673.72 360.613 1673.72 360.613 1738.58 289.8 1738.58Z" fill-rule="evenodd"/><path d="M360.613 1673.72 431.425 1673.72 431.425 1738.58 360.613 1738.58Z" fill="#FFFFFF" fill-rule="evenodd"/><path d="M431.425 1673.72 502.238 1673.72 502.238 1738.58 431.425 1738.58Z" fill-rule="evenodd"/><path d="M502.238 1673.72 573.05 1673.72 573.05 1738.58 502.238 1738.58Z" fill-rule="evenodd"/><path d="M573.05 1673.72 643.863 1673.72 643.863 1738.58 573.05 1738.58Z" fill-rule="evenodd"/><path d="M643.863 1673.72 714.675 1673.72 714.675 1738.58 643.863 1738.58Z" fill="#FFFFFF" fill-rule="evenodd"/><path d="M714.675 1673.72 785.488 1673.72 785.488 1738.58 714.675 1738.58Z" fill-rule="evenodd"/><path d="M785.488 1673.72 856.3 1673.72 856.3 1738.58 785.488 1738.58Z" fill="#FFFFFF" fill-rule="evenodd"/><path d="M856.3 1673.72 927.113 1673.72 927.113 1738.58 856.3 1738.58Z" fill="#FFFFFF" fill-rule="evenodd"/><path d="M927.113 1673.72 997.925 1673.72 997.925 1738.58 927.113 1738.58Z" fill="#FFFFFF" fill-rule="evenodd"/><path d="M997.925 1673.72 1068.74 1673.72 1068.74 1738.58 997.925 1738.58Z" fill="#FFFFFF" fill-rule="evenodd"/><path d="M1068.74 1673.72 1139.55 1673.72 1139.55 1738.58 1068.74 1738.58Z" fill="#FFFFFF" fill-rule="evenodd"/><path d="M1139.55 1673.72 1210.36 1673.72 1210.36 1738.58 1139.55 1738.58Z" fill="#FFFFFF" fill-rule="evenodd"/><path d="M1210.36 1673.72 1281.18 1673.72 1281.18 1738.58 1210.36 1738.58Z" fill="#FFFFFF" fill-rule="evenodd"/><path d="M1281.18 1673.72 1351.99 1673.72 1351.99 1738.58 1281.18 1738.58Z" fill="#FFFFFF" fill-rule="evenodd"/><path d="M1351.99 1673.72 1422.8 1673.72 1422.8 1738.58 1351.99 1738.58Z" fill="#FFFFFF" fill-rule="evenodd"/><path d="M1422.8 1673.72 1493.61 1673.72 1493.61 1738.58 1422.8 1738.58Z" fill="#FFFFFF" fill-rule="evenodd"/><path d="M1493.61 1673.72 1564.43 1673.72 1564.43 1738.58 1493.61 1738.58Z" fill="#FFFFFF" fill-rule="evenodd"/><path d="M1564.43 1673.72 1635.24 1673.72 1635.24 1738.58 1564.43 1738.58Z" fill="#FFFFFF" fill-rule="evenodd"/><path d="M1635.24 1673.72 1706.05 1673.72 1706.05 1738.58 1635.24 1738.58Z" fill="#FFFFFF" fill-rule="evenodd"/><path d="M1706.05 1673.72 1776.86 1673.72 1776.86 1738.58 1706.05 1738.58Z" fill="#FFFFFF" fill-rule="evenodd"/><path d="M289.8 1738.58 360.613 1738.58 360.613 1803.43 289.8 1803.43Z" fill-rule="evenodd"/><path d="M360.613 1738.58 431.425 1738.58 431.425 1803.43 360.613 1803.43Z" fill="#FFFFFF" fill-rule="evenodd"/><path d="M431.425 1738.58 502.238 1738.58 502.238 1803.43 431.425 1803.43Z" fill="#FFFFFF" fill-rule="evenodd"/><path d="M502.238 1738.58 573.05 1738.58 573.05 1803.43 502.238 1803.43Z" fill="#FFFFFF" fill-rule="evenodd"/><path d="M573.05 1738.58 643.863 1738.58 643.863 1803.43 573.05 1803.43Z" fill="#FFFFFF" fill-rule="evenodd"/><path d="M643.863 1738.58 714.675 1738.58 714.675 1803.43 643.863 1803.43Z" fill="#FFFFFF" fill-rule="evenodd"/><path d="M714.675 1738.58 785.488 1738.58 785.488 1803.43 714.675 1803.43Z" fill-rule="evenodd"/><path d="M785.488 1738.58 856.3 1738.58 856.3 1803.43 785.488 1803.43Z" fill="#FFFFFF" fill-rule="evenodd"/><path d="M856.3 1738.58 927.113 1738.58 927.113 1803.43 856.3 1803.43Z" fill="#FFFFFF" fill-rule="evenodd"/><path d="M927.113 1738.58 997.925 1738.58 997.925 1803.43 927.113 1803.43Z" fill="#FFFFFF" fill-rule="evenodd"/><path d="M997.925 1738.58 1068.74 1738.58 1068.74 1803.43 997.925 1803.43Z" fill="#FFFFFF" fill-rule="evenodd"/><path d="M1068.74 1738.58 1139.55 1738.58 1139.55 1803.43 1068.74 1803.43Z" fill="#FFFFFF" fill-rule="evenodd"/><path d="M1139.55 1738.58 1210.36 1738.58 1210.36 1803.43 1139.55 1803.43Z" fill="#FFFFFF" fill-rule="evenodd"/><path d="M1210.36 1738.58 1281.18 1738.58 1281.18 1803.43 1210.36 1803.43Z" fill="#FFFFFF" fill-rule="evenodd"/><path d="M1281.18 1738.58 1351.99 1738.58 1351.99 1803.43 1281.18 1803.43Z" fill="#FFFFFF" fill-rule="evenodd"/><path d="M1351.99 1738.58 1422.8 1738.58 1422.8 1803.43 1351.99 1803.43Z" fill="#FFFFFF" fill-rule="evenodd"/><path d="M1422.8 1738.58 1493.61 1738.58 1493.61 1803.43 1422.8 1803.43Z" fill="#FFFFFF" fill-rule="evenodd"/><path d="M1493.61 1738.58 1564.43 1738.58 1564.43 1803.43 1493.61 1803.43Z" fill="#FFFFFF" fill-rule="evenodd"/><path d="M1564.43 1738.58 1635.24 1738.58 1635.24 1803.43 1564.43 1803.43Z" fill="#FFFFFF" fill-rule="evenodd"/><path d="M1635.24 1738.58 1706.05 1738.58 1706.05 1803.43 1635.24 1803.43Z" fill="#FFFFFF" fill-rule="evenodd"/><path d="M1706.05 1738.58 1776.86 1738.58 1776.86 1803.43 1706.05 1803.43Z" fill="#FFFFFF" fill-rule="evenodd"/><path d="M289.8 1803.43 360.613 1803.43 360.613 1868.28 289.8 1868.28Z" fill-rule="evenodd"/><path d="M360.613 1803.43 431.425 1803.43 431.425 1868.28 360.613 1868.28Z" fill-rule="evenodd"/><path d="M431.425 1803.43 502.238 1803.43 502.238 1868.28 431.425 1868.28Z" fill-rule="evenodd"/><path d="M502.238 1803.43 573.05 1803.43 573.05 1868.28 502.238 1868.28Z" fill-rule="evenodd"/><path d="M573.05 1803.43 643.863 1803.43 643.863 1868.28 573.05 1868.28Z" fill-rule="evenodd"/><path d="M643.863 1803.43 714.675 1803.43 714.675 1868.28 643.863 1868.28Z" fill-rule="evenodd"/><path d="M714.675 1803.43 785.488 1803.43 785.488 1868.28 714.675 1868.28Z" fill-rule="evenodd"/><path d="M785.488 1803.43 856.3 1803.43 856.3 1868.28 785.488 1868.28Z" fill="#FFFFFF" fill-rule="evenodd"/><path d="M856.3 1803.43 927.113 1803.43 927.113 1868.28 856.3 1868.28Z" fill="#FFFFFF" fill-rule="evenodd"/><path d="M927.113 1803.43 997.925 1803.43 997.925 1868.28 927.113 1868.28Z" fill="#FFFFFF" fill-rule="evenodd"/><path d="M997.925 1803.43 1068.74 1803.43 1068.74 1868.28 997.925 1868.28Z" fill="#FFFFFF" fill-rule="evenodd"/><path d="M1068.74 1803.43 1139.55 1803.43 1139.55 1868.28 1068.74 1868.28Z" fill="#FFFFFF" fill-rule="evenodd"/><path d="M1139.55 1803.43 1210.36 1803.43 1210.36 1868.28 1139.55 1868.28Z" fill="#FFFFFF" fill-rule="evenodd"/><path d="M1210.36 1803.43 1281.18 1803.43 1281.18 1868.28 1210.36 1868.28Z" fill="#FFFFFF" fill-rule="evenodd"/><path d="M1281.18 1803.43 1351.99 1803.43 1351.99 1868.28 1281.18 1868.28Z" fill="#FFFFFF" fill-rule="evenodd"/><path d="M1351.99 1803.43 1422.8 1803.43 1422.8 1868.28 1351.99 1868.28Z" fill="#FFFFFF" fill-rule="evenodd"/><path d="M1422.8 1803.43 1493.61 1803.43 1493.61 1868.28 1422.8 1868.28Z" fill="#FFFFFF" fill-rule="evenodd"/><path d="M1493.61 1803.43 1564.43 1803.43 1564.43 1868.28 1493.61 1868.28Z" fill="#FFFFFF" fill-rule="evenodd"/><path d="M1564.43 1803.43 1635.24 1803.43 1635.24 1868.28 1564.43 1868.28Z" fill="#FFFFFF" fill-rule="evenodd"/><path d="M1635.24 1803.43 1706.05 1803.43 1706.05 1868.28 1635.24 1868.28Z" fill="#FFFFFF" fill-rule="evenodd"/><path d="M1706.05 1803.43 1776.86 1803.43 1776.86 1868.28 1706.05 1868.28Z" fill="#FFFFFF" fill-rule="evenodd"/><path d="M289.8 424.305 289.8 491.451" stroke="#A5A5A5" stroke-width="4.58333" stroke-linejoin="round" stroke-miterlimit="10" fill="none" fill-rule="evenodd"/><path d="M289.8 491.451 289.8 1870.58" stroke="#000000" stroke-width="4.58333" stroke-linejoin="round" stroke-miterlimit="10" fill="none" fill-rule="evenodd"/><path d="M360.613 554.013 360.613 888.826" stroke="#000000" stroke-width="4.58333" stroke-linejoin="round" stroke-miterlimit="10" fill="none" fill-rule="evenodd"/><path d="M360.613 949.097 360.613 1413.62" stroke="#A5A5A5" stroke-width="4.58333" stroke-linejoin="round" stroke-miterlimit="10" fill="none" fill-rule="evenodd"/><path d="M360.613 1473.89 360.613 1805.72" stroke="#000000" stroke-width="4.58333" stroke-linejoin="round" stroke-miterlimit="10" fill="none" fill-rule="evenodd"/><path d="M431.425 949.097 431.425 1413.62" stroke="#A5A5A5" stroke-width="4.58333" stroke-linejoin="round" stroke-miterlimit="10" fill="none" fill-rule="evenodd"/><path d="M502.238 949.097 502.238 1413.62" stroke="#A5A5A5" stroke-width="4.58333" stroke-linejoin="round" stroke-miterlimit="10" fill="none" fill-rule="evenodd"/><path d="M573.05 949.097 573.05 1413.62" stroke="#A5A5A5" stroke-width="4.58333" stroke-linejoin="round" stroke-miterlimit="10" fill="none" fill-rule="evenodd"/><path d="M643.863 949.097 643.863 1413.62" stroke="#A5A5A5" stroke-width="4.58333" stroke-linejoin="round" stroke-miterlimit="10" fill="none" fill-rule="evenodd"/><path d="M714.675 554.013 714.675 888.826" stroke="#000000" stroke-width="4.58333" stroke-linejoin="round" stroke-miterlimit="10" fill="none" fill-rule="evenodd"/><path d="M714.675 949.097 714.675 1413.62" stroke="#A5A5A5" stroke-width="4.58333" stroke-linejoin="round" stroke-miterlimit="10" fill="none" fill-rule="evenodd"/><path d="M714.675 1473.89 714.675 1805.72" stroke="#000000" stroke-width="4.58333" stroke-linejoin="round" stroke-miterlimit="10" fill="none" fill-rule="evenodd"/><path d="M785.488 424.305 785.488 491.451" stroke="#A5A5A5" stroke-width="4.58333" stroke-linejoin="round" stroke-miterlimit="10" fill="none" fill-rule="evenodd"/><path d="M785.488 491.451 785.488 1870.58" stroke="#000000" stroke-width="4.58333" stroke-linejoin="round" stroke-miterlimit="10" fill="none" fill-rule="evenodd"/><path d="M856.3 489.159 856.3 1870.58" stroke="#A5A5A5" stroke-width="4.58333" stroke-linejoin="round" stroke-miterlimit="10" fill="none" fill-rule="evenodd"/><path d="M927.113 489.159 927.113 1870.58" stroke="#A5A5A5" stroke-width="4.58333" stroke-linejoin="round" stroke-miterlimit="10" fill="none" fill-rule="evenodd"/><path d="M997.925 489.159 997.925 1870.58" stroke="#A5A5A5" stroke-width="4.58333" stroke-linejoin="round" stroke-miterlimit="10" fill="none" fill-rule="evenodd"/><path d="M1068.74 489.159 1068.74 1870.58" stroke="#A5A5A5" stroke-width="4.58333" stroke-linejoin="round" stroke-miterlimit="10" fill="none" fill-rule="evenodd"/><path d="M1139.55 489.159 1139.55 1870.58" stroke="#A5A5A5" stroke-width="4.58333" stroke-linejoin="round" stroke-miterlimit="10" fill="none" fill-rule="evenodd"/><path d="M1210.36 489.159 1210.36 1870.58" stroke="#A5A5A5" stroke-width="4.58333" stroke-linejoin="round" stroke-miterlimit="10" fill="none" fill-rule="evenodd"/><path d="M1281.18 424.305 1281.18 491.451" stroke="#A5A5A5" stroke-width="4.58333" stroke-linejoin="round" stroke-miterlimit="10" fill="none" fill-rule="evenodd"/><path d="M1281.18 491.451 1281.18 1870.58" stroke="#000000" stroke-width="4.58333" stroke-linejoin="round" stroke-miterlimit="10" fill="none" fill-rule="evenodd"/><path d="M1351.99 554.013 1351.99 888.826" stroke="#000000" stroke-width="4.58333" stroke-linejoin="round" stroke-miterlimit="10" fill="none" fill-rule="evenodd"/><path d="M1351.99 949.097 1351.99 1870.58" stroke="#A5A5A5" stroke-width="4.58333" stroke-linejoin="round" stroke-miterlimit="10" fill="none" fill-rule="evenodd"/><path d="M1422.8 949.097 1422.8 1870.58" stroke="#A5A5A5" stroke-width="4.58333" stroke-linejoin="round" stroke-miterlimit="10" fill="none" fill-rule="evenodd"/><path d="M1493.61 949.097 1493.61 1870.58" stroke="#A5A5A5" stroke-width="4.58333" stroke-linejoin="round" stroke-miterlimit="10" fill="none" fill-rule="evenodd"/><path d="M1564.43 949.097 1564.43 1870.58" stroke="#A5A5A5" stroke-width="4.58333" stroke-linejoin="round" stroke-miterlimit="10" fill="none" fill-rule="evenodd"/><path d="M1635.24 949.097 1635.24 1870.58" stroke="#A5A5A5" stroke-width="4.58333" stroke-linejoin="round" stroke-miterlimit="10" fill="none" fill-rule="evenodd"/><path d="M1706.05 554.013 1706.05 888.826" stroke="#000000" stroke-width="4.58333" stroke-linejoin="round" stroke-miterlimit="10" fill="none" fill-rule="evenodd"/><path d="M1706.05 949.097 1706.05 1870.58" stroke="#A5A5A5" stroke-width="4.58333" stroke-linejoin="round" stroke-miterlimit="10" fill="none" fill-rule="evenodd"/><path d="M216.696 491.451 292.092 491.451" stroke="#A5A5A5" stroke-width="9.16667" stroke-linejoin="round" stroke-miterlimit="10" fill="none" fill-rule="evenodd"/><path d="M292.092 491.451 1779.15 491.451" stroke="#000000" stroke-width="4.58333" stroke-linejoin="round" stroke-miterlimit="10" fill="none" fill-rule="evenodd"/><path d="M358.321 556.305 716.967 556.305" stroke="#000000" stroke-width="4.58333" stroke-linejoin="round" stroke-miterlimit="10" fill="none" fill-rule="evenodd"/><path d="M783.196 556.305 1283.47 556.305" stroke="#A5A5A5" stroke-width="4.58333" stroke-linejoin="round" stroke-miterlimit="10" fill="none" fill-rule="evenodd"/><path d="M1349.7 556.305 1708.34 556.305" stroke="#000000" stroke-width="4.58333" stroke-linejoin="round" stroke-miterlimit="10" fill="none" fill-rule="evenodd"/><path d="M783.196 624.138 1283.47 624.138" stroke="#A5A5A5" stroke-width="4.58333" stroke-linejoin="round" stroke-miterlimit="10" fill="none" fill-rule="evenodd"/><path d="M783.196 688.993 1283.47 688.993" stroke="#A5A5A5" stroke-width="4.58333" stroke-linejoin="round" stroke-miterlimit="10" fill="none" fill-rule="evenodd"/><path d="M783.196 753.847 1283.47 753.847" stroke="#A5A5A5" stroke-width="4.58333" stroke-linejoin="round" stroke-miterlimit="10" fill="none" fill-rule="evenodd"/><path d="M783.196 818.701 1283.47 818.701" stroke="#A5A5A5" stroke-width="4.58333" stroke-linejoin="round" stroke-miterlimit="10" fill="none" fill-rule="evenodd"/><path d="M358.321 886.534 716.967 886.534" stroke="#000000" stroke-width="4.58333" stroke-linejoin="round" stroke-miterlimit="10" fill="none" fill-rule="evenodd"/><path d="M783.196 886.534 1283.47 886.534" stroke="#A5A5A5" stroke-width="4.58333" stroke-linejoin="round" stroke-miterlimit="10" fill="none" fill-rule="evenodd"/><path d="M1349.7 886.534 1708.34 886.534" stroke="#000000" stroke-width="4.58333" stroke-linejoin="round" stroke-miterlimit="10" fill="none" fill-rule="evenodd"/><path d="M216.696 951.389 289.8 951.389" stroke="#A5A5A5" stroke-width="4.58333" stroke-linejoin="round" stroke-miterlimit="10" fill="none" fill-rule="evenodd"/><path d="M289.8 951.389 1779.15 951.389" stroke="#000000" stroke-width="4.58333" stroke-linejoin="round" stroke-miterlimit="10" fill="none" fill-rule="evenodd"/><path d="M287.509 1016.24 1779.15 1016.24" stroke="#A5A5A5" stroke-width="4.58333" stroke-linejoin="round" stroke-miterlimit="10" fill="none" fill-rule="evenodd"/><path d="M287.509 1081.1 1779.15 1081.1" stroke="#A5A5A5" stroke-width="4.58333" stroke-linejoin="round" stroke-miterlimit="10" fill="none" fill-rule="evenodd"/><path d="M287.509 1148.93 1779.15 1148.93" stroke="#A5A5A5" stroke-width="4.58333" stroke-linejoin="round" stroke-miterlimit="10" fill="none" fill-rule="evenodd"/><path d="M287.509 1213.78 1779.15 1213.78" stroke="#A5A5A5" stroke-width="4.58333" stroke-linejoin="round" stroke-miterlimit="10" fill="none" fill-rule="evenodd"/><path d="M287.509 1278.64 1779.15 1278.64" stroke="#A5A5A5" stroke-width="4.58333" stroke-linejoin="round" stroke-miterlimit="10" fill="none" fill-rule="evenodd"/><path d="M287.509 1343.49 1779.15 1343.49" stroke="#A5A5A5" stroke-width="4.58333" stroke-linejoin="round" stroke-miterlimit="10" fill="none" fill-rule="evenodd"/><path d="M216.696 1411.33 289.8 1411.33" stroke="#A5A5A5" stroke-width="4.58333" stroke-linejoin="round" stroke-miterlimit="10" fill="none" fill-rule="evenodd"/><path d="M289.8 1411.33 1779.15 1411.33" stroke="#000000" stroke-width="4.58333" stroke-linejoin="round" stroke-miterlimit="10" fill="none" fill-rule="evenodd"/><path d="M358.321 1476.18 716.967 1476.18" stroke="#000000" stroke-width="4.58333" stroke-linejoin="round" stroke-miterlimit="10" fill="none" fill-rule="evenodd"/><path d="M783.196 1476.18 1779.15 1476.18" stroke="#A5A5A5" stroke-width="4.58333" stroke-linejoin="round" stroke-miterlimit="10" fill="none" fill-rule="evenodd"/><path d="M783.196 1541.03 1779.15 1541.03" stroke="#A5A5A5" stroke-width="4.58333" stroke-linejoin="round" stroke-miterlimit="10" fill="none" fill-rule="evenodd"/><path d="M783.196 1605.89 1779.15 1605.89" stroke="#A5A5A5" stroke-width="4.58333" stroke-linejoin="round" stroke-miterlimit="10" fill="none" fill-rule="evenodd"/><path d="M783.196 1673.72 1779.15 1673.72" stroke="#A5A5A5" stroke-width="4.58333" stroke-linejoin="round" stroke-miterlimit="10" fill="none" fill-rule="evenodd"/><path d="M783.196 1738.58 1779.15 1738.58" stroke="#A5A5A5" stroke-width="4.58333" stroke-linejoin="round" stroke-miterlimit="10" fill="none" fill-rule="evenodd"/><path d="M358.321 1803.43 716.967 1803.43" stroke="#000000" stroke-width="4.58333" stroke-linejoin="round" stroke-miterlimit="10" fill="none" fill-rule="evenodd"/><path d="M783.196 1803.43 1779.15 1803.43" stroke="#A5A5A5" stroke-width="4.58333" stroke-linejoin="round" stroke-miterlimit="10" fill="none" fill-rule="evenodd"/><path d="M218.988 424.305 218.988 1870.58" stroke="#A5A5A5" stroke-width="4.58333" stroke-linejoin="round" stroke-miterlimit="10" fill="none" fill-rule="evenodd"/><path d="M1776.86 424.305 1776.86 491.451" stroke="#A5A5A5" stroke-width="4.58333" stroke-linejoin="round" stroke-miterlimit="10" fill="none" fill-rule="evenodd"/><path d="M1776.86 491.451 1776.86 1870.58" stroke="#000000" stroke-width="4.58333" stroke-linejoin="round" stroke-miterlimit="10" fill="none" fill-rule="evenodd"/><path d="M216.696 426.597 1779.15 426.597" stroke="#A5A5A5" stroke-width="4.58333" stroke-linejoin="round" stroke-miterlimit="10" fill="none" fill-rule="evenodd"/><path d="M216.696 1868.28 289.8 1868.28" stroke="#A5A5A5" stroke-width="4.58333" stroke-linejoin="round" stroke-miterlimit="10" fill="none" fill-rule="evenodd"/><path d="M289.8 1868.28 1779.15 1868.28" stroke="#000000" stroke-width="4.58333" stroke-linejoin="round" stroke-miterlimit="10" fill="none" fill-rule="evenodd"/><text fill="#7F7F7F" font-family="Calibri,Calibri_MSFontService,sans-serif" font-weight="700" font-size="50" transform="matrix(1 0 0 1 1516.13 476)">3</text><text fill="#7F7F7F" font-family="Calibri,Calibri_MSFontService,sans-serif" font-weight="700" font-size="50" transform="matrix(1 0 0 1 1020.44 476)">2</text><text fill="#7F7F7F" font-family="Calibri,Calibri_MSFontService,sans-serif" font-weight="700" font-size="50" transform="matrix(1 0 0 1 524.753 476)">1</text><g clip-path="url(#clip1)"><text fill="#7F7F7F" font-family="Calibri,Calibri_MSFontService,sans-serif" font-weight="700" font-size="50" transform="matrix(1 0 0 1 243.738 739)">A</text></g><g clip-path="url(#clip2)"><text fill="#7F7F7F" font-family="Calibri,Calibri_MSFontService,sans-serif" font-weight="700" font-size="50" transform="matrix(1 0 0 1 243.738 1199)">B</text></g><g clip-path="url(#clip3)"><text fill="#7F7F7F" font-family="Calibri,Calibri_MSFontService,sans-serif" font-weight="700" font-size="50" transform="matrix(1 0 0 1 243.738 1658)">C</text></g></g></svg>