<svg width="851" height="287" viewBox="0 0 851 287" xmlns="http://www.w3.org/2000/svg" xmlns:xlink="http://www.w3.org/1999/xlink" xml:space="preserve" overflow="hidden"><defs><clipPath id="clip0"><rect x="510" y="1243" width="851" height="287"/></clipPath></defs><g clip-path="url(#clip0)" transform="translate(-510 -1243)"><rect x="837.5" y="1312.5" width="520" height="150" stroke="#FFFFFF" stroke-width="6.875" stroke-miterlimit="8" fill="#FFC000"/><rect x="513.5" y="1246.5" width="328" height="280" stroke="#FFFFFF" stroke-width="6.875" stroke-miterlimit="8" fill="#70AD47"/><path d="M638 1386C638 1363.91 656.804 1346 680 1346 703.196 1346 722 1363.91 722 1386 722 1408.09 703.196 1426 680 1426 656.804 1426 638 1408.09 638 1386Z" fill="#000000" fill-rule="evenodd" fill-opacity="0.501961"/><path d="M569.5 1312.5C569.5 1304.22 576.664 1297.5 585.5 1297.5 594.337 1297.5 601.5 1304.22 601.5 1312.5 601.5 1320.78 594.337 1327.5 585.5 1327.5 576.664 1327.5 569.5 1320.78 569.5 1312.5Z" stroke="#FFFFFF" stroke-width="6.875" stroke-miterlimit="8" fill="#ED7D31" fill-rule="evenodd"/></g></svg>