<svg width="889" height="399" viewBox="0 0 889 399" xmlns="http://www.w3.org/2000/svg" xmlns:xlink="http://www.w3.org/1999/xlink" xml:space="preserve" overflow="hidden"><defs><clipPath id="clip0"><rect x="486" y="400" width="889" height="399"/></clipPath></defs><g clip-path="url(#clip0)" transform="translate(-486 -400)"><path d="M489.5 468.501C489.5 432.602 518.602 403.5 554.501 403.5L1306.5 403.5C1342.4 403.5 1371.5 432.602 1371.5 468.501L1371.5 728.499C1371.5 764.398 1342.4 793.5 1306.5 793.5L554.501 793.5C518.602 793.5 489.5 764.398 489.5 728.499Z" stroke="#FFFFFF" stroke-width="6.875" stroke-miterlimit="8" fill="#70AD47" fill-rule="evenodd"/><path d="M529.5 471C529.5 454.155 543.603 440.5 561 440.5 578.397 440.5 592.5 454.155 592.5 471 592.5 487.845 578.397 501.5 561 501.5 543.603 501.5 529.5 487.845 529.5 471Z" stroke="#FFC000" stroke-width="4.58333" stroke-miterlimit="8" fill="#FFFFFF" fill-rule="evenodd"/><path d="M529.5 727C529.5 710.155 543.603 696.5 561 696.5 578.397 696.5 592.5 710.155 592.5 727 592.5 743.845 578.397 757.5 561 757.5 543.603 757.5 529.5 743.845 529.5 727Z" stroke="#FFC000" stroke-width="4.58333" stroke-miterlimit="8" fill="#FFFFFF" fill-rule="evenodd"/><path d="M1274.5 727C1274.5 710.155 1288.83 696.5 1306.5 696.5 1324.17 696.5 1338.5 710.155 1338.5 727 1338.5 743.845 1324.17 757.5 1306.5 757.5 1288.83 757.5 1274.5 743.845 1274.5 727Z" stroke="#FFC000" stroke-width="4.58333" stroke-miterlimit="8" fill="#FFFFFF" fill-rule="evenodd"/><path d="M1274.5 471C1274.5 454.155 1288.83 440.5 1306.5 440.5 1324.17 440.5 1338.5 454.155 1338.5 471 1338.5 487.845 1324.17 501.5 1306.5 501.5 1288.83 501.5 1274.5 487.845 1274.5 471Z" stroke="#FFC000" stroke-width="4.58333" stroke-miterlimit="8" fill="#FFFFFF" fill-rule="evenodd"/><rect x="621.5" y="697.5" width="178" height="97.9999" stroke="#FFFFFF" stroke-width="6.875" stroke-miterlimit="8" fill="#A5A5A5"/><rect x="1156.5" y="710.5" width="97.0002" height="84.9999" stroke="#FFFFFF" stroke-width="6.875" stroke-miterlimit="8" fill="#A5A5A5"/><rect x="1000.5" y="710.5" width="96.9999" height="84.9999" stroke="#FFFFFF" stroke-width="6.875" stroke-miterlimit="8" fill="#A5A5A5"/><rect x="799" y="517" width="178" height="162" fill="#000000" fill-opacity="0.501961"/><rect x="520.5" y="510.5" width="144" height="150" stroke="#FFFFFF" stroke-width="6.875" stroke-miterlimit="8" fill="#A5A5A5"/><rect x="1319.5" y="510.5" width="36.9998" height="178" stroke="#FFFFFF" stroke-width="6.875" stroke-miterlimit="8" fill="#FFC000"/><rect x="614" y="424" width="638" height="75.0003" fill="#5B9BD5" fill-opacity="0.501961"/></g></svg>