<svg width="889" height="398" viewBox="0 0 889 398" xmlns="http://www.w3.org/2000/svg" xmlns:xlink="http://www.w3.org/1999/xlink" xml:space="preserve" overflow="hidden"><defs><clipPath id="clip0"><rect x="486" y="822" width="889" height="398"/></clipPath></defs><g clip-path="url(#clip0)" transform="translate(-486 -822)"><path d="M489.5 890.668C489.5 854.677 518.677 825.5 554.668 825.5L1306.33 825.5C1342.32 825.5 1371.5 854.677 1371.5 890.668L1371.5 1151.33C1371.5 1187.32 1342.32 1216.5 1306.33 1216.5L554.668 1216.5C518.677 1216.5 489.5 1187.32 489.5 1151.33Z" stroke="#FFFFFF" stroke-width="6.875" stroke-miterlimit="8" fill="#5B9BD5" fill-rule="evenodd"/><path d="M529.5 898C529.5 881.155 543.603 867.5 561 867.5 578.397 867.5 592.5 881.155 592.5 898 592.5 914.845 578.397 928.5 561 928.5 543.603 928.5 529.5 914.845 529.5 898Z" stroke="#FFC000" stroke-width="4.58333" stroke-miterlimit="8" fill="#FFFFFF" fill-rule="evenodd"/><path d="M529.5 1154C529.5 1137.16 543.603 1123.5 561 1123.5 578.397 1123.5 592.5 1137.16 592.5 1154 592.5 1170.84 578.397 1184.5 561 1184.5 543.603 1184.5 529.5 1170.84 529.5 1154Z" stroke="#FFC000" stroke-width="4.58333" stroke-miterlimit="8" fill="#FFFFFF" fill-rule="evenodd"/><path d="M1274.5 1154C1274.5 1137.16 1288.83 1123.5 1306.5 1123.5 1324.17 1123.5 1338.5 1137.16 1338.5 1154 1338.5 1170.84 1324.17 1184.5 1306.5 1184.5 1288.83 1184.5 1274.5 1170.84 1274.5 1154Z" stroke="#FFC000" stroke-width="4.58333" stroke-miterlimit="8" fill="#FFFFFF" fill-rule="evenodd"/><path d="M1274.5 898C1274.5 881.155 1288.83 867.5 1306.5 867.5 1324.17 867.5 1338.5 881.155 1338.5 898 1338.5 914.845 1324.17 928.5 1306.5 928.5 1288.83 928.5 1274.5 914.845 1274.5 898Z" stroke="#FFC000" stroke-width="4.58333" stroke-miterlimit="8" fill="#FFFFFF" fill-rule="evenodd"/><rect x="740" y="857" width="386" height="327" fill="#000000" fill-opacity="0.501961"/><rect x="1220.5" y="950.5" width="57.9998" height="34.0001" stroke="#FFFFFF" stroke-width="6.875" stroke-miterlimit="8" fill="#FFC000"/><rect x="1220.5" y="1005.5" width="57.9998" height="34.0001" stroke="#FFFFFF" stroke-width="6.875" stroke-miterlimit="8" fill="#FFC000"/><rect x="1220.5" y="1060.5" width="57.9998" height="34" stroke="#FFFFFF" stroke-width="6.875" stroke-miterlimit="8" fill="#FFC000"/><path d="M597.5 1030C597.5 1016.47 608.693 1005.5 622.5 1005.5 636.307 1005.5 647.5 1016.47 647.5 1030 647.5 1043.53 636.307 1054.5 622.5 1054.5 608.693 1054.5 597.5 1043.53 597.5 1030Z" stroke="#FFFFFF" stroke-width="6.875" stroke-miterlimit="8" fill-rule="evenodd"/></g></svg>