<svg width="1713" height="1637" viewBox="0 0 1713 1637" xmlns="http://www.w3.org/2000/svg" xmlns:xlink="http://www.w3.org/1999/xlink" xml:space="preserve" overflow="hidden"><defs><clipPath id="clip0"><rect x="2257" y="329" width="1713" height="1637"/></clipPath><clipPath id="clip1"><rect x="2259" y="352" width="79" height="434"/></clipPath><clipPath id="clip2"><rect x="2259" y="661" width="79" height="435"/></clipPath><clipPath id="clip3"><rect x="2259" y="971" width="79" height="434"/></clipPath><clipPath id="clip4"><rect x="2259" y="1280" width="79" height="434"/></clipPath><clipPath id="clip5"><rect x="2259" y="1590" width="79" height="434"/></clipPath></defs><g clip-path="url(#clip0)" transform="translate(-2257 -329)"><path d="M2259.9 414.387 2337.58 414.387 2337.58 723.762 2259.9 723.762Z" fill="#A5A5A5" fill-rule="evenodd" fill-opacity="0.2"/><path d="M2337.58 414.387 2402.68 414.387 2402.68 476.262 2337.58 476.262Z" fill-rule="evenodd"/><path d="M2402.68 414.387 2467.78 414.387 2467.78 476.262 2402.68 476.262Z" fill-rule="evenodd"/><path d="M2467.78 414.387 2532.88 414.387 2532.88 476.262 2467.78 476.262Z" fill-rule="evenodd"/><path d="M2532.88 414.387 2597.98 414.387 2597.98 476.262 2532.88 476.262Z" fill-rule="evenodd"/><path d="M2597.98 414.387 2663.08 414.387 2663.08 476.262 2597.98 476.262Z" fill-rule="evenodd"/><path d="M2663.08 414.387 2728.18 414.387 2728.18 476.262 2663.08 476.262Z" fill-rule="evenodd"/><path d="M2728.18 414.387 2793.28 414.387 2793.28 476.262 2728.18 476.262Z" fill-rule="evenodd"/><path d="M2793.28 414.387 2858.38 414.387 2858.38 476.262 2793.28 476.262Z" fill="#FFFFFF" fill-rule="evenodd"/><path d="M2858.38 414.387 2923.49 414.387 2923.49 476.262 2858.38 476.262Z" fill="#FFFFFF" fill-rule="evenodd"/><path d="M2923.49 414.387 2988.59 414.387 2988.59 476.262 2923.49 476.262Z" fill="#FFFFFF" fill-rule="evenodd"/><path d="M2988.59 414.387 3053.69 414.387 3053.69 476.262 2988.59 476.262Z" fill="#FFFFFF" fill-rule="evenodd"/><path d="M3053.69 414.387 3118.79 414.387 3118.79 476.262 3053.69 476.262Z" fill="#FFFFFF" fill-rule="evenodd"/><path d="M3118.79 414.387 3183.89 414.387 3183.89 476.262 3118.79 476.262Z" fill="#FFFFFF" fill-rule="evenodd"/><path d="M3183.89 414.387 3248.99 414.387 3248.99 476.262 3183.89 476.262Z" fill="#FFFFFF" fill-rule="evenodd"/><path d="M3248.99 414.387 3314.09 414.387 3314.09 476.262 3248.99 476.262Z" fill="#FFFFFF" fill-rule="evenodd"/><path d="M3314.09 414.387 3379.19 414.387 3379.19 476.262 3314.09 476.262Z" fill="#FFFFFF" fill-rule="evenodd"/><path d="M3379.19 414.387 3444.29 414.387 3444.29 476.262 3379.19 476.262Z" fill="#FFFFFF" fill-rule="evenodd"/><path d="M3444.29 414.387 3509.4 414.387 3509.4 476.262 3444.29 476.262Z" fill="#FFFFFF" fill-rule="evenodd"/><path d="M3509.4 414.387 3574.5 414.387 3574.5 476.262 3509.4 476.262Z" fill-rule="evenodd"/><path d="M3574.5 414.387 3639.6 414.387 3639.6 476.262 3574.5 476.262Z" fill-rule="evenodd"/><path d="M3639.6 414.387 3704.7 414.387 3704.7 476.262 3639.6 476.262Z" fill-rule="evenodd"/><path d="M3704.7 414.387 3769.8 414.387 3769.8 476.262 3704.7 476.262Z" fill-rule="evenodd"/><path d="M3769.8 414.387 3834.9 414.387 3834.9 476.262 3769.8 476.262Z" fill-rule="evenodd"/><path d="M3834.9 414.387 3900 414.387 3900 476.262 3834.9 476.262Z" fill-rule="evenodd"/><path d="M3900 414.387 3965.1 414.387 3965.1 476.262 3900 476.262Z" fill-rule="evenodd"/><path d="M2337.58 476.262 2402.68 476.262 2402.68 538.137 2337.58 538.137Z" fill-rule="evenodd"/><path d="M2402.68 476.262 2467.78 476.262 2467.78 538.137 2402.68 538.137Z" fill="#FFFFFF" fill-rule="evenodd"/><path d="M2467.78 476.262 2532.88 476.262 2532.88 538.137 2467.78 538.137Z" fill="#FFFFFF" fill-rule="evenodd"/><path d="M2532.88 476.262 2597.98 476.262 2597.98 538.137 2532.88 538.137Z" fill="#FFFFFF" fill-rule="evenodd"/><path d="M2597.98 476.262 2663.08 476.262 2663.08 538.137 2597.98 538.137Z" fill="#FFFFFF" fill-rule="evenodd"/><path d="M2663.08 476.262 2728.18 476.262 2728.18 538.137 2663.08 538.137Z" fill="#FFFFFF" fill-rule="evenodd"/><path d="M2728.18 476.262 2793.28 476.262 2793.28 538.137 2728.18 538.137Z" fill-rule="evenodd"/><path d="M2793.28 476.262 2858.38 476.262 2858.38 538.137 2793.28 538.137Z" fill="#FFFFFF" fill-rule="evenodd"/><path d="M2858.38 476.262 2923.49 476.262 2923.49 538.137 2858.38 538.137Z" fill="#FFFFFF" fill-rule="evenodd"/><path d="M2923.49 476.262 2988.59 476.262 2988.59 538.137 2923.49 538.137Z" fill="#FFFFFF" fill-rule="evenodd"/><path d="M2988.59 476.262 3053.69 476.262 3053.69 538.137 2988.59 538.137Z" fill="#FFFFFF" fill-rule="evenodd"/><path d="M3053.69 476.262 3118.79 476.262 3118.79 538.137 3053.69 538.137Z" fill="#FFFFFF" fill-rule="evenodd"/><path d="M3118.79 476.262 3183.89 476.262 3183.89 538.137 3118.79 538.137Z" fill="#FFFFFF" fill-rule="evenodd"/><path d="M3183.89 476.262 3248.99 476.262 3248.99 538.137 3183.89 538.137Z" fill="#FFFFFF" fill-rule="evenodd"/><path d="M3248.99 476.262 3314.09 476.262 3314.09 538.137 3248.99 538.137Z" fill="#FFFFFF" fill-rule="evenodd"/><path d="M3314.09 476.262 3379.19 476.262 3379.19 538.137 3314.09 538.137Z" fill="#FFFFFF" fill-rule="evenodd"/><path d="M3379.19 476.262 3444.29 476.262 3444.29 538.137 3379.19 538.137Z" fill="#FFFFFF" fill-rule="evenodd"/><path d="M3444.29 476.262 3509.4 476.262 3509.4 538.137 3444.29 538.137Z" fill="#FFFFFF" fill-rule="evenodd"/><path d="M3509.4 476.262 3574.5 476.262 3574.5 538.137 3509.4 538.137Z" fill-rule="evenodd"/><path d="M3574.5 476.262 3639.6 476.262 3639.6 538.137 3574.5 538.137Z" fill="#FFFFFF" fill-rule="evenodd"/><path d="M3639.6 476.262 3704.7 476.262 3704.7 538.137 3639.6 538.137Z" fill="#FFFFFF" fill-rule="evenodd"/><path d="M3704.7 476.262 3769.8 476.262 3769.8 538.137 3704.7 538.137Z" fill="#FFFFFF" fill-rule="evenodd"/><path d="M3769.8 476.262 3834.9 476.262 3834.9 538.137 3769.8 538.137Z" fill="#FFFFFF" fill-rule="evenodd"/><path d="M3834.9 476.262 3900 476.262 3900 538.137 3834.9 538.137Z" fill="#FFFFFF" fill-rule="evenodd"/><path d="M3900 476.262 3965.1 476.262 3965.1 538.137 3900 538.137Z" fill-rule="evenodd"/><path d="M2337.58 538.137 2402.68 538.137 2402.68 600.012 2337.58 600.012Z" fill-rule="evenodd"/><path d="M2402.68 538.137 2467.78 538.137 2467.78 600.012 2402.68 600.012Z" fill="#FFFFFF" fill-rule="evenodd"/><path d="M2467.78 538.137 2532.88 538.137 2532.88 600.012 2467.78 600.012Z" fill-rule="evenodd"/><path d="M2532.88 538.137 2597.98 538.137 2597.98 600.012 2532.88 600.012Z" fill-rule="evenodd"/><path d="M2597.98 538.137 2663.08 538.137 2663.08 600.012 2597.98 600.012Z" fill-rule="evenodd"/><path d="M2663.08 538.137 2728.18 538.137 2728.18 600.012 2663.08 600.012Z" fill="#FFFFFF" fill-rule="evenodd"/><path d="M2728.18 538.137 2793.28 538.137 2793.28 600.012 2728.18 600.012Z" fill-rule="evenodd"/><path d="M2793.28 538.137 2858.38 538.137 2858.38 600.012 2793.28 600.012Z" fill="#FFFFFF" fill-rule="evenodd"/><path d="M2858.38 538.137 2923.49 538.137 2923.49 600.012 2858.38 600.012Z" fill="#FFFFFF" fill-rule="evenodd"/><path d="M2923.49 538.137 2988.59 538.137 2988.59 600.012 2923.49 600.012Z" fill="#FFFFFF" fill-rule="evenodd"/><path d="M2988.59 538.137 3053.69 538.137 3053.69 600.012 2988.59 600.012Z" fill="#FFFFFF" fill-rule="evenodd"/><path d="M3053.69 538.137 3118.79 538.137 3118.79 600.012 3053.69 600.012Z" fill="#FFFFFF" fill-rule="evenodd"/><path d="M3118.79 538.137 3183.89 538.137 3183.89 600.012 3118.79 600.012Z" fill="#FFFFFF" fill-rule="evenodd"/><path d="M3183.89 538.137 3248.99 538.137 3248.99 600.012 3183.89 600.012Z" fill="#FFFFFF" fill-rule="evenodd"/><path d="M3248.99 538.137 3314.09 538.137 3314.09 600.012 3248.99 600.012Z" fill="#FFFFFF" fill-rule="evenodd"/><path d="M3314.09 538.137 3379.19 538.137 3379.19 600.012 3314.09 600.012Z" fill="#FFFFFF" fill-rule="evenodd"/><path d="M3379.19 538.137 3444.29 538.137 3444.29 600.012 3379.19 600.012Z" fill="#FFFFFF" fill-rule="evenodd"/><path d="M3444.29 538.137 3509.4 538.137 3509.4 600.012 3444.29 600.012Z" fill="#FFFFFF" fill-rule="evenodd"/><path d="M3509.4 538.137 3574.5 538.137 3574.5 600.012 3509.4 600.012Z" fill-rule="evenodd"/><path d="M3574.5 538.137 3639.6 538.137 3639.6 600.012 3574.5 600.012Z" fill="#FFFFFF" fill-rule="evenodd"/><path d="M3639.6 538.137 3704.7 538.137 3704.7 600.012 3639.6 600.012Z" fill-rule="evenodd"/><path d="M3704.7 538.137 3769.8 538.137 3769.8 600.012 3704.7 600.012Z" fill-rule="evenodd"/><path d="M3769.8 538.137 3834.9 538.137 3834.9 600.012 3769.8 600.012Z" fill-rule="evenodd"/><path d="M3834.9 538.137 3900 538.137 3900 600.012 3834.9 600.012Z" fill="#FFFFFF" fill-rule="evenodd"/><path d="M3900 538.137 3965.1 538.137 3965.1 600.012 3900 600.012Z" fill-rule="evenodd"/><path d="M2337.58 600.012 2402.68 600.012 2402.68 661.887 2337.58 661.887Z" fill-rule="evenodd"/><path d="M2402.68 600.012 2467.78 600.012 2467.78 661.887 2402.68 661.887Z" fill="#FFFFFF" fill-rule="evenodd"/><path d="M2467.78 600.012 2532.88 600.012 2532.88 661.887 2467.78 661.887Z" fill-rule="evenodd"/><path d="M2532.88 600.012 2597.98 600.012 2597.98 661.887 2532.88 661.887Z" fill-rule="evenodd"/><path d="M2597.98 600.012 2663.08 600.012 2663.08 661.887 2597.98 661.887Z" fill-rule="evenodd"/><path d="M2663.08 600.012 2728.18 600.012 2728.18 661.887 2663.08 661.887Z" fill="#FFFFFF" fill-rule="evenodd"/><path d="M2728.18 600.012 2793.28 600.012 2793.28 661.887 2728.18 661.887Z" fill-rule="evenodd"/><path d="M2793.28 600.012 2858.38 600.012 2858.38 661.887 2793.28 661.887Z" fill="#FFFFFF" fill-rule="evenodd"/><path d="M2858.38 600.012 2923.49 600.012 2923.49 661.887 2858.38 661.887Z" fill="#FFFFFF" fill-rule="evenodd"/><path d="M2923.49 600.012 2988.59 600.012 2988.59 661.887 2923.49 661.887Z" fill="#FFFFFF" fill-rule="evenodd"/><path d="M2988.59 600.012 3053.69 600.012 3053.69 661.887 2988.59 661.887Z" fill="#FFFFFF" fill-rule="evenodd"/><path d="M3053.69 600.012 3118.79 600.012 3118.79 661.887 3053.69 661.887Z" fill="#FFFFFF" fill-rule="evenodd"/><path d="M3118.79 600.012 3183.89 600.012 3183.89 661.887 3118.79 661.887Z" fill="#FFFFFF" fill-rule="evenodd"/><path d="M3183.89 600.012 3248.99 600.012 3248.99 661.887 3183.89 661.887Z" fill="#FFFFFF" fill-rule="evenodd"/><path d="M3248.99 600.012 3314.09 600.012 3314.09 661.887 3248.99 661.887Z" fill="#FFFFFF" fill-rule="evenodd"/><path d="M3314.09 600.012 3379.19 600.012 3379.19 661.887 3314.09 661.887Z" fill="#FFFFFF" fill-rule="evenodd"/><path d="M3379.19 600.012 3444.29 600.012 3444.29 661.887 3379.19 661.887Z" fill="#FFFFFF" fill-rule="evenodd"/><path d="M3444.29 600.012 3509.4 600.012 3509.4 661.887 3444.29 661.887Z" fill="#FFFFFF" fill-rule="evenodd"/><path d="M3509.4 600.012 3574.5 600.012 3574.5 661.887 3509.4 661.887Z" fill-rule="evenodd"/><path d="M3574.5 600.012 3639.6 600.012 3639.6 661.887 3574.5 661.887Z" fill="#FFFFFF" fill-rule="evenodd"/><path d="M3639.6 600.012 3704.7 600.012 3704.7 661.887 3639.6 661.887Z" fill-rule="evenodd"/><path d="M3704.7 600.012 3769.8 600.012 3769.8 661.887 3704.7 661.887Z" fill-rule="evenodd"/><path d="M3769.8 600.012 3834.9 600.012 3834.9 661.887 3769.8 661.887Z" fill-rule="evenodd"/><path d="M3834.9 600.012 3900 600.012 3900 661.887 3834.9 661.887Z" fill="#FFFFFF" fill-rule="evenodd"/><path d="M3900 600.012 3965.1 600.012 3965.1 661.887 3900 661.887Z" fill-rule="evenodd"/><path d="M2337.58 661.887 2402.68 661.887 2402.68 723.762 2337.58 723.762Z" fill-rule="evenodd"/><path d="M2402.68 661.887 2467.78 661.887 2467.78 723.762 2402.68 723.762Z" fill="#FFFFFF" fill-rule="evenodd"/><path d="M2467.78 661.887 2532.88 661.887 2532.88 723.762 2467.78 723.762Z" fill-rule="evenodd"/><path d="M2532.88 661.887 2597.98 661.887 2597.98 723.762 2532.88 723.762Z" fill-rule="evenodd"/><path d="M2597.98 661.887 2663.08 661.887 2663.08 723.762 2597.98 723.762Z" fill-rule="evenodd"/><path d="M2663.08 661.887 2728.18 661.887 2728.18 723.762 2663.08 723.762Z" fill="#FFFFFF" fill-rule="evenodd"/><path d="M2728.18 661.887 2793.28 661.887 2793.28 723.762 2728.18 723.762Z" fill-rule="evenodd"/><path d="M2793.28 661.887 2858.38 661.887 2858.38 723.762 2793.28 723.762Z" fill="#FFFFFF" fill-rule="evenodd"/><path d="M2858.38 661.887 2923.49 661.887 2923.49 723.762 2858.38 723.762Z" fill="#FFFFFF" fill-rule="evenodd"/><path d="M2923.49 661.887 2988.59 661.887 2988.59 723.762 2923.49 723.762Z" fill="#FFFFFF" fill-rule="evenodd"/><path d="M2988.59 661.887 3053.69 661.887 3053.69 723.762 2988.59 723.762Z" fill="#FFFFFF" fill-rule="evenodd"/><path d="M3053.69 661.887 3118.79 661.887 3118.79 723.762 3053.69 723.762Z" fill="#FFFFFF" fill-rule="evenodd"/><path d="M3118.79 661.887 3183.89 661.887 3183.89 723.762 3118.79 723.762Z" fill="#FFFFFF" fill-rule="evenodd"/><path d="M3183.89 661.887 3248.99 661.887 3248.99 723.762 3183.89 723.762Z" fill="#FFFFFF" fill-rule="evenodd"/><path d="M3248.99 661.887 3314.09 661.887 3314.09 723.762 3248.99 723.762Z" fill="#FFFFFF" fill-rule="evenodd"/><path d="M3314.09 661.887 3379.19 661.887 3379.19 723.762 3314.09 723.762Z" fill="#FFFFFF" fill-rule="evenodd"/><path d="M3379.19 661.887 3444.29 661.887 3444.29 723.762 3379.19 723.762Z" fill="#FFFFFF" fill-rule="evenodd"/><path d="M3444.29 661.887 3509.4 661.887 3509.4 723.762 3444.29 723.762Z" fill="#FFFFFF" fill-rule="evenodd"/><path d="M3509.4 661.887 3574.5 661.887 3574.5 723.762 3509.4 723.762Z" fill-rule="evenodd"/><path d="M3574.5 661.887 3639.6 661.887 3639.6 723.762 3574.5 723.762Z" fill="#FFFFFF" fill-rule="evenodd"/><path d="M3639.6 661.887 3704.7 661.887 3704.7 723.762 3639.6 723.762Z" fill-rule="evenodd"/><path d="M3704.7 661.887 3769.8 661.887 3769.8 723.762 3704.7 723.762Z" fill-rule="evenodd"/><path d="M3769.8 661.887 3834.9 661.887 3834.9 723.762 3769.8 723.762Z" fill-rule="evenodd"/><path d="M3834.9 661.887 3900 661.887 3900 723.762 3834.9 723.762Z" fill="#FFFFFF" fill-rule="evenodd"/><path d="M3900 661.887 3965.1 661.887 3965.1 723.762 3900 723.762Z" fill-rule="evenodd"/><path d="M2337.58 723.762 2402.68 723.762 2402.68 785.637 2337.58 785.637Z" fill-rule="evenodd"/><path d="M2402.68 723.762 2467.78 723.762 2467.78 785.637 2402.68 785.637Z" fill="#FFFFFF" fill-rule="evenodd"/><path d="M2467.78 723.762 2532.88 723.762 2532.88 785.637 2467.78 785.637Z" fill="#FFFFFF" fill-rule="evenodd"/><path d="M2532.88 723.762 2597.98 723.762 2597.98 785.637 2532.88 785.637Z" fill="#FFFFFF" fill-rule="evenodd"/><path d="M2597.98 723.762 2663.08 723.762 2663.08 785.637 2597.98 785.637Z" fill="#FFFFFF" fill-rule="evenodd"/><path d="M2663.08 723.762 2728.18 723.762 2728.18 785.637 2663.08 785.637Z" fill="#FFFFFF" fill-rule="evenodd"/><path d="M2728.18 723.762 2793.28 723.762 2793.28 785.637 2728.18 785.637Z" fill-rule="evenodd"/><path d="M2793.28 723.762 2858.38 723.762 2858.38 785.637 2793.28 785.637Z" fill="#FFFFFF" fill-rule="evenodd"/><path d="M2858.38 723.762 2923.49 723.762 2923.49 785.637 2858.38 785.637Z" fill="#FFFFFF" fill-rule="evenodd"/><path d="M2923.49 723.762 2988.59 723.762 2988.59 785.637 2923.49 785.637Z" fill="#FFFFFF" fill-rule="evenodd"/><path d="M2988.59 723.762 3053.69 723.762 3053.69 785.637 2988.59 785.637Z" fill="#FFFFFF" fill-rule="evenodd"/><path d="M3053.69 723.762 3118.79 723.762 3118.79 785.637 3053.69 785.637Z" fill="#FFFFFF" fill-rule="evenodd"/><path d="M3118.79 723.762 3183.89 723.762 3183.89 785.637 3118.79 785.637Z" fill="#FFFFFF" fill-rule="evenodd"/><path d="M3183.89 723.762 3248.99 723.762 3248.99 785.637 3183.89 785.637Z" fill="#FFFFFF" fill-rule="evenodd"/><path d="M3248.99 723.762 3314.09 723.762 3314.09 785.637 3248.99 785.637Z" fill="#FFFFFF" fill-rule="evenodd"/><path d="M3314.09 723.762 3379.19 723.762 3379.19 785.637 3314.09 785.637Z" fill="#FFFFFF" fill-rule="evenodd"/><path d="M3379.19 723.762 3444.29 723.762 3444.29 785.637 3379.19 785.637Z" fill="#FFFFFF" fill-rule="evenodd"/><path d="M3444.29 723.762 3509.4 723.762 3509.4 785.637 3444.29 785.637Z" fill="#FFFFFF" fill-rule="evenodd"/><path d="M3509.4 723.762 3574.5 723.762 3574.5 785.637 3509.4 785.637Z" fill-rule="evenodd"/><path d="M3574.5 723.762 3639.6 723.762 3639.6 785.637 3574.5 785.637Z" fill="#FFFFFF" fill-rule="evenodd"/><path d="M3639.6 723.762 3704.7 723.762 3704.7 785.637 3639.6 785.637Z" fill="#FFFFFF" fill-rule="evenodd"/><path d="M3704.7 723.762 3769.8 723.762 3769.8 785.637 3704.7 785.637Z" fill="#FFFFFF" fill-rule="evenodd"/><path d="M3769.8 723.762 3834.9 723.762 3834.9 785.637 3769.8 785.637Z" fill="#FFFFFF" fill-rule="evenodd"/><path d="M3834.9 723.762 3900 723.762 3900 785.637 3834.9 785.637Z" fill="#FFFFFF" fill-rule="evenodd"/><path d="M3900 723.762 3965.1 723.762 3965.1 785.637 3900 785.637Z" fill-rule="evenodd"/><path d="M2337.58 785.637 2402.68 785.637 2402.68 847.512 2337.58 847.512Z" fill-rule="evenodd"/><path d="M2402.68 785.637 2467.78 785.637 2467.78 847.512 2402.68 847.512Z" fill-rule="evenodd"/><path d="M2467.78 785.637 2532.88 785.637 2532.88 847.512 2467.78 847.512Z" fill-rule="evenodd"/><path d="M2532.88 785.637 2597.98 785.637 2597.98 847.512 2532.88 847.512Z" fill-rule="evenodd"/><path d="M2597.98 785.637 2663.08 785.637 2663.08 847.512 2597.98 847.512Z" fill-rule="evenodd"/><path d="M2663.08 785.637 2728.18 785.637 2728.18 847.512 2663.08 847.512Z" fill-rule="evenodd"/><path d="M2728.18 785.637 2793.28 785.637 2793.28 847.512 2728.18 847.512Z" fill-rule="evenodd"/><path d="M2793.28 785.637 2858.38 785.637 2858.38 847.512 2793.28 847.512Z" fill="#FFFFFF" fill-rule="evenodd"/><path d="M2858.38 785.637 2923.49 785.637 2923.49 847.512 2858.38 847.512Z" fill="#FFFFFF" fill-rule="evenodd"/><path d="M2923.49 785.637 2988.59 785.637 2988.59 847.512 2923.49 847.512Z" fill="#FFFFFF" fill-rule="evenodd"/><path d="M2988.59 785.637 3053.69 785.637 3053.69 847.512 2988.59 847.512Z" fill="#FFFFFF" fill-rule="evenodd"/><path d="M3053.69 785.637 3118.79 785.637 3118.79 847.512 3053.69 847.512Z" fill="#FFFFFF" fill-rule="evenodd"/><path d="M3118.79 785.637 3183.89 785.637 3183.89 847.512 3118.79 847.512Z" fill="#FFFFFF" fill-rule="evenodd"/><path d="M3183.89 785.637 3248.99 785.637 3248.99 847.512 3183.89 847.512Z" fill="#FFFFFF" fill-rule="evenodd"/><path d="M3248.99 785.637 3314.09 785.637 3314.09 847.512 3248.99 847.512Z" fill="#FFFFFF" fill-rule="evenodd"/><path d="M3314.09 785.637 3379.19 785.637 3379.19 847.512 3314.09 847.512Z" fill="#FFFFFF" fill-rule="evenodd"/><path d="M3379.19 785.637 3444.29 785.637 3444.29 847.512 3379.19 847.512Z" fill="#FFFFFF" fill-rule="evenodd"/><path d="M3444.29 785.637 3509.4 785.637 3509.4 847.512 3444.29 847.512Z" fill="#FFFFFF" fill-rule="evenodd"/><path d="M3509.4 785.637 3574.5 785.637 3574.5 847.512 3509.4 847.512Z" fill-rule="evenodd"/><path d="M3574.5 785.637 3639.6 785.637 3639.6 847.512 3574.5 847.512Z" fill-rule="evenodd"/><path d="M3639.6 785.637 3704.7 785.637 3704.7 847.512 3639.6 847.512Z" fill-rule="evenodd"/><path d="M3704.7 785.637 3769.8 785.637 3769.8 847.512 3704.7 847.512Z" fill-rule="evenodd"/><path d="M3769.8 785.637 3834.9 785.637 3834.9 847.512 3769.8 847.512Z" fill-rule="evenodd"/><path d="M3834.9 785.637 3900 785.637 3900 847.512 3834.9 847.512Z" fill-rule="evenodd"/><path d="M3900 785.637 3965.1 785.637 3965.1 847.512 3900 847.512Z" fill-rule="evenodd"/><path d="M2337.58 847.512 2402.68 847.512 2402.68 909.387 2337.58 909.387Z" fill="#FFFFFF" fill-rule="evenodd"/><path d="M2402.68 847.512 2467.78 847.512 2467.78 909.387 2402.68 909.387Z" fill="#FFFFFF" fill-rule="evenodd"/><path d="M2467.78 847.512 2532.88 847.512 2532.88 909.387 2467.78 909.387Z" fill="#FFFFFF" fill-rule="evenodd"/><path d="M2532.88 847.512 2597.98 847.512 2597.98 909.387 2532.88 909.387Z" fill="#FFFFFF" fill-rule="evenodd"/><path d="M2597.98 847.512 2663.08 847.512 2663.08 909.387 2597.98 909.387Z" fill="#FFFFFF" fill-rule="evenodd"/><path d="M2663.08 847.512 2728.18 847.512 2728.18 909.387 2663.08 909.387Z" fill="#FFFFFF" fill-rule="evenodd"/><path d="M2728.18 847.512 2793.28 847.512 2793.28 909.387 2728.18 909.387Z" fill="#FFFFFF" fill-rule="evenodd"/><path d="M2793.28 847.512 2858.38 847.512 2858.38 909.387 2793.28 909.387Z" fill="#FFFFFF" fill-rule="evenodd"/><path d="M2858.38 847.512 2923.49 847.512 2923.49 909.387 2858.38 909.387Z" fill="#FFFFFF" fill-rule="evenodd"/><path d="M2923.49 847.512 2988.59 847.512 2988.59 909.387 2923.49 909.387Z" fill="#FFFFFF" fill-rule="evenodd"/><path d="M2988.59 847.512 3053.69 847.512 3053.69 909.387 2988.59 909.387Z" fill="#FFFFFF" fill-rule="evenodd"/><path d="M3053.69 847.512 3118.79 847.512 3118.79 909.387 3053.69 909.387Z" fill="#FFFFFF" fill-rule="evenodd"/><path d="M3118.79 847.512 3183.89 847.512 3183.89 909.387 3118.79 909.387Z" fill="#FFFFFF" fill-rule="evenodd"/><path d="M3183.89 847.512 3248.99 847.512 3248.99 909.387 3183.89 909.387Z" fill="#FFFFFF" fill-rule="evenodd"/><path d="M3248.99 847.512 3314.09 847.512 3314.09 909.387 3248.99 909.387Z" fill="#FFFFFF" fill-rule="evenodd"/><path d="M3314.09 847.512 3379.19 847.512 3379.19 909.387 3314.09 909.387Z" fill="#FFFFFF" fill-rule="evenodd"/><path d="M3379.19 847.512 3444.29 847.512 3444.29 909.387 3379.19 909.387Z" fill="#FFFFFF" fill-rule="evenodd"/><path d="M3444.29 847.512 3509.4 847.512 3509.4 909.387 3444.29 909.387Z" fill="#FFFFFF" fill-rule="evenodd"/><path d="M3509.4 847.512 3574.5 847.512 3574.5 909.387 3509.4 909.387Z" fill="#FFFFFF" fill-rule="evenodd"/><path d="M3574.5 847.512 3639.6 847.512 3639.6 909.387 3574.5 909.387Z" fill="#FFFFFF" fill-rule="evenodd"/><path d="M3639.6 847.512 3704.7 847.512 3704.7 909.387 3639.6 909.387Z" fill="#FFFFFF" fill-rule="evenodd"/><path d="M3704.7 847.512 3769.8 847.512 3769.8 909.387 3704.7 909.387Z" fill="#FFFFFF" fill-rule="evenodd"/><path d="M3769.8 847.512 3834.9 847.512 3834.9 909.387 3769.8 909.387Z" fill="#FFFFFF" fill-rule="evenodd"/><path d="M3834.9 847.512 3900 847.512 3900 909.387 3834.9 909.387Z" fill="#FFFFFF" fill-rule="evenodd"/><path d="M3900 847.512 3965.1 847.512 3965.1 909.387 3900 909.387Z" fill="#FFFFFF" fill-rule="evenodd"/><path d="M2337.58 909.387 2402.68 909.387 2402.68 971.262 2337.58 971.262Z" fill="#FFFFFF" fill-rule="evenodd"/><path d="M2402.68 909.387 2467.78 909.387 2467.78 971.262 2402.68 971.262Z" fill="#FFFFFF" fill-rule="evenodd"/><path d="M2467.78 909.387 2532.88 909.387 2532.88 971.262 2467.78 971.262Z" fill="#FFFFFF" fill-rule="evenodd"/><path d="M2532.88 909.387 2597.98 909.387 2597.98 971.262 2532.88 971.262Z" fill="#FFFFFF" fill-rule="evenodd"/><path d="M2597.98 909.387 2663.08 909.387 2663.08 971.262 2597.98 971.262Z" fill="#FFFFFF" fill-rule="evenodd"/><path d="M2663.08 909.387 2728.18 909.387 2728.18 971.262 2663.08 971.262Z" fill="#FFFFFF" fill-rule="evenodd"/><path d="M2728.18 909.387 2793.28 909.387 2793.28 971.262 2728.18 971.262Z" fill="#FFFFFF" fill-rule="evenodd"/><path d="M2793.28 909.387 2858.38 909.387 2858.38 971.262 2793.28 971.262Z" fill="#FFFFFF" fill-rule="evenodd"/><path d="M2858.38 909.387 2923.49 909.387 2923.49 971.262 2858.38 971.262Z" fill="#FFFFFF" fill-rule="evenodd"/><path d="M2923.49 909.387 2988.59 909.387 2988.59 971.262 2923.49 971.262Z" fill="#FFFFFF" fill-rule="evenodd"/><path d="M2988.59 909.387 3053.69 909.387 3053.69 971.262 2988.59 971.262Z" fill="#FFFFFF" fill-rule="evenodd"/><path d="M3053.69 909.387 3118.79 909.387 3118.79 971.262 3053.69 971.262Z" fill="#FFFFFF" fill-rule="evenodd"/><path d="M3118.79 909.387 3183.89 909.387 3183.89 971.262 3118.79 971.262Z" fill="#FFFFFF" fill-rule="evenodd"/><path d="M3183.89 909.387 3248.99 909.387 3248.99 971.262 3183.89 971.262Z" fill="#FFFFFF" fill-rule="evenodd"/><path d="M3248.99 909.387 3314.09 909.387 3314.09 971.262 3248.99 971.262Z" fill="#FFFFFF" fill-rule="evenodd"/><path d="M3314.09 909.387 3379.19 909.387 3379.19 971.262 3314.09 971.262Z" fill="#FFFFFF" fill-rule="evenodd"/><path d="M3379.19 909.387 3444.29 909.387 3444.29 971.262 3379.19 971.262Z" fill="#FFFFFF" fill-rule="evenodd"/><path d="M3444.29 909.387 3509.4 909.387 3509.4 971.262 3444.29 971.262Z" fill="#FFFFFF" fill-rule="evenodd"/><path d="M3509.4 909.387 3574.5 909.387 3574.5 971.262 3509.4 971.262Z" fill="#FFFFFF" fill-rule="evenodd"/><path d="M3574.5 909.387 3639.6 909.387 3639.6 971.262 3574.5 971.262Z" fill="#FFFFFF" fill-rule="evenodd"/><path d="M3639.6 909.387 3704.7 909.387 3704.7 971.262 3639.6 971.262Z" fill="#FFFFFF" fill-rule="evenodd"/><path d="M3704.7 909.387 3769.8 909.387 3769.8 971.262 3704.7 971.262Z" fill="#FFFFFF" fill-rule="evenodd"/><path d="M3769.8 909.387 3834.9 909.387 3834.9 971.262 3769.8 971.262Z" fill="#FFFFFF" fill-rule="evenodd"/><path d="M3834.9 909.387 3900 909.387 3900 971.262 3834.9 971.262Z" fill="#FFFFFF" fill-rule="evenodd"/><path d="M3900 909.387 3965.1 909.387 3965.1 971.262 3900 971.262Z" fill="#FFFFFF" fill-rule="evenodd"/><path d="M2337.58 971.262 2402.68 971.262 2402.68 1033.14 2337.58 1033.14Z" fill="#FFFFFF" fill-rule="evenodd"/><path d="M2402.68 971.262 2467.78 971.262 2467.78 1033.14 2402.68 1033.14Z" fill="#FFFFFF" fill-rule="evenodd"/><path d="M2467.78 971.262 2532.88 971.262 2532.88 1033.14 2467.78 1033.14Z" fill="#FFFFFF" fill-rule="evenodd"/><path d="M2532.88 971.262 2597.98 971.262 2597.98 1033.14 2532.88 1033.14Z" fill="#FFFFFF" fill-rule="evenodd"/><path d="M2597.98 971.262 2663.08 971.262 2663.08 1033.14 2597.98 1033.14Z" fill="#FFFFFF" fill-rule="evenodd"/><path d="M2663.08 971.262 2728.18 971.262 2728.18 1033.14 2663.08 1033.14Z" fill="#FFFFFF" fill-rule="evenodd"/><path d="M2728.18 971.262 2793.28 971.262 2793.28 1033.14 2728.18 1033.14Z" fill="#FFFFFF" fill-rule="evenodd"/><path d="M2793.28 971.262 2858.38 971.262 2858.38 1033.14 2793.28 1033.14Z" fill="#FFFFFF" fill-rule="evenodd"/><path d="M2858.38 971.262 2923.49 971.262 2923.49 1033.14 2858.38 1033.14Z" fill="#FFFFFF" fill-rule="evenodd"/><path d="M2923.49 971.262 2988.59 971.262 2988.59 1033.14 2923.49 1033.14Z" fill="#FFFFFF" fill-rule="evenodd"/><path d="M2988.59 971.262 3053.69 971.262 3053.69 1033.14 2988.59 1033.14Z" fill="#FFFFFF" fill-rule="evenodd"/><path d="M3053.69 971.262 3118.79 971.262 3118.79 1033.14 3053.69 1033.14Z" fill="#FFFFFF" fill-rule="evenodd"/><path d="M3118.79 971.262 3183.89 971.262 3183.89 1033.14 3118.79 1033.14Z" fill="#FFFFFF" fill-rule="evenodd"/><path d="M3183.89 971.262 3248.99 971.262 3248.99 1033.14 3183.89 1033.14Z" fill="#FFFFFF" fill-rule="evenodd"/><path d="M3248.99 971.262 3314.09 971.262 3314.09 1033.14 3248.99 1033.14Z" fill="#FFFFFF" fill-rule="evenodd"/><path d="M3314.09 971.262 3379.19 971.262 3379.19 1033.14 3314.09 1033.14Z" fill="#FFFFFF" fill-rule="evenodd"/><path d="M3379.19 971.262 3444.29 971.262 3444.29 1033.14 3379.19 1033.14Z" fill="#FFFFFF" fill-rule="evenodd"/><path d="M3444.29 971.262 3509.4 971.262 3509.4 1033.14 3444.29 1033.14Z" fill="#FFFFFF" fill-rule="evenodd"/><path d="M3509.4 971.262 3574.5 971.262 3574.5 1033.14 3509.4 1033.14Z" fill="#FFFFFF" fill-rule="evenodd"/><path d="M3574.5 971.262 3639.6 971.262 3639.6 1033.14 3574.5 1033.14Z" fill="#FFFFFF" fill-rule="evenodd"/><path d="M3639.6 971.262 3704.7 971.262 3704.7 1033.14 3639.6 1033.14Z" fill="#FFFFFF" fill-rule="evenodd"/><path d="M3704.7 971.262 3769.8 971.262 3769.8 1033.14 3704.7 1033.14Z" fill="#FFFFFF" fill-rule="evenodd"/><path d="M3769.8 971.262 3834.9 971.262 3834.9 1033.14 3769.8 1033.14Z" fill="#FFFFFF" fill-rule="evenodd"/><path d="M3834.9 971.262 3900 971.262 3900 1033.14 3834.9 1033.14Z" fill="#FFFFFF" fill-rule="evenodd"/><path d="M3900 971.262 3965.1 971.262 3965.1 1033.14 3900 1033.14Z" fill="#FFFFFF" fill-rule="evenodd"/><path d="M2259.9 1033.14 2337.58 1033.14 2337.58 1342.51 2259.9 1342.51Z" fill="#A5A5A5" fill-rule="evenodd" fill-opacity="0.2"/><path d="M2337.58 1033.14 2402.68 1033.14 2402.68 1095.01 2337.58 1095.01Z" fill="#FFFFFF" fill-rule="evenodd"/><path d="M2402.68 1033.14 2467.78 1033.14 2467.78 1095.01 2402.68 1095.01Z" fill="#FFFFFF" fill-rule="evenodd"/><path d="M2467.78 1033.14 2532.88 1033.14 2532.88 1095.01 2467.78 1095.01Z" fill="#FFFFFF" fill-rule="evenodd"/><path d="M2532.88 1033.14 2597.98 1033.14 2597.98 1095.01 2532.88 1095.01Z" fill="#FFFFFF" fill-rule="evenodd"/><path d="M2597.98 1033.14 2663.08 1033.14 2663.08 1095.01 2597.98 1095.01Z" fill="#FFFFFF" fill-rule="evenodd"/><path d="M2663.08 1033.14 2728.18 1033.14 2728.18 1095.01 2663.08 1095.01Z" fill="#FFFFFF" fill-rule="evenodd"/><path d="M2728.18 1033.14 2793.28 1033.14 2793.28 1095.01 2728.18 1095.01Z" fill="#FFFFFF" fill-rule="evenodd"/><path d="M2793.28 1033.14 2858.38 1033.14 2858.38 1095.01 2793.28 1095.01Z" fill="#FFFFFF" fill-rule="evenodd"/><path d="M2858.38 1033.14 2923.49 1033.14 2923.49 1095.01 2858.38 1095.01Z" fill="#FFFFFF" fill-rule="evenodd"/><path d="M2923.49 1033.14 2988.59 1033.14 2988.59 1095.01 2923.49 1095.01Z" fill="#FFFFFF" fill-rule="evenodd"/><path d="M2988.59 1033.14 3053.69 1033.14 3053.69 1095.01 2988.59 1095.01Z" fill="#FFFFFF" fill-rule="evenodd"/><path d="M3053.69 1033.14 3118.79 1033.14 3118.79 1095.01 3053.69 1095.01Z" fill="#FFFFFF" fill-rule="evenodd"/><path d="M3118.79 1033.14 3183.89 1033.14 3183.89 1095.01 3118.79 1095.01Z" fill="#FFFFFF" fill-rule="evenodd"/><path d="M3183.89 1033.14 3248.99 1033.14 3248.99 1095.01 3183.89 1095.01Z" fill="#FFFFFF" fill-rule="evenodd"/><path d="M3248.99 1033.14 3314.09 1033.14 3314.09 1095.01 3248.99 1095.01Z" fill="#FFFFFF" fill-rule="evenodd"/><path d="M3314.09 1033.14 3379.19 1033.14 3379.19 1095.01 3314.09 1095.01Z" fill="#FFFFFF" fill-rule="evenodd"/><path d="M3379.19 1033.14 3444.29 1033.14 3444.29 1095.01 3379.19 1095.01Z" fill="#FFFFFF" fill-rule="evenodd"/><path d="M3444.29 1033.14 3509.4 1033.14 3509.4 1095.01 3444.29 1095.01Z" fill="#FFFFFF" fill-rule="evenodd"/><path d="M3509.4 1033.14 3574.5 1033.14 3574.5 1095.01 3509.4 1095.01Z" fill="#FFFFFF" fill-rule="evenodd"/><path d="M3574.5 1033.14 3639.6 1033.14 3639.6 1095.01 3574.5 1095.01Z" fill="#FFFFFF" fill-rule="evenodd"/><path d="M3639.6 1033.14 3704.7 1033.14 3704.7 1095.01 3639.6 1095.01Z" fill="#FFFFFF" fill-rule="evenodd"/><path d="M3704.7 1033.14 3769.8 1033.14 3769.8 1095.01 3704.7 1095.01Z" fill="#FFFFFF" fill-rule="evenodd"/><path d="M3769.8 1033.14 3834.9 1033.14 3834.9 1095.01 3769.8 1095.01Z" fill="#FFFFFF" fill-rule="evenodd"/><path d="M3834.9 1033.14 3900 1033.14 3900 1095.01 3834.9 1095.01Z" fill="#FFFFFF" fill-rule="evenodd"/><path d="M3900 1033.14 3965.1 1033.14 3965.1 1095.01 3900 1095.01Z" fill="#FFFFFF" fill-rule="evenodd"/><path d="M2337.58 1095.01 2402.68 1095.01 2402.68 1156.89 2337.58 1156.89Z" fill="#FFFFFF" fill-rule="evenodd"/><path d="M2402.68 1095.01 2467.78 1095.01 2467.78 1156.89 2402.68 1156.89Z" fill="#FFFFFF" fill-rule="evenodd"/><path d="M2467.78 1095.01 2532.88 1095.01 2532.88 1156.89 2467.78 1156.89Z" fill="#FFFFFF" fill-rule="evenodd"/><path d="M2532.88 1095.01 2597.98 1095.01 2597.98 1156.89 2532.88 1156.89Z" fill="#FFFFFF" fill-rule="evenodd"/><path d="M2597.98 1095.01 2663.08 1095.01 2663.08 1156.89 2597.98 1156.89Z" fill="#FFFFFF" fill-rule="evenodd"/><path d="M2663.08 1095.01 2728.18 1095.01 2728.18 1156.89 2663.08 1156.89Z" fill="#FFFFFF" fill-rule="evenodd"/><path d="M2728.18 1095.01 2793.28 1095.01 2793.28 1156.89 2728.18 1156.89Z" fill="#FFFFFF" fill-rule="evenodd"/><path d="M2793.28 1095.01 2858.38 1095.01 2858.38 1156.89 2793.28 1156.89Z" fill="#FFFFFF" fill-rule="evenodd"/><path d="M2858.38 1095.01 2923.49 1095.01 2923.49 1156.89 2858.38 1156.89Z" fill="#FFFFFF" fill-rule="evenodd"/><path d="M2923.49 1095.01 2988.59 1095.01 2988.59 1156.89 2923.49 1156.89Z" fill="#FFFFFF" fill-rule="evenodd"/><path d="M2988.59 1095.01 3053.69 1095.01 3053.69 1156.89 2988.59 1156.89Z" fill="#FFFFFF" fill-rule="evenodd"/><path d="M3053.69 1095.01 3118.79 1095.01 3118.79 1156.89 3053.69 1156.89Z" fill="#FFFFFF" fill-rule="evenodd"/><path d="M3118.79 1095.01 3183.89 1095.01 3183.89 1156.89 3118.79 1156.89Z" fill="#FFFFFF" fill-rule="evenodd"/><path d="M3183.89 1095.01 3248.99 1095.01 3248.99 1156.89 3183.89 1156.89Z" fill="#FFFFFF" fill-rule="evenodd"/><path d="M3248.99 1095.01 3314.09 1095.01 3314.09 1156.89 3248.99 1156.89Z" fill="#FFFFFF" fill-rule="evenodd"/><path d="M3314.09 1095.01 3379.19 1095.01 3379.19 1156.89 3314.09 1156.89Z" fill="#FFFFFF" fill-rule="evenodd"/><path d="M3379.19 1095.01 3444.29 1095.01 3444.29 1156.89 3379.19 1156.89Z" fill="#FFFFFF" fill-rule="evenodd"/><path d="M3444.29 1095.01 3509.4 1095.01 3509.4 1156.89 3444.29 1156.89Z" fill="#FFFFFF" fill-rule="evenodd"/><path d="M3509.4 1095.01 3574.5 1095.01 3574.5 1156.89 3509.4 1156.89Z" fill="#FFFFFF" fill-rule="evenodd"/><path d="M3574.5 1095.01 3639.6 1095.01 3639.6 1156.89 3574.5 1156.89Z" fill="#FFFFFF" fill-rule="evenodd"/><path d="M3639.6 1095.01 3704.7 1095.01 3704.7 1156.89 3639.6 1156.89Z" fill="#FFFFFF" fill-rule="evenodd"/><path d="M3704.7 1095.01 3769.8 1095.01 3769.8 1156.89 3704.7 1156.89Z" fill="#FFFFFF" fill-rule="evenodd"/><path d="M3769.8 1095.01 3834.9 1095.01 3834.9 1156.89 3769.8 1156.89Z" fill="#FFFFFF" fill-rule="evenodd"/><path d="M3834.9 1095.01 3900 1095.01 3900 1156.89 3834.9 1156.89Z" fill="#FFFFFF" fill-rule="evenodd"/><path d="M3900 1095.01 3965.1 1095.01 3965.1 1156.89 3900 1156.89Z" fill="#FFFFFF" fill-rule="evenodd"/><path d="M2337.58 1156.89 2402.68 1156.89 2402.68 1218.76 2337.58 1218.76Z" fill="#FFFFFF" fill-rule="evenodd"/><path d="M2402.68 1156.89 2467.78 1156.89 2467.78 1218.76 2402.68 1218.76Z" fill="#FFFFFF" fill-rule="evenodd"/><path d="M2467.78 1156.89 2532.88 1156.89 2532.88 1218.76 2467.78 1218.76Z" fill="#FFFFFF" fill-rule="evenodd"/><path d="M2532.88 1156.89 2597.98 1156.89 2597.98 1218.76 2532.88 1218.76Z" fill="#FFFFFF" fill-rule="evenodd"/><path d="M2597.98 1156.89 2663.08 1156.89 2663.08 1218.76 2597.98 1218.76Z" fill="#FFFFFF" fill-rule="evenodd"/><path d="M2663.08 1156.89 2728.18 1156.89 2728.18 1218.76 2663.08 1218.76Z" fill="#FFFFFF" fill-rule="evenodd"/><path d="M2728.18 1156.89 2793.28 1156.89 2793.28 1218.76 2728.18 1218.76Z" fill="#FFFFFF" fill-rule="evenodd"/><path d="M2793.28 1156.89 2858.38 1156.89 2858.38 1218.76 2793.28 1218.76Z" fill="#FFFFFF" fill-rule="evenodd"/><path d="M2858.38 1156.89 2923.49 1156.89 2923.49 1218.76 2858.38 1218.76Z" fill="#FFFFFF" fill-rule="evenodd"/><path d="M2923.49 1156.89 2988.59 1156.89 2988.59 1218.76 2923.49 1218.76Z" fill="#FFFFFF" fill-rule="evenodd"/><path d="M2988.59 1156.89 3053.69 1156.89 3053.69 1218.76 2988.59 1218.76Z" fill="#FFFFFF" fill-rule="evenodd"/><path d="M3053.69 1156.89 3118.79 1156.89 3118.79 1218.76 3053.69 1218.76Z" fill="#FFFFFF" fill-rule="evenodd"/><path d="M3118.79 1156.89 3183.89 1156.89 3183.89 1218.76 3118.79 1218.76Z" fill="#FFFFFF" fill-rule="evenodd"/><path d="M3183.89 1156.89 3248.99 1156.89 3248.99 1218.76 3183.89 1218.76Z" fill="#FFFFFF" fill-rule="evenodd"/><path d="M3248.99 1156.89 3314.09 1156.89 3314.09 1218.76 3248.99 1218.76Z" fill="#FFFFFF" fill-rule="evenodd"/><path d="M3314.09 1156.89 3379.19 1156.89 3379.19 1218.76 3314.09 1218.76Z" fill="#FFFFFF" fill-rule="evenodd"/><path d="M3379.19 1156.89 3444.29 1156.89 3444.29 1218.76 3379.19 1218.76Z" fill="#FFFFFF" fill-rule="evenodd"/><path d="M3444.29 1156.89 3509.4 1156.89 3509.4 1218.76 3444.29 1218.76Z" fill="#FFFFFF" fill-rule="evenodd"/><path d="M3509.4 1156.89 3574.5 1156.89 3574.5 1218.76 3509.4 1218.76Z" fill="#FFFFFF" fill-rule="evenodd"/><path d="M3574.5 1156.89 3639.6 1156.89 3639.6 1218.76 3574.5 1218.76Z" fill="#FFFFFF" fill-rule="evenodd"/><path d="M3639.6 1156.89 3704.7 1156.89 3704.7 1218.76 3639.6 1218.76Z" fill="#FFFFFF" fill-rule="evenodd"/><path d="M3704.7 1156.89 3769.8 1156.89 3769.8 1218.76 3704.7 1218.76Z" fill="#FFFFFF" fill-rule="evenodd"/><path d="M3769.8 1156.89 3834.9 1156.89 3834.9 1218.76 3769.8 1218.76Z" fill="#FFFFFF" fill-rule="evenodd"/><path d="M3834.9 1156.89 3900 1156.89 3900 1218.76 3834.9 1218.76Z" fill="#FFFFFF" fill-rule="evenodd"/><path d="M3900 1156.89 3965.1 1156.89 3965.1 1218.76 3900 1218.76Z" fill="#FFFFFF" fill-rule="evenodd"/><path d="M2337.58 1218.76 2402.68 1218.76 2402.68 1280.64 2337.58 1280.64Z" fill="#FFFFFF" fill-rule="evenodd"/><path d="M2402.68 1218.76 2467.78 1218.76 2467.78 1280.64 2402.68 1280.64Z" fill="#FFFFFF" fill-rule="evenodd"/><path d="M2467.78 1218.76 2532.88 1218.76 2532.88 1280.64 2467.78 1280.64Z" fill="#FFFFFF" fill-rule="evenodd"/><path d="M2532.88 1218.76 2597.98 1218.76 2597.98 1280.64 2532.88 1280.64Z" fill="#FFFFFF" fill-rule="evenodd"/><path d="M2597.98 1218.76 2663.08 1218.76 2663.08 1280.64 2597.98 1280.64Z" fill="#FFFFFF" fill-rule="evenodd"/><path d="M2663.08 1218.76 2728.18 1218.76 2728.18 1280.64 2663.08 1280.64Z" fill="#FFFFFF" fill-rule="evenodd"/><path d="M2728.18 1218.76 2793.28 1218.76 2793.28 1280.64 2728.18 1280.64Z" fill="#FFFFFF" fill-rule="evenodd"/><path d="M2793.28 1218.76 2858.38 1218.76 2858.38 1280.64 2793.28 1280.64Z" fill="#FFFFFF" fill-rule="evenodd"/><path d="M2858.38 1218.76 2923.49 1218.76 2923.49 1280.64 2858.38 1280.64Z" fill="#FFFFFF" fill-rule="evenodd"/><path d="M2923.49 1218.76 2988.59 1218.76 2988.59 1280.64 2923.49 1280.64Z" fill="#FFFFFF" fill-rule="evenodd"/><path d="M2988.59 1218.76 3053.69 1218.76 3053.69 1280.64 2988.59 1280.64Z" fill="#FFFFFF" fill-rule="evenodd"/><path d="M3053.69 1218.76 3118.79 1218.76 3118.79 1280.64 3053.69 1280.64Z" fill="#FFFFFF" fill-rule="evenodd"/><path d="M3118.79 1218.76 3183.89 1218.76 3183.89 1280.64 3118.79 1280.64Z" fill="#FFFFFF" fill-rule="evenodd"/><path d="M3183.89 1218.76 3248.99 1218.76 3248.99 1280.64 3183.89 1280.64Z" fill="#FFFFFF" fill-rule="evenodd"/><path d="M3248.99 1218.76 3314.09 1218.76 3314.09 1280.64 3248.99 1280.64Z" fill="#FFFFFF" fill-rule="evenodd"/><path d="M3314.09 1218.76 3379.19 1218.76 3379.19 1280.64 3314.09 1280.64Z" fill="#FFFFFF" fill-rule="evenodd"/><path d="M3379.19 1218.76 3444.29 1218.76 3444.29 1280.64 3379.19 1280.64Z" fill="#FFFFFF" fill-rule="evenodd"/><path d="M3444.29 1218.76 3509.4 1218.76 3509.4 1280.64 3444.29 1280.64Z" fill="#FFFFFF" fill-rule="evenodd"/><path d="M3509.4 1218.76 3574.5 1218.76 3574.5 1280.64 3509.4 1280.64Z" fill="#FFFFFF" fill-rule="evenodd"/><path d="M3574.5 1218.76 3639.6 1218.76 3639.6 1280.64 3574.5 1280.64Z" fill="#FFFFFF" fill-rule="evenodd"/><path d="M3639.6 1218.76 3704.7 1218.76 3704.7 1280.64 3639.6 1280.64Z" fill="#FFFFFF" fill-rule="evenodd"/><path d="M3704.7 1218.76 3769.8 1218.76 3769.8 1280.64 3704.7 1280.64Z" fill="#FFFFFF" fill-rule="evenodd"/><path d="M3769.8 1218.76 3834.9 1218.76 3834.9 1280.64 3769.8 1280.64Z" fill="#FFFFFF" fill-rule="evenodd"/><path d="M3834.9 1218.76 3900 1218.76 3900 1280.64 3834.9 1280.64Z" fill="#FFFFFF" fill-rule="evenodd"/><path d="M3900 1218.76 3965.1 1218.76 3965.1 1280.64 3900 1280.64Z" fill="#FFFFFF" fill-rule="evenodd"/><path d="M2337.58 1280.64 2402.68 1280.64 2402.68 1342.51 2337.58 1342.51Z" fill="#FFFFFF" fill-rule="evenodd"/><path d="M2402.68 1280.64 2467.78 1280.64 2467.78 1342.51 2402.68 1342.51Z" fill="#FFFFFF" fill-rule="evenodd"/><path d="M2467.78 1280.64 2532.88 1280.64 2532.88 1342.51 2467.78 1342.51Z" fill="#FFFFFF" fill-rule="evenodd"/><path d="M2532.88 1280.64 2597.98 1280.64 2597.98 1342.51 2532.88 1342.51Z" fill="#FFFFFF" fill-rule="evenodd"/><path d="M2597.98 1280.64 2663.08 1280.64 2663.08 1342.51 2597.98 1342.51Z" fill="#FFFFFF" fill-rule="evenodd"/><path d="M2663.08 1280.64 2728.18 1280.64 2728.18 1342.51 2663.08 1342.51Z" fill="#FFFFFF" fill-rule="evenodd"/><path d="M2728.18 1280.64 2793.28 1280.64 2793.28 1342.51 2728.18 1342.51Z" fill="#FFFFFF" fill-rule="evenodd"/><path d="M2793.28 1280.64 2858.38 1280.64 2858.38 1342.51 2793.28 1342.51Z" fill="#FFFFFF" fill-rule="evenodd"/><path d="M2858.38 1280.64 2923.49 1280.64 2923.49 1342.51 2858.38 1342.51Z" fill="#FFFFFF" fill-rule="evenodd"/><path d="M2923.49 1280.64 2988.59 1280.64 2988.59 1342.51 2923.49 1342.51Z" fill="#FFFFFF" fill-rule="evenodd"/><path d="M2988.59 1280.64 3053.69 1280.64 3053.69 1342.51 2988.59 1342.51Z" fill="#FFFFFF" fill-rule="evenodd"/><path d="M3053.69 1280.64 3118.79 1280.64 3118.79 1342.51 3053.69 1342.51Z" fill="#FFFFFF" fill-rule="evenodd"/><path d="M3118.79 1280.64 3183.89 1280.64 3183.89 1342.51 3118.79 1342.51Z" fill="#FFFFFF" fill-rule="evenodd"/><path d="M3183.89 1280.64 3248.99 1280.64 3248.99 1342.51 3183.89 1342.51Z" fill="#FFFFFF" fill-rule="evenodd"/><path d="M3248.99 1280.64 3314.09 1280.64 3314.09 1342.51 3248.99 1342.51Z" fill="#FFFFFF" fill-rule="evenodd"/><path d="M3314.09 1280.64 3379.19 1280.64 3379.19 1342.51 3314.09 1342.51Z" fill="#FFFFFF" fill-rule="evenodd"/><path d="M3379.19 1280.64 3444.29 1280.64 3444.29 1342.51 3379.19 1342.51Z" fill="#FFFFFF" fill-rule="evenodd"/><path d="M3444.29 1280.64 3509.4 1280.64 3509.4 1342.51 3444.29 1342.51Z" fill="#FFFFFF" fill-rule="evenodd"/><path d="M3509.4 1280.64 3574.5 1280.64 3574.5 1342.51 3509.4 1342.51Z" fill="#FFFFFF" fill-rule="evenodd"/><path d="M3574.5 1280.64 3639.6 1280.64 3639.6 1342.51 3574.5 1342.51Z" fill="#FFFFFF" fill-rule="evenodd"/><path d="M3639.6 1280.64 3704.7 1280.64 3704.7 1342.51 3639.6 1342.51Z" fill="#FFFFFF" fill-rule="evenodd"/><path d="M3704.7 1280.64 3769.8 1280.64 3769.8 1342.51 3704.7 1342.51Z" fill="#FFFFFF" fill-rule="evenodd"/><path d="M3769.8 1280.64 3834.9 1280.64 3834.9 1342.51 3769.8 1342.51Z" fill="#FFFFFF" fill-rule="evenodd"/><path d="M3834.9 1280.64 3900 1280.64 3900 1342.51 3834.9 1342.51Z" fill="#FFFFFF" fill-rule="evenodd"/><path d="M3900 1280.64 3965.1 1280.64 3965.1 1342.51 3900 1342.51Z" fill="#FFFFFF" fill-rule="evenodd"/><path d="M2337.58 1342.51 2402.68 1342.51 2402.68 1404.39 2337.58 1404.39Z" fill="#FFFFFF" fill-rule="evenodd"/><path d="M2402.68 1342.51 2467.78 1342.51 2467.78 1404.39 2402.68 1404.39Z" fill="#FFFFFF" fill-rule="evenodd"/><path d="M2467.78 1342.51 2532.88 1342.51 2532.88 1404.39 2467.78 1404.39Z" fill="#FFFFFF" fill-rule="evenodd"/><path d="M2532.88 1342.51 2597.98 1342.51 2597.98 1404.39 2532.88 1404.39Z" fill="#FFFFFF" fill-rule="evenodd"/><path d="M2597.98 1342.51 2663.08 1342.51 2663.08 1404.39 2597.98 1404.39Z" fill="#FFFFFF" fill-rule="evenodd"/><path d="M2663.08 1342.51 2728.18 1342.51 2728.18 1404.39 2663.08 1404.39Z" fill="#FFFFFF" fill-rule="evenodd"/><path d="M2728.18 1342.51 2793.28 1342.51 2793.28 1404.39 2728.18 1404.39Z" fill="#FFFFFF" fill-rule="evenodd"/><path d="M2793.28 1342.51 2858.38 1342.51 2858.38 1404.39 2793.28 1404.39Z" fill="#FFFFFF" fill-rule="evenodd"/><path d="M2858.38 1342.51 2923.49 1342.51 2923.49 1404.39 2858.38 1404.39Z" fill="#FFFFFF" fill-rule="evenodd"/><path d="M2923.49 1342.51 2988.59 1342.51 2988.59 1404.39 2923.49 1404.39Z" fill="#FFFFFF" fill-rule="evenodd"/><path d="M2988.59 1342.51 3053.69 1342.51 3053.69 1404.39 2988.59 1404.39Z" fill="#FFFFFF" fill-rule="evenodd"/><path d="M3053.69 1342.51 3118.79 1342.51 3118.79 1404.39 3053.69 1404.39Z" fill="#FFFFFF" fill-rule="evenodd"/><path d="M3118.79 1342.51 3183.89 1342.51 3183.89 1404.39 3118.79 1404.39Z" fill="#FFFFFF" fill-rule="evenodd"/><path d="M3183.89 1342.51 3248.99 1342.51 3248.99 1404.39 3183.89 1404.39Z" fill="#FFFFFF" fill-rule="evenodd"/><path d="M3248.99 1342.51 3314.09 1342.51 3314.09 1404.39 3248.99 1404.39Z" fill="#FFFFFF" fill-rule="evenodd"/><path d="M3314.09 1342.51 3379.19 1342.51 3379.19 1404.39 3314.09 1404.39Z" fill="#FFFFFF" fill-rule="evenodd"/><path d="M3379.19 1342.51 3444.29 1342.51 3444.29 1404.39 3379.19 1404.39Z" fill="#FFFFFF" fill-rule="evenodd"/><path d="M3444.29 1342.51 3509.4 1342.51 3509.4 1404.39 3444.29 1404.39Z" fill="#FFFFFF" fill-rule="evenodd"/><path d="M3509.4 1342.51 3574.5 1342.51 3574.5 1404.39 3509.4 1404.39Z" fill="#FFFFFF" fill-rule="evenodd"/><path d="M3574.5 1342.51 3639.6 1342.51 3639.6 1404.39 3574.5 1404.39Z" fill="#FFFFFF" fill-rule="evenodd"/><path d="M3639.6 1342.51 3704.7 1342.51 3704.7 1404.39 3639.6 1404.39Z" fill="#FFFFFF" fill-rule="evenodd"/><path d="M3704.7 1342.51 3769.8 1342.51 3769.8 1404.39 3704.7 1404.39Z" fill="#FFFFFF" fill-rule="evenodd"/><path d="M3769.8 1342.51 3834.9 1342.51 3834.9 1404.39 3769.8 1404.39Z" fill="#FFFFFF" fill-rule="evenodd"/><path d="M3834.9 1342.51 3900 1342.51 3900 1404.39 3834.9 1404.39Z" fill="#FFFFFF" fill-rule="evenodd"/><path d="M3900 1342.51 3965.1 1342.51 3965.1 1404.39 3900 1404.39Z" fill="#FFFFFF" fill-rule="evenodd"/><path d="M2337.58 1404.39 2402.68 1404.39 2402.68 1466.26 2337.58 1466.26Z" fill="#FFFFFF" fill-rule="evenodd"/><path d="M2402.68 1404.39 2467.78 1404.39 2467.78 1466.26 2402.68 1466.26Z" fill="#FFFFFF" fill-rule="evenodd"/><path d="M2467.78 1404.39 2532.88 1404.39 2532.88 1466.26 2467.78 1466.26Z" fill="#FFFFFF" fill-rule="evenodd"/><path d="M2532.88 1404.39 2597.98 1404.39 2597.98 1466.26 2532.88 1466.26Z" fill="#FFFFFF" fill-rule="evenodd"/><path d="M2597.98 1404.39 2663.08 1404.39 2663.08 1466.26 2597.98 1466.26Z" fill="#FFFFFF" fill-rule="evenodd"/><path d="M2663.08 1404.39 2728.18 1404.39 2728.18 1466.26 2663.08 1466.26Z" fill="#FFFFFF" fill-rule="evenodd"/><path d="M2728.18 1404.39 2793.28 1404.39 2793.28 1466.26 2728.18 1466.26Z" fill="#FFFFFF" fill-rule="evenodd"/><path d="M2793.28 1404.39 2858.38 1404.39 2858.38 1466.26 2793.28 1466.26Z" fill="#FFFFFF" fill-rule="evenodd"/><path d="M2858.38 1404.39 2923.49 1404.39 2923.49 1466.26 2858.38 1466.26Z" fill="#FFFFFF" fill-rule="evenodd"/><path d="M2923.49 1404.39 2988.59 1404.39 2988.59 1466.26 2923.49 1466.26Z" fill="#FFFFFF" fill-rule="evenodd"/><path d="M2988.59 1404.39 3053.69 1404.39 3053.69 1466.26 2988.59 1466.26Z" fill="#FFFFFF" fill-rule="evenodd"/><path d="M3053.69 1404.39 3118.79 1404.39 3118.79 1466.26 3053.69 1466.26Z" fill="#FFFFFF" fill-rule="evenodd"/><path d="M3118.79 1404.39 3183.89 1404.39 3183.89 1466.26 3118.79 1466.26Z" fill="#FFFFFF" fill-rule="evenodd"/><path d="M3183.89 1404.39 3248.99 1404.39 3248.99 1466.26 3183.89 1466.26Z" fill="#FFFFFF" fill-rule="evenodd"/><path d="M3248.99 1404.39 3314.09 1404.39 3314.09 1466.26 3248.99 1466.26Z" fill="#FFFFFF" fill-rule="evenodd"/><path d="M3314.09 1404.39 3379.19 1404.39 3379.19 1466.26 3314.09 1466.26Z" fill="#FFFFFF" fill-rule="evenodd"/><path d="M3379.19 1404.39 3444.29 1404.39 3444.29 1466.26 3379.19 1466.26Z" fill-rule="evenodd"/><path d="M3444.29 1404.39 3509.4 1404.39 3509.4 1466.26 3444.29 1466.26Z" fill-rule="evenodd"/><path d="M3509.4 1404.39 3574.5 1404.39 3574.5 1466.26 3509.4 1466.26Z" fill-rule="evenodd"/><path d="M3574.5 1404.39 3639.6 1404.39 3639.6 1466.26 3574.5 1466.26Z" fill-rule="evenodd"/><path d="M3639.6 1404.39 3704.7 1404.39 3704.7 1466.26 3639.6 1466.26Z" fill-rule="evenodd"/><path d="M3704.7 1404.39 3769.8 1404.39 3769.8 1466.26 3704.7 1466.26Z" fill="#FFFFFF" fill-rule="evenodd"/><path d="M3769.8 1404.39 3834.9 1404.39 3834.9 1466.26 3769.8 1466.26Z" fill="#FFFFFF" fill-rule="evenodd"/><path d="M3834.9 1404.39 3900 1404.39 3900 1466.26 3834.9 1466.26Z" fill="#FFFFFF" fill-rule="evenodd"/><path d="M3900 1404.39 3965.1 1404.39 3965.1 1466.26 3900 1466.26Z" fill="#FFFFFF" fill-rule="evenodd"/><path d="M2337.58 1466.26 2402.68 1466.26 2402.68 1528.14 2337.58 1528.14Z" fill="#FFFFFF" fill-rule="evenodd"/><path d="M2402.68 1466.26 2467.78 1466.26 2467.78 1528.14 2402.68 1528.14Z" fill="#FFFFFF" fill-rule="evenodd"/><path d="M2467.78 1466.26 2532.88 1466.26 2532.88 1528.14 2467.78 1528.14Z" fill="#FFFFFF" fill-rule="evenodd"/><path d="M2532.88 1466.26 2597.98 1466.26 2597.98 1528.14 2532.88 1528.14Z" fill="#FFFFFF" fill-rule="evenodd"/><path d="M2597.98 1466.26 2663.08 1466.26 2663.08 1528.14 2597.98 1528.14Z" fill="#FFFFFF" fill-rule="evenodd"/><path d="M2663.08 1466.26 2728.18 1466.26 2728.18 1528.14 2663.08 1528.14Z" fill="#FFFFFF" fill-rule="evenodd"/><path d="M2728.18 1466.26 2793.28 1466.26 2793.28 1528.14 2728.18 1528.14Z" fill="#FFFFFF" fill-rule="evenodd"/><path d="M2793.28 1466.26 2858.38 1466.26 2858.38 1528.14 2793.28 1528.14Z" fill="#FFFFFF" fill-rule="evenodd"/><path d="M2858.38 1466.26 2923.49 1466.26 2923.49 1528.14 2858.38 1528.14Z" fill="#FFFFFF" fill-rule="evenodd"/><path d="M2923.49 1466.26 2988.59 1466.26 2988.59 1528.14 2923.49 1528.14Z" fill="#FFFFFF" fill-rule="evenodd"/><path d="M2988.59 1466.26 3053.69 1466.26 3053.69 1528.14 2988.59 1528.14Z" fill="#FFFFFF" fill-rule="evenodd"/><path d="M3053.69 1466.26 3118.79 1466.26 3118.79 1528.14 3053.69 1528.14Z" fill="#FFFFFF" fill-rule="evenodd"/><path d="M3118.79 1466.26 3183.89 1466.26 3183.89 1528.14 3118.79 1528.14Z" fill="#FFFFFF" fill-rule="evenodd"/><path d="M3183.89 1466.26 3248.99 1466.26 3248.99 1528.14 3183.89 1528.14Z" fill="#FFFFFF" fill-rule="evenodd"/><path d="M3248.99 1466.26 3314.09 1466.26 3314.09 1528.14 3248.99 1528.14Z" fill="#FFFFFF" fill-rule="evenodd"/><path d="M3314.09 1466.26 3379.19 1466.26 3379.19 1528.14 3314.09 1528.14Z" fill="#FFFFFF" fill-rule="evenodd"/><path d="M3379.19 1466.26 3444.29 1466.26 3444.29 1528.14 3379.19 1528.14Z" fill-rule="evenodd"/><path d="M3444.29 1466.26 3509.4 1466.26 3509.4 1528.14 3444.29 1528.14Z" fill="#FFFFFF" fill-rule="evenodd"/><path d="M3509.4 1466.26 3574.5 1466.26 3574.5 1528.14 3509.4 1528.14Z" fill="#FFFFFF" fill-rule="evenodd"/><path d="M3574.5 1466.26 3639.6 1466.26 3639.6 1528.14 3574.5 1528.14Z" fill="#FFFFFF" fill-rule="evenodd"/><path d="M3639.6 1466.26 3704.7 1466.26 3704.7 1528.14 3639.6 1528.14Z" fill-rule="evenodd"/><path d="M3704.7 1466.26 3769.8 1466.26 3769.8 1528.14 3704.7 1528.14Z" fill="#FFFFFF" fill-rule="evenodd"/><path d="M3769.8 1466.26 3834.9 1466.26 3834.9 1528.14 3769.8 1528.14Z" fill="#FFFFFF" fill-rule="evenodd"/><path d="M3834.9 1466.26 3900 1466.26 3900 1528.14 3834.9 1528.14Z" fill="#FFFFFF" fill-rule="evenodd"/><path d="M3900 1466.26 3965.1 1466.26 3965.1 1528.14 3900 1528.14Z" fill="#FFFFFF" fill-rule="evenodd"/><path d="M2337.58 1528.14 2402.68 1528.14 2402.68 1590.01 2337.58 1590.01Z" fill-rule="evenodd"/><path d="M2402.68 1528.14 2467.78 1528.14 2467.78 1590.01 2402.68 1590.01Z" fill-rule="evenodd"/><path d="M2467.78 1528.14 2532.88 1528.14 2532.88 1590.01 2467.78 1590.01Z" fill-rule="evenodd"/><path d="M2532.88 1528.14 2597.98 1528.14 2597.98 1590.01 2532.88 1590.01Z" fill-rule="evenodd"/><path d="M2597.98 1528.14 2663.08 1528.14 2663.08 1590.01 2597.98 1590.01Z" fill-rule="evenodd"/><path d="M2663.08 1528.14 2728.18 1528.14 2728.18 1590.01 2663.08 1590.01Z" fill-rule="evenodd"/><path d="M2728.18 1528.14 2793.28 1528.14 2793.28 1590.01 2728.18 1590.01Z" fill-rule="evenodd"/><path d="M2793.28 1528.14 2858.38 1528.14 2858.38 1590.01 2793.28 1590.01Z" fill="#FFFFFF" fill-rule="evenodd"/><path d="M2858.38 1528.14 2923.49 1528.14 2923.49 1590.01 2858.38 1590.01Z" fill="#FFFFFF" fill-rule="evenodd"/><path d="M2923.49 1528.14 2988.59 1528.14 2988.59 1590.01 2923.49 1590.01Z" fill="#FFFFFF" fill-rule="evenodd"/><path d="M2988.59 1528.14 3053.69 1528.14 3053.69 1590.01 2988.59 1590.01Z" fill="#FFFFFF" fill-rule="evenodd"/><path d="M3053.69 1528.14 3118.79 1528.14 3118.79 1590.01 3053.69 1590.01Z" fill="#FFFFFF" fill-rule="evenodd"/><path d="M3118.79 1528.14 3183.89 1528.14 3183.89 1590.01 3118.79 1590.01Z" fill="#FFFFFF" fill-rule="evenodd"/><path d="M3183.89 1528.14 3248.99 1528.14 3248.99 1590.01 3183.89 1590.01Z" fill="#FFFFFF" fill-rule="evenodd"/><path d="M3248.99 1528.14 3314.09 1528.14 3314.09 1590.01 3248.99 1590.01Z" fill="#FFFFFF" fill-rule="evenodd"/><path d="M3314.09 1528.14 3379.19 1528.14 3379.19 1590.01 3314.09 1590.01Z" fill="#FFFFFF" fill-rule="evenodd"/><path d="M3379.19 1528.14 3444.29 1528.14 3444.29 1590.01 3379.19 1590.01Z" fill-rule="evenodd"/><path d="M3444.29 1528.14 3509.4 1528.14 3509.4 1590.01 3444.29 1590.01Z" fill="#FFFFFF" fill-rule="evenodd"/><path d="M3509.4 1528.14 3574.5 1528.14 3574.5 1590.01 3509.4 1590.01Z" fill-rule="evenodd"/><path d="M3574.5 1528.14 3639.6 1528.14 3639.6 1590.01 3574.5 1590.01Z" fill="#FFFFFF" fill-rule="evenodd"/><path d="M3639.6 1528.14 3704.7 1528.14 3704.7 1590.01 3639.6 1590.01Z" fill-rule="evenodd"/><path d="M3704.7 1528.14 3769.8 1528.14 3769.8 1590.01 3704.7 1590.01Z" fill="#FFFFFF" fill-rule="evenodd"/><path d="M3769.8 1528.14 3834.9 1528.14 3834.9 1590.01 3769.8 1590.01Z" fill="#FFFFFF" fill-rule="evenodd"/><path d="M3834.9 1528.14 3900 1528.14 3900 1590.01 3834.9 1590.01Z" fill="#FFFFFF" fill-rule="evenodd"/><path d="M3900 1528.14 3965.1 1528.14 3965.1 1590.01 3900 1590.01Z" fill="#FFFFFF" fill-rule="evenodd"/><path d="M2337.58 1590.01 2402.68 1590.01 2402.68 1651.89 2337.58 1651.89Z" fill-rule="evenodd"/><path d="M2402.68 1590.01 2467.78 1590.01 2467.78 1651.89 2402.68 1651.89Z" fill="#FFFFFF" fill-rule="evenodd"/><path d="M2467.78 1590.01 2532.88 1590.01 2532.88 1651.89 2467.78 1651.89Z" fill="#FFFFFF" fill-rule="evenodd"/><path d="M2532.88 1590.01 2597.98 1590.01 2597.98 1651.89 2532.88 1651.89Z" fill="#FFFFFF" fill-rule="evenodd"/><path d="M2597.98 1590.01 2663.08 1590.01 2663.08 1651.89 2597.98 1651.89Z" fill="#FFFFFF" fill-rule="evenodd"/><path d="M2663.08 1590.01 2728.18 1590.01 2728.18 1651.89 2663.08 1651.89Z" fill="#FFFFFF" fill-rule="evenodd"/><path d="M2728.18 1590.01 2793.28 1590.01 2793.28 1651.89 2728.18 1651.89Z" fill-rule="evenodd"/><path d="M2793.28 1590.01 2858.38 1590.01 2858.38 1651.89 2793.28 1651.89Z" fill="#FFFFFF" fill-rule="evenodd"/><path d="M2858.38 1590.01 2923.49 1590.01 2923.49 1651.89 2858.38 1651.89Z" fill="#FFFFFF" fill-rule="evenodd"/><path d="M2923.49 1590.01 2988.59 1590.01 2988.59 1651.89 2923.49 1651.89Z" fill="#FFFFFF" fill-rule="evenodd"/><path d="M2988.59 1590.01 3053.69 1590.01 3053.69 1651.89 2988.59 1651.89Z" fill="#FFFFFF" fill-rule="evenodd"/><path d="M3053.69 1590.01 3118.79 1590.01 3118.79 1651.89 3053.69 1651.89Z" fill="#FFFFFF" fill-rule="evenodd"/><path d="M3118.79 1590.01 3183.89 1590.01 3183.89 1651.89 3118.79 1651.89Z" fill="#FFFFFF" fill-rule="evenodd"/><path d="M3183.89 1590.01 3248.99 1590.01 3248.99 1651.89 3183.89 1651.89Z" fill="#FFFFFF" fill-rule="evenodd"/><path d="M3248.99 1590.01 3314.09 1590.01 3314.09 1651.89 3248.99 1651.89Z" fill="#FFFFFF" fill-rule="evenodd"/><path d="M3314.09 1590.01 3379.19 1590.01 3379.19 1651.89 3314.09 1651.89Z" fill="#FFFFFF" fill-rule="evenodd"/><path d="M3379.19 1590.01 3444.29 1590.01 3444.29 1651.89 3379.19 1651.89Z" fill-rule="evenodd"/><path d="M3444.29 1590.01 3509.4 1590.01 3509.4 1651.89 3444.29 1651.89Z" fill="#FFFFFF" fill-rule="evenodd"/><path d="M3509.4 1590.01 3574.5 1590.01 3574.5 1651.89 3509.4 1651.89Z" fill="#FFFFFF" fill-rule="evenodd"/><path d="M3574.5 1590.01 3639.6 1590.01 3639.6 1651.89 3574.5 1651.89Z" fill="#FFFFFF" fill-rule="evenodd"/><path d="M3639.6 1590.01 3704.7 1590.01 3704.7 1651.89 3639.6 1651.89Z" fill-rule="evenodd"/><path d="M3704.7 1590.01 3769.8 1590.01 3769.8 1651.89 3704.7 1651.89Z" fill="#FFFFFF" fill-rule="evenodd"/><path d="M3769.8 1590.01 3834.9 1590.01 3834.9 1651.89 3769.8 1651.89Z" fill="#FFFFFF" fill-rule="evenodd"/><path d="M3834.9 1590.01 3900 1590.01 3900 1651.89 3834.9 1651.89Z" fill="#FFFFFF" fill-rule="evenodd"/><path d="M3900 1590.01 3965.1 1590.01 3965.1 1651.89 3900 1651.89Z" fill="#FFFFFF" fill-rule="evenodd"/><path d="M2259.9 1651.89 2337.58 1651.89 2337.58 1961.26 2259.9 1961.26Z" fill="#A5A5A5" fill-rule="evenodd" fill-opacity="0.2"/><path d="M2337.58 1651.89 2402.68 1651.89 2402.68 1713.76 2337.58 1713.76Z" fill-rule="evenodd"/><path d="M2402.68 1651.89 2467.78 1651.89 2467.78 1713.76 2402.68 1713.76Z" fill="#FFFFFF" fill-rule="evenodd"/><path d="M2467.78 1651.89 2532.88 1651.89 2532.88 1713.76 2467.78 1713.76Z" fill-rule="evenodd"/><path d="M2532.88 1651.89 2597.98 1651.89 2597.98 1713.76 2532.88 1713.76Z" fill-rule="evenodd"/><path d="M2597.98 1651.89 2663.08 1651.89 2663.08 1713.76 2597.98 1713.76Z" fill-rule="evenodd"/><path d="M2663.08 1651.89 2728.18 1651.89 2728.18 1713.76 2663.08 1713.76Z" fill="#FFFFFF" fill-rule="evenodd"/><path d="M2728.18 1651.89 2793.28 1651.89 2793.28 1713.76 2728.18 1713.76Z" fill-rule="evenodd"/><path d="M2793.28 1651.89 2858.38 1651.89 2858.38 1713.76 2793.28 1713.76Z" fill="#FFFFFF" fill-rule="evenodd"/><path d="M2858.38 1651.89 2923.49 1651.89 2923.49 1713.76 2858.38 1713.76Z" fill="#FFFFFF" fill-rule="evenodd"/><path d="M2923.49 1651.89 2988.59 1651.89 2988.59 1713.76 2923.49 1713.76Z" fill="#FFFFFF" fill-rule="evenodd"/><path d="M2988.59 1651.89 3053.69 1651.89 3053.69 1713.76 2988.59 1713.76Z" fill="#FFFFFF" fill-rule="evenodd"/><path d="M3053.69 1651.89 3118.79 1651.89 3118.79 1713.76 3053.69 1713.76Z" fill="#FFFFFF" fill-rule="evenodd"/><path d="M3118.79 1651.89 3183.89 1651.89 3183.89 1713.76 3118.79 1713.76Z" fill="#FFFFFF" fill-rule="evenodd"/><path d="M3183.89 1651.89 3248.99 1651.89 3248.99 1713.76 3183.89 1713.76Z" fill="#FFFFFF" fill-rule="evenodd"/><path d="M3248.99 1651.89 3314.09 1651.89 3314.09 1713.76 3248.99 1713.76Z" fill="#FFFFFF" fill-rule="evenodd"/><path d="M3314.09 1651.89 3379.19 1651.89 3379.19 1713.76 3314.09 1713.76Z" fill="#FFFFFF" fill-rule="evenodd"/><path d="M3379.19 1651.89 3444.29 1651.89 3444.29 1713.76 3379.19 1713.76Z" fill-rule="evenodd"/><path d="M3444.29 1651.89 3509.4 1651.89 3509.4 1713.76 3444.29 1713.76Z" fill-rule="evenodd"/><path d="M3509.4 1651.89 3574.5 1651.89 3574.5 1713.76 3509.4 1713.76Z" fill-rule="evenodd"/><path d="M3574.5 1651.89 3639.6 1651.89 3639.6 1713.76 3574.5 1713.76Z" fill-rule="evenodd"/><path d="M3639.6 1651.89 3704.7 1651.89 3704.7 1713.76 3639.6 1713.76Z" fill-rule="evenodd"/><path d="M3704.7 1651.89 3769.8 1651.89 3769.8 1713.76 3704.7 1713.76Z" fill="#FFFFFF" fill-rule="evenodd"/><path d="M3769.8 1651.89 3834.9 1651.89 3834.9 1713.76 3769.8 1713.76Z" fill="#FFFFFF" fill-rule="evenodd"/><path d="M3834.9 1651.89 3900 1651.89 3900 1713.76 3834.9 1713.76Z" fill="#FFFFFF" fill-rule="evenodd"/><path d="M3900 1651.89 3965.1 1651.89 3965.1 1713.76 3900 1713.76Z" fill="#FFFFFF" fill-rule="evenodd"/><path d="M2337.58 1713.76 2402.68 1713.76 2402.68 1775.64 2337.58 1775.64Z" fill-rule="evenodd"/><path d="M2402.68 1713.76 2467.78 1713.76 2467.78 1775.64 2402.68 1775.64Z" fill="#FFFFFF" fill-rule="evenodd"/><path d="M2467.78 1713.76 2532.88 1713.76 2532.88 1775.64 2467.78 1775.64Z" fill-rule="evenodd"/><path d="M2532.88 1713.76 2597.98 1713.76 2597.98 1775.64 2532.88 1775.64Z" fill-rule="evenodd"/><path d="M2597.98 1713.76 2663.08 1713.76 2663.08 1775.64 2597.98 1775.64Z" fill-rule="evenodd"/><path d="M2663.08 1713.76 2728.18 1713.76 2728.18 1775.64 2663.08 1775.64Z" fill="#FFFFFF" fill-rule="evenodd"/><path d="M2728.18 1713.76 2793.28 1713.76 2793.28 1775.64 2728.18 1775.64Z" fill-rule="evenodd"/><path d="M2793.28 1713.76 2858.38 1713.76 2858.38 1775.64 2793.28 1775.64Z" fill="#FFFFFF" fill-rule="evenodd"/><path d="M2858.38 1713.76 2923.49 1713.76 2923.49 1775.64 2858.38 1775.64Z" fill="#FFFFFF" fill-rule="evenodd"/><path d="M2923.49 1713.76 2988.59 1713.76 2988.59 1775.64 2923.49 1775.64Z" fill="#FFFFFF" fill-rule="evenodd"/><path d="M2988.59 1713.76 3053.69 1713.76 3053.69 1775.64 2988.59 1775.64Z" fill="#FFFFFF" fill-rule="evenodd"/><path d="M3053.69 1713.76 3118.79 1713.76 3118.79 1775.64 3053.69 1775.64Z" fill="#FFFFFF" fill-rule="evenodd"/><path d="M3118.79 1713.76 3183.89 1713.76 3183.89 1775.64 3118.79 1775.64Z" fill="#FFFFFF" fill-rule="evenodd"/><path d="M3183.89 1713.76 3248.99 1713.76 3248.99 1775.64 3183.89 1775.64Z" fill="#FFFFFF" fill-rule="evenodd"/><path d="M3248.99 1713.76 3314.09 1713.76 3314.09 1775.64 3248.99 1775.64Z" fill="#FFFFFF" fill-rule="evenodd"/><path d="M3314.09 1713.76 3379.19 1713.76 3379.19 1775.64 3314.09 1775.64Z" fill="#FFFFFF" fill-rule="evenodd"/><path d="M3379.19 1713.76 3444.29 1713.76 3444.29 1775.64 3379.19 1775.64Z" fill="#FFFFFF" fill-rule="evenodd"/><path d="M3444.29 1713.76 3509.4 1713.76 3509.4 1775.64 3444.29 1775.64Z" fill="#FFFFFF" fill-rule="evenodd"/><path d="M3509.4 1713.76 3574.5 1713.76 3574.5 1775.64 3509.4 1775.64Z" fill="#FFFFFF" fill-rule="evenodd"/><path d="M3574.5 1713.76 3639.6 1713.76 3639.6 1775.64 3574.5 1775.64Z" fill="#FFFFFF" fill-rule="evenodd"/><path d="M3639.6 1713.76 3704.7 1713.76 3704.7 1775.64 3639.6 1775.64Z" fill="#FFFFFF" fill-rule="evenodd"/><path d="M3704.7 1713.76 3769.8 1713.76 3769.8 1775.64 3704.7 1775.64Z" fill="#FFFFFF" fill-rule="evenodd"/><path d="M3769.8 1713.76 3834.9 1713.76 3834.9 1775.64 3769.8 1775.64Z" fill="#FFFFFF" fill-rule="evenodd"/><path d="M3834.9 1713.76 3900 1713.76 3900 1775.64 3834.9 1775.64Z" fill="#FFFFFF" fill-rule="evenodd"/><path d="M3900 1713.76 3965.1 1713.76 3965.1 1775.64 3900 1775.64Z" fill="#FFFFFF" fill-rule="evenodd"/><path d="M2337.58 1775.64 2402.68 1775.64 2402.68 1837.51 2337.58 1837.51Z" fill-rule="evenodd"/><path d="M2402.68 1775.64 2467.78 1775.64 2467.78 1837.51 2402.68 1837.51Z" fill="#FFFFFF" fill-rule="evenodd"/><path d="M2467.78 1775.64 2532.88 1775.64 2532.88 1837.51 2467.78 1837.51Z" fill-rule="evenodd"/><path d="M2532.88 1775.64 2597.98 1775.64 2597.98 1837.51 2532.88 1837.51Z" fill-rule="evenodd"/><path d="M2597.98 1775.64 2663.08 1775.64 2663.08 1837.51 2597.98 1837.51Z" fill-rule="evenodd"/><path d="M2663.08 1775.64 2728.18 1775.64 2728.18 1837.51 2663.08 1837.51Z" fill="#FFFFFF" fill-rule="evenodd"/><path d="M2728.18 1775.64 2793.28 1775.64 2793.28 1837.51 2728.18 1837.51Z" fill-rule="evenodd"/><path d="M2793.28 1775.64 2858.38 1775.64 2858.38 1837.51 2793.28 1837.51Z" fill="#FFFFFF" fill-rule="evenodd"/><path d="M2858.38 1775.64 2923.49 1775.64 2923.49 1837.51 2858.38 1837.51Z" fill="#FFFFFF" fill-rule="evenodd"/><path d="M2923.49 1775.64 2988.59 1775.64 2988.59 1837.51 2923.49 1837.51Z" fill="#FFFFFF" fill-rule="evenodd"/><path d="M2988.59 1775.64 3053.69 1775.64 3053.69 1837.51 2988.59 1837.51Z" fill="#FFFFFF" fill-rule="evenodd"/><path d="M3053.69 1775.64 3118.79 1775.64 3118.79 1837.51 3053.69 1837.51Z" fill="#FFFFFF" fill-rule="evenodd"/><path d="M3118.79 1775.64 3183.89 1775.64 3183.89 1837.51 3118.79 1837.51Z" fill="#FFFFFF" fill-rule="evenodd"/><path d="M3183.89 1775.64 3248.99 1775.64 3248.99 1837.51 3183.89 1837.51Z" fill="#FFFFFF" fill-rule="evenodd"/><path d="M3248.99 1775.64 3314.09 1775.64 3314.09 1837.51 3248.99 1837.51Z" fill="#FFFFFF" fill-rule="evenodd"/><path d="M3314.09 1775.64 3379.19 1775.64 3379.19 1837.51 3314.09 1837.51Z" fill="#FFFFFF" fill-rule="evenodd"/><path d="M3379.19 1775.64 3444.29 1775.64 3444.29 1837.51 3379.19 1837.51Z" fill="#FFFFFF" fill-rule="evenodd"/><path d="M3444.29 1775.64 3509.4 1775.64 3509.4 1837.51 3444.29 1837.51Z" fill="#FFFFFF" fill-rule="evenodd"/><path d="M3509.4 1775.64 3574.5 1775.64 3574.5 1837.51 3509.4 1837.51Z" fill="#FFFFFF" fill-rule="evenodd"/><path d="M3574.5 1775.64 3639.6 1775.64 3639.6 1837.51 3574.5 1837.51Z" fill="#FFFFFF" fill-rule="evenodd"/><path d="M3639.6 1775.64 3704.7 1775.64 3704.7 1837.51 3639.6 1837.51Z" fill="#FFFFFF" fill-rule="evenodd"/><path d="M3704.7 1775.64 3769.8 1775.64 3769.8 1837.51 3704.7 1837.51Z" fill="#FFFFFF" fill-rule="evenodd"/><path d="M3769.8 1775.64 3834.9 1775.64 3834.9 1837.51 3769.8 1837.51Z" fill="#FFFFFF" fill-rule="evenodd"/><path d="M3834.9 1775.64 3900 1775.64 3900 1837.51 3834.9 1837.51Z" fill="#FFFFFF" fill-rule="evenodd"/><path d="M3900 1775.64 3965.1 1775.64 3965.1 1837.51 3900 1837.51Z" fill="#FFFFFF" fill-rule="evenodd"/><path d="M2337.58 1837.51 2402.68 1837.51 2402.68 1899.39 2337.58 1899.39Z" fill-rule="evenodd"/><path d="M2402.68 1837.51 2467.78 1837.51 2467.78 1899.39 2402.68 1899.39Z" fill="#FFFFFF" fill-rule="evenodd"/><path d="M2467.78 1837.51 2532.88 1837.51 2532.88 1899.39 2467.78 1899.39Z" fill="#FFFFFF" fill-rule="evenodd"/><path d="M2532.88 1837.51 2597.98 1837.51 2597.98 1899.39 2532.88 1899.39Z" fill="#FFFFFF" fill-rule="evenodd"/><path d="M2597.98 1837.51 2663.08 1837.51 2663.08 1899.39 2597.98 1899.39Z" fill="#FFFFFF" fill-rule="evenodd"/><path d="M2663.08 1837.51 2728.18 1837.51 2728.18 1899.39 2663.08 1899.39Z" fill="#FFFFFF" fill-rule="evenodd"/><path d="M2728.18 1837.51 2793.28 1837.51 2793.28 1899.39 2728.18 1899.39Z" fill-rule="evenodd"/><path d="M2793.28 1837.51 2858.38 1837.51 2858.38 1899.39 2793.28 1899.39Z" fill="#FFFFFF" fill-rule="evenodd"/><path d="M2858.38 1837.51 2923.49 1837.51 2923.49 1899.39 2858.38 1899.39Z" fill="#FFFFFF" fill-rule="evenodd"/><path d="M2923.49 1837.51 2988.59 1837.51 2988.59 1899.39 2923.49 1899.39Z" fill="#FFFFFF" fill-rule="evenodd"/><path d="M2988.59 1837.51 3053.69 1837.51 3053.69 1899.39 2988.59 1899.39Z" fill="#FFFFFF" fill-rule="evenodd"/><path d="M3053.69 1837.51 3118.79 1837.51 3118.79 1899.39 3053.69 1899.39Z" fill="#FFFFFF" fill-rule="evenodd"/><path d="M3118.79 1837.51 3183.89 1837.51 3183.89 1899.39 3118.79 1899.39Z" fill="#FFFFFF" fill-rule="evenodd"/><path d="M3183.89 1837.51 3248.99 1837.51 3248.99 1899.39 3183.89 1899.39Z" fill="#FFFFFF" fill-rule="evenodd"/><path d="M3248.99 1837.51 3314.09 1837.51 3314.09 1899.39 3248.99 1899.39Z" fill="#FFFFFF" fill-rule="evenodd"/><path d="M3314.09 1837.51 3379.19 1837.51 3379.19 1899.39 3314.09 1899.39Z" fill="#FFFFFF" fill-rule="evenodd"/><path d="M3379.19 1837.51 3444.29 1837.51 3444.29 1899.39 3379.19 1899.39Z" fill="#FFFFFF" fill-rule="evenodd"/><path d="M3444.29 1837.51 3509.4 1837.51 3509.4 1899.39 3444.29 1899.39Z" fill="#FFFFFF" fill-rule="evenodd"/><path d="M3509.4 1837.51 3574.5 1837.51 3574.5 1899.39 3509.4 1899.39Z" fill="#FFFFFF" fill-rule="evenodd"/><path d="M3574.5 1837.51 3639.6 1837.51 3639.6 1899.39 3574.5 1899.39Z" fill="#FFFFFF" fill-rule="evenodd"/><path d="M3639.6 1837.51 3704.7 1837.51 3704.7 1899.39 3639.6 1899.39Z" fill="#FFFFFF" fill-rule="evenodd"/><path d="M3704.7 1837.51 3769.8 1837.51 3769.8 1899.39 3704.7 1899.39Z" fill="#FFFFFF" fill-rule="evenodd"/><path d="M3769.8 1837.51 3834.9 1837.51 3834.9 1899.39 3769.8 1899.39Z" fill="#FFFFFF" fill-rule="evenodd"/><path d="M3834.9 1837.51 3900 1837.51 3900 1899.39 3834.9 1899.39Z" fill="#FFFFFF" fill-rule="evenodd"/><path d="M3900 1837.51 3965.1 1837.51 3965.1 1899.39 3900 1899.39Z" fill="#FFFFFF" fill-rule="evenodd"/><path d="M2337.58 1899.39 2402.68 1899.39 2402.68 1961.26 2337.58 1961.26Z" fill-rule="evenodd"/><path d="M2402.68 1899.39 2467.78 1899.39 2467.78 1961.26 2402.68 1961.26Z" fill-rule="evenodd"/><path d="M2467.78 1899.39 2532.88 1899.39 2532.88 1961.26 2467.78 1961.26Z" fill-rule="evenodd"/><path d="M2532.88 1899.39 2597.98 1899.39 2597.98 1961.26 2532.88 1961.26Z" fill-rule="evenodd"/><path d="M2597.98 1899.39 2663.08 1899.39 2663.08 1961.26 2597.98 1961.26Z" fill-rule="evenodd"/><path d="M2663.08 1899.39 2728.18 1899.39 2728.18 1961.26 2663.08 1961.26Z" fill-rule="evenodd"/><path d="M2728.18 1899.39 2793.28 1899.39 2793.28 1961.26 2728.18 1961.26Z" fill-rule="evenodd"/><path d="M2793.28 1899.39 2858.38 1899.39 2858.38 1961.26 2793.28 1961.26Z" fill="#FFFFFF" fill-rule="evenodd"/><path d="M2858.38 1899.39 2923.49 1899.39 2923.49 1961.26 2858.38 1961.26Z" fill="#FFFFFF" fill-rule="evenodd"/><path d="M2923.49 1899.39 2988.59 1899.39 2988.59 1961.26 2923.49 1961.26Z" fill="#FFFFFF" fill-rule="evenodd"/><path d="M2988.59 1899.39 3053.69 1899.39 3053.69 1961.26 2988.59 1961.26Z" fill="#FFFFFF" fill-rule="evenodd"/><path d="M3053.69 1899.39 3118.79 1899.39 3118.79 1961.26 3053.69 1961.26Z" fill="#FFFFFF" fill-rule="evenodd"/><path d="M3118.79 1899.39 3183.89 1899.39 3183.89 1961.26 3118.79 1961.26Z" fill="#FFFFFF" fill-rule="evenodd"/><path d="M3183.89 1899.39 3248.99 1899.39 3248.99 1961.26 3183.89 1961.26Z" fill="#FFFFFF" fill-rule="evenodd"/><path d="M3248.99 1899.39 3314.09 1899.39 3314.09 1961.26 3248.99 1961.26Z" fill="#FFFFFF" fill-rule="evenodd"/><path d="M3314.09 1899.39 3379.19 1899.39 3379.19 1961.26 3314.09 1961.26Z" fill="#FFFFFF" fill-rule="evenodd"/><path d="M3379.19 1899.39 3444.29 1899.39 3444.29 1961.26 3379.19 1961.26Z" fill="#FFFFFF" fill-rule="evenodd"/><path d="M3444.29 1899.39 3509.4 1899.39 3509.4 1961.26 3444.29 1961.26Z" fill="#FFFFFF" fill-rule="evenodd"/><path d="M3509.4 1899.39 3574.5 1899.39 3574.5 1961.26 3509.4 1961.26Z" fill="#FFFFFF" fill-rule="evenodd"/><path d="M3574.5 1899.39 3639.6 1899.39 3639.6 1961.26 3574.5 1961.26Z" fill="#FFFFFF" fill-rule="evenodd"/><path d="M3639.6 1899.39 3704.7 1899.39 3704.7 1961.26 3639.6 1961.26Z" fill="#FFFFFF" fill-rule="evenodd"/><path d="M3704.7 1899.39 3769.8 1899.39 3769.8 1961.26 3704.7 1961.26Z" fill="#FFFFFF" fill-rule="evenodd"/><path d="M3769.8 1899.39 3834.9 1899.39 3834.9 1961.26 3769.8 1961.26Z" fill="#FFFFFF" fill-rule="evenodd"/><path d="M3834.9 1899.39 3900 1899.39 3900 1961.26 3834.9 1961.26Z" fill="#FFFFFF" fill-rule="evenodd"/><path d="M3900 1899.39 3965.1 1899.39 3965.1 1961.26 3900 1961.26Z" fill="#FFFFFF" fill-rule="evenodd"/><path d="M2337.58 331.327 2337.58 414.387" stroke="#A5A5A5" stroke-width="4.58333" stroke-linejoin="round" stroke-miterlimit="10" fill="none" fill-rule="evenodd"/><path d="M2337.58 414.387 2337.58 1963.55" stroke="#000000" stroke-width="4.58333" stroke-linejoin="round" stroke-miterlimit="10" fill="none" fill-rule="evenodd"/><path d="M2402.68 845.221 2402.68 1530.43" stroke="#A5A5A5" stroke-width="4.58333" stroke-linejoin="round" stroke-miterlimit="10" fill="none" fill-rule="evenodd"/><path d="M2467.78 845.221 2467.78 1530.43" stroke="#A5A5A5" stroke-width="4.58333" stroke-linejoin="round" stroke-miterlimit="10" fill="none" fill-rule="evenodd"/><path d="M2532.88 845.221 2532.88 1530.43" stroke="#A5A5A5" stroke-width="4.58333" stroke-linejoin="round" stroke-miterlimit="10" fill="none" fill-rule="evenodd"/><path d="M2597.98 845.221 2597.98 1530.43" stroke="#A5A5A5" stroke-width="4.58333" stroke-linejoin="round" stroke-miterlimit="10" fill="none" fill-rule="evenodd"/><path d="M2663.08 331.327 2663.08 416.679" stroke="#A5A5A5" stroke-width="4.58333" stroke-linejoin="round" stroke-miterlimit="10" fill="none" fill-rule="evenodd"/><path d="M2663.08 845.221 2663.08 1530.43" stroke="#000000" stroke-width="4.58333" stroke-linejoin="round" stroke-miterlimit="10" fill="none" fill-rule="evenodd"/><path d="M2728.18 845.221 2728.18 1530.43" stroke="#A5A5A5" stroke-width="4.58333" stroke-linejoin="round" stroke-miterlimit="10" fill="none" fill-rule="evenodd"/><path d="M2793.28 412.096 2793.28 847.512" stroke="#000000" stroke-width="4.58333" stroke-linejoin="round" stroke-miterlimit="10" fill="none" fill-rule="evenodd"/><path d="M2793.28 847.512 2793.28 1528.14" stroke="#A5A5A5" stroke-width="4.58333" stroke-linejoin="round" stroke-miterlimit="10" fill="none" fill-rule="evenodd"/><path d="M2793.28 1528.14 2793.28 1963.55" stroke="#000000" stroke-width="4.58333" stroke-linejoin="round" stroke-miterlimit="10" fill="none" fill-rule="evenodd"/><path d="M2858.38 412.096 2858.38 1963.55" stroke="#A5A5A5" stroke-width="4.58333" stroke-linejoin="round" stroke-miterlimit="10" fill="none" fill-rule="evenodd"/><path d="M2923.49 412.096 2923.49 1963.55" stroke="#A5A5A5" stroke-width="4.58333" stroke-linejoin="round" stroke-miterlimit="10" fill="none" fill-rule="evenodd"/><path d="M2988.59 331.327 2988.59 414.387" stroke="#A5A5A5" stroke-width="4.58333" stroke-linejoin="round" stroke-miterlimit="10" fill="none" fill-rule="evenodd"/><path d="M2988.59 414.387 2988.59 1963.55" stroke="#000000" stroke-width="4.58333" stroke-linejoin="round" stroke-miterlimit="10" fill="none" fill-rule="evenodd"/><path d="M3053.69 412.096 3053.69 1963.55" stroke="#A5A5A5" stroke-width="4.58333" stroke-linejoin="round" stroke-miterlimit="10" fill="none" fill-rule="evenodd"/><path d="M3118.79 412.096 3118.79 1963.55" stroke="#A5A5A5" stroke-width="4.58333" stroke-linejoin="round" stroke-miterlimit="10" fill="none" fill-rule="evenodd"/><path d="M3183.89 412.096 3183.89 1963.55" stroke="#A5A5A5" stroke-width="4.58333" stroke-linejoin="round" stroke-miterlimit="10" fill="none" fill-rule="evenodd"/><path d="M3248.99 412.096 3248.99 1963.55" stroke="#A5A5A5" stroke-width="4.58333" stroke-linejoin="round" stroke-miterlimit="10" fill="none" fill-rule="evenodd"/><path d="M3314.09 331.327 3314.09 414.387" stroke="#A5A5A5" stroke-width="4.58333" stroke-linejoin="round" stroke-miterlimit="10" fill="none" fill-rule="evenodd"/><path d="M3314.09 414.387 3314.09 1963.55" stroke="#000000" stroke-width="4.58333" stroke-linejoin="round" stroke-miterlimit="10" fill="none" fill-rule="evenodd"/><path d="M3379.19 412.096 3379.19 1404.39" stroke="#A5A5A5" stroke-width="4.58333" stroke-linejoin="round" stroke-miterlimit="10" fill="none" fill-rule="evenodd"/><path d="M3379.19 1404.39 3379.19 1713.76" stroke="#000000" stroke-width="4.58333" stroke-linejoin="round" stroke-miterlimit="10" fill="none" fill-rule="evenodd"/><path d="M3379.19 1713.76 3379.19 1963.55" stroke="#A5A5A5" stroke-width="4.58333" stroke-linejoin="round" stroke-miterlimit="10" fill="none" fill-rule="evenodd"/><path d="M3444.29 412.096 3444.29 1406.68" stroke="#A5A5A5" stroke-width="4.58333" stroke-linejoin="round" stroke-miterlimit="10" fill="none" fill-rule="evenodd"/><path d="M3444.29 1711.47 3444.29 1963.55" stroke="#A5A5A5" stroke-width="4.58333" stroke-linejoin="round" stroke-miterlimit="10" fill="none" fill-rule="evenodd"/><path d="M3509.4 412.096 3509.4 847.512" stroke="#000000" stroke-width="4.58333" stroke-linejoin="round" stroke-miterlimit="10" fill="none" fill-rule="evenodd"/><path d="M3509.4 847.512 3509.4 1406.68" stroke="#A5A5A5" stroke-width="4.58333" stroke-linejoin="round" stroke-miterlimit="10" fill="none" fill-rule="evenodd"/><path d="M3509.4 1711.47 3509.4 1963.55" stroke="#A5A5A5" stroke-width="4.58333" stroke-linejoin="round" stroke-miterlimit="10" fill="none" fill-rule="evenodd"/><path d="M3574.5 845.221 3574.5 1406.68" stroke="#A5A5A5" stroke-width="4.58333" stroke-linejoin="round" stroke-miterlimit="10" fill="none" fill-rule="evenodd"/><path d="M3574.5 1711.47 3574.5 1963.55" stroke="#A5A5A5" stroke-width="4.58333" stroke-linejoin="round" stroke-miterlimit="10" fill="none" fill-rule="evenodd"/><path d="M3639.6 331.327 3639.6 416.679" stroke="#A5A5A5" stroke-width="4.58333" stroke-linejoin="round" stroke-miterlimit="10" fill="none" fill-rule="evenodd"/><path d="M3639.6 845.221 3639.6 1406.68" stroke="#000000" stroke-width="4.58333" stroke-linejoin="round" stroke-miterlimit="10" fill="none" fill-rule="evenodd"/><path d="M3639.6 1711.47 3639.6 1963.55" stroke="#000000" stroke-width="4.58333" stroke-linejoin="round" stroke-miterlimit="10" fill="none" fill-rule="evenodd"/><path d="M3704.7 845.221 3704.7 1404.39" stroke="#A5A5A5" stroke-width="4.58333" stroke-linejoin="round" stroke-miterlimit="10" fill="none" fill-rule="evenodd"/><path d="M3704.7 1404.39 3704.7 1713.76" stroke="#000000" stroke-width="4.58333" stroke-linejoin="round" stroke-miterlimit="10" fill="none" fill-rule="evenodd"/><path d="M3704.7 1713.76 3704.7 1963.55" stroke="#A5A5A5" stroke-width="4.58333" stroke-linejoin="round" stroke-miterlimit="10" fill="none" fill-rule="evenodd"/><path d="M3769.8 845.221 3769.8 1963.55" stroke="#A5A5A5" stroke-width="4.58333" stroke-linejoin="round" stroke-miterlimit="10" fill="none" fill-rule="evenodd"/><path d="M3834.9 845.221 3834.9 1963.55" stroke="#A5A5A5" stroke-width="4.58333" stroke-linejoin="round" stroke-miterlimit="10" fill="none" fill-rule="evenodd"/><path d="M3900 845.221 3900 1963.55" stroke="#A5A5A5" stroke-width="4.58333" stroke-linejoin="round" stroke-miterlimit="10" fill="none" fill-rule="evenodd"/><path d="M2257.61 414.387 2339.87 414.387" stroke="#A5A5A5" stroke-width="9.16667" stroke-linejoin="round" stroke-miterlimit="10" fill="none" fill-rule="evenodd"/><path d="M2339.87 414.387 3967.39 414.387" stroke="#000000" stroke-width="4.58333" stroke-linejoin="round" stroke-miterlimit="10" fill="none" fill-rule="evenodd"/><path d="M2790.99 476.262 3511.69 476.262" stroke="#A5A5A5" stroke-width="4.58333" stroke-linejoin="round" stroke-miterlimit="10" fill="none" fill-rule="evenodd"/><path d="M2790.99 538.137 3511.69 538.137" stroke="#A5A5A5" stroke-width="4.58333" stroke-linejoin="round" stroke-miterlimit="10" fill="none" fill-rule="evenodd"/><path d="M2790.99 600.012 3511.69 600.012" stroke="#A5A5A5" stroke-width="4.58333" stroke-linejoin="round" stroke-miterlimit="10" fill="none" fill-rule="evenodd"/><path d="M2790.99 661.887 3511.69 661.887" stroke="#A5A5A5" stroke-width="4.58333" stroke-linejoin="round" stroke-miterlimit="10" fill="none" fill-rule="evenodd"/><path d="M2257.61 723.762 2339.87 723.762" stroke="#A5A5A5" stroke-width="4.58333" stroke-linejoin="round" stroke-miterlimit="10" fill="none" fill-rule="evenodd"/><path d="M2790.99 723.762 3511.69 723.762" stroke="#000000" stroke-width="4.58333" stroke-linejoin="round" stroke-miterlimit="10" fill="none" fill-rule="evenodd"/><path d="M2790.99 785.637 3511.69 785.637" stroke="#A5A5A5" stroke-width="4.58333" stroke-linejoin="round" stroke-miterlimit="10" fill="none" fill-rule="evenodd"/><path d="M2335.29 847.512 2793.28 847.512" stroke="#000000" stroke-width="4.58333" stroke-linejoin="round" stroke-miterlimit="10" fill="none" fill-rule="evenodd"/><path d="M2793.28 847.512 3509.4 847.512" stroke="#A5A5A5" stroke-width="4.58333" stroke-linejoin="round" stroke-miterlimit="10" fill="none" fill-rule="evenodd"/><path d="M3509.4 847.512 3967.39 847.512" stroke="#000000" stroke-width="4.58333" stroke-linejoin="round" stroke-miterlimit="10" fill="none" fill-rule="evenodd"/><path d="M2335.29 909.387 3967.39 909.387" stroke="#A5A5A5" stroke-width="4.58333" stroke-linejoin="round" stroke-miterlimit="10" fill="none" fill-rule="evenodd"/><path d="M2335.29 971.262 3967.39 971.262" stroke="#A5A5A5" stroke-width="4.58333" stroke-linejoin="round" stroke-miterlimit="10" fill="none" fill-rule="evenodd"/><path d="M2257.61 1033.14 2337.58 1033.14" stroke="#A5A5A5" stroke-width="4.58333" stroke-linejoin="round" stroke-miterlimit="10" fill="none" fill-rule="evenodd"/><path d="M2337.58 1033.14 3967.39 1033.14" stroke="#000000" stroke-width="4.58333" stroke-linejoin="round" stroke-miterlimit="10" fill="none" fill-rule="evenodd"/><path d="M2335.29 1095.01 3967.39 1095.01" stroke="#A5A5A5" stroke-width="4.58333" stroke-linejoin="round" stroke-miterlimit="10" fill="none" fill-rule="evenodd"/><path d="M2335.29 1156.89 3967.39 1156.89" stroke="#A5A5A5" stroke-width="4.58333" stroke-linejoin="round" stroke-miterlimit="10" fill="none" fill-rule="evenodd"/><path d="M2335.29 1218.76 3967.39 1218.76" stroke="#A5A5A5" stroke-width="4.58333" stroke-linejoin="round" stroke-miterlimit="10" fill="none" fill-rule="evenodd"/><path d="M2335.29 1280.64 3967.39 1280.64" stroke="#A5A5A5" stroke-width="4.58333" stroke-linejoin="round" stroke-miterlimit="10" fill="none" fill-rule="evenodd"/><path d="M2257.61 1342.51 2337.58 1342.51" stroke="#A5A5A5" stroke-width="4.58333" stroke-linejoin="round" stroke-miterlimit="10" fill="none" fill-rule="evenodd"/><path d="M2337.58 1342.51 3967.39 1342.51" stroke="#000000" stroke-width="4.58333" stroke-linejoin="round" stroke-miterlimit="10" fill="none" fill-rule="evenodd"/><path d="M2335.29 1404.39 3379.19 1404.39" stroke="#A5A5A5" stroke-width="4.58333" stroke-linejoin="round" stroke-miterlimit="10" fill="none" fill-rule="evenodd"/><path d="M3379.19 1404.39 3704.7 1404.39" stroke="#000000" stroke-width="4.58333" stroke-linejoin="round" stroke-miterlimit="10" fill="none" fill-rule="evenodd"/><path d="M3704.7 1404.39 3967.39 1404.39" stroke="#A5A5A5" stroke-width="4.58333" stroke-linejoin="round" stroke-miterlimit="10" fill="none" fill-rule="evenodd"/><path d="M2335.29 1466.26 3381.48 1466.26" stroke="#A5A5A5" stroke-width="4.58333" stroke-linejoin="round" stroke-miterlimit="10" fill="none" fill-rule="evenodd"/><path d="M3702.41 1466.26 3967.39 1466.26" stroke="#A5A5A5" stroke-width="4.58333" stroke-linejoin="round" stroke-miterlimit="10" fill="none" fill-rule="evenodd"/><path d="M2335.29 1528.14 2793.28 1528.14" stroke="#000000" stroke-width="4.58333" stroke-linejoin="round" stroke-miterlimit="10" fill="none" fill-rule="evenodd"/><path d="M2793.28 1528.14 3381.48 1528.14" stroke="#A5A5A5" stroke-width="4.58333" stroke-linejoin="round" stroke-miterlimit="10" fill="none" fill-rule="evenodd"/><path d="M3702.41 1528.14 3967.39 1528.14" stroke="#A5A5A5" stroke-width="4.58333" stroke-linejoin="round" stroke-miterlimit="10" fill="none" fill-rule="evenodd"/><path d="M2790.99 1590.01 3381.48 1590.01" stroke="#A5A5A5" stroke-width="4.58333" stroke-linejoin="round" stroke-miterlimit="10" fill="none" fill-rule="evenodd"/><path d="M3702.41 1590.01 3967.39 1590.01" stroke="#A5A5A5" stroke-width="4.58333" stroke-linejoin="round" stroke-miterlimit="10" fill="none" fill-rule="evenodd"/><path d="M2257.61 1651.89 2339.87 1651.89" stroke="#A5A5A5" stroke-width="4.58333" stroke-linejoin="round" stroke-miterlimit="10" fill="none" fill-rule="evenodd"/><path d="M2790.99 1651.89 3381.48 1651.89" stroke="#000000" stroke-width="4.58333" stroke-linejoin="round" stroke-miterlimit="10" fill="none" fill-rule="evenodd"/><path d="M3702.41 1651.89 3967.39 1651.89" stroke="#000000" stroke-width="4.58333" stroke-linejoin="round" stroke-miterlimit="10" fill="none" fill-rule="evenodd"/><path d="M2790.99 1713.76 3379.19 1713.76" stroke="#A5A5A5" stroke-width="4.58333" stroke-linejoin="round" stroke-miterlimit="10" fill="none" fill-rule="evenodd"/><path d="M3379.19 1713.76 3704.7 1713.76" stroke="#000000" stroke-width="4.58333" stroke-linejoin="round" stroke-miterlimit="10" fill="none" fill-rule="evenodd"/><path d="M3704.7 1713.76 3967.39 1713.76" stroke="#A5A5A5" stroke-width="4.58333" stroke-linejoin="round" stroke-miterlimit="10" fill="none" fill-rule="evenodd"/><path d="M2790.99 1775.64 3967.39 1775.64" stroke="#A5A5A5" stroke-width="4.58333" stroke-linejoin="round" stroke-miterlimit="10" fill="none" fill-rule="evenodd"/><path d="M2790.99 1837.51 3967.39 1837.51" stroke="#A5A5A5" stroke-width="4.58333" stroke-linejoin="round" stroke-miterlimit="10" fill="none" fill-rule="evenodd"/><path d="M2790.99 1899.39 3967.39 1899.39" stroke="#A5A5A5" stroke-width="4.58333" stroke-linejoin="round" stroke-miterlimit="10" fill="none" fill-rule="evenodd"/><path d="M2259.9 331.327 2259.9 1963.55" stroke="#A5A5A5" stroke-width="4.58333" stroke-linejoin="round" stroke-miterlimit="10" fill="none" fill-rule="evenodd"/><path d="M3965.1 331.327 3965.1 414.387" stroke="#A5A5A5" stroke-width="4.58333" stroke-linejoin="round" stroke-miterlimit="10" fill="none" fill-rule="evenodd"/><path d="M3965.1 414.387 3965.1 1963.55" stroke="#000000" stroke-width="4.58333" stroke-linejoin="round" stroke-miterlimit="10" fill="none" fill-rule="evenodd"/><path d="M2257.61 333.618 3967.39 333.618" stroke="#A5A5A5" stroke-width="4.58333" stroke-linejoin="round" stroke-miterlimit="10" fill="none" fill-rule="evenodd"/><path d="M2257.61 1961.26 2337.58 1961.26" stroke="#A5A5A5" stroke-width="4.58333" stroke-linejoin="round" stroke-miterlimit="10" fill="none" fill-rule="evenodd"/><path d="M2337.58 1961.26 3967.39 1961.26" stroke="#000000" stroke-width="4.58333" stroke-linejoin="round" stroke-miterlimit="10" fill="none" fill-rule="evenodd"/><text fill="#7F7F7F" font-family="Calibri,Calibri_MSFontService,sans-serif" font-weight="700" font-size="50" transform="matrix(1 0 0 1 3789.46 392)">5</text><text fill="#7F7F7F" font-family="Calibri,Calibri_MSFontService,sans-serif" font-weight="700" font-size="50" transform="matrix(1 0 0 1 3463.95 392)">4</text><text fill="#7F7F7F" font-family="Calibri,Calibri_MSFontService,sans-serif" font-weight="700" font-size="50" transform="matrix(1 0 0 1 3138.45 392)">3</text><text fill="#7F7F7F" font-family="Calibri,Calibri_MSFontService,sans-serif" font-weight="700" font-size="50" transform="matrix(1 0 0 1 2812.94 392)">2</text><text fill="#7F7F7F" font-family="Calibri,Calibri_MSFontService,sans-serif" font-weight="700" font-size="50" transform="matrix(1 0 0 1 2487.44 392)">1</text><g clip-path="url(#clip1)"><text fill="#7F7F7F" font-family="Calibri,Calibri_MSFontService,sans-serif" font-weight="700" font-size="50" transform="matrix(1 0 0 1 2283.55 587)">A</text></g><g clip-path="url(#clip2)"><text fill="#7F7F7F" font-family="Calibri,Calibri_MSFontService,sans-serif" font-weight="700" font-size="50" transform="matrix(1 0 0 1 2284.7 897)">B</text></g><g clip-path="url(#clip3)"><text fill="#7F7F7F" font-family="Calibri,Calibri_MSFontService,sans-serif" font-weight="700" font-size="50" transform="matrix(1 0 0 1 2285.27 1206)">C</text></g><g clip-path="url(#clip4)"><text fill="#7F7F7F" font-family="Calibri,Calibri_MSFontService,sans-serif" font-weight="700" font-size="50" transform="matrix(1 0 0 1 2282.98 1515)">D</text></g><g clip-path="url(#clip5)"><text fill="#7F7F7F" font-family="Calibri,Calibri_MSFontService,sans-serif" font-weight="700" font-size="50" transform="matrix(1 0 0 1 2286.42 1825)">E</text></g></g></svg>